<svg width="16" height="17" viewBox="0 0 16 17" fill="none" xmlns="http://www.w3.org/2000/svg">
<circle cx="8" cy="8.5" r="7" fill="#FF8C00"/>
<path d="M10.9745 10.5503C10.9632 10.4513 10.9064 10.2246 10.7586 10.1664H10.7588C10.6848 10.1373 10.6223 10.1604 10.5941 10.2128C10.5485 10.2944 10.5826 10.4513 10.6679 10.5911C10.753 10.7307 10.8326 10.8005 10.8894 10.8005C10.9463 10.8005 10.9973 10.7307 10.9745 10.5503Z" fill="white"/>
<path d="M10.1794 10.9459C10.0885 10.8645 9.98629 10.8238 9.89538 10.8238C9.81594 10.8238 9.75345 10.8528 9.71355 10.9052C9.61152 11.033 9.65689 11.2659 9.81594 11.4055C9.88408 11.4695 9.98629 11.5044 10.0829 11.5044C10.1794 11.5044 10.2645 11.4638 10.3157 11.3997C10.4066 11.2717 10.3554 11.0972 10.1794 10.9459Z" fill="white"/>
<path d="M4 8.50246C4 10.7131 5.74913 12.505 7.90748 12.5051C8.4812 12.5051 9.0491 12.3946 9.88408 12.3887C10.6282 12.3887 11.446 12.6563 12.3433 13.4709C12.4342 13.5522 12.5534 13.4475 12.4739 13.3486C11.5936 12.2026 10.7757 11.9874 9.95787 11.8012C8.95836 11.5742 8.44713 11.0041 8.0893 10.37C8.02116 10.242 7.98709 10.2653 7.98127 10.4282C7.97483 10.6679 7.99198 10.9077 8.03246 11.1439H7.91331C6.48765 11.1439 5.32891 9.95698 5.32891 8.49667C5.32891 7.03637 6.48765 5.84946 7.91313 5.84946C9.33878 5.84946 10.4975 7.03637 10.4975 8.49667C10.4975 8.60137 10.4917 8.70606 10.4804 8.80497C10.2873 8.77007 9.91815 8.76429 9.65689 8.78761C9.56032 8.79919 9.57162 8.84566 9.64559 8.85741C10.4975 9.02015 11.0825 9.56134 11.2188 10.5445C11.2245 10.5678 11.2529 10.5736 11.2644 10.5562C11.6107 9.95698 11.8151 9.25286 11.8151 8.50246C11.8151 6.29193 10.0657 4.5 7.90748 4.5C5.74941 4.5 4 6.29175 4 8.50246Z" fill="white"/>
</svg>
