<svg width="16" height="17" viewBox="0 0 16 17" fill="none" xmlns="http://www.w3.org/2000/svg">
<path fill-rule="evenodd" clip-rule="evenodd" d="M6.59582 6.31966C6.5884 6.31966 6.57405 6.31966 6.56663 6.31966C6.44349 6.30465 6.34212 6.1918 6.34212 6.06394C6.3347 5.94357 6.2694 3.13036 7.85637 2.49102C8.25497 2.33305 8.62489 2.36312 8.93645 2.59634C9.32021 2.87464 9.59566 3.43125 9.76232 4.24362C9.87804 4.81529 9.89981 5.31171 9.89981 5.3343C9.90723 5.45463 9.81327 5.54494 9.68964 5.52235C9.5665 5.50729 9.46513 5.39449 9.46513 5.27411C9.44337 4.76263 9.2767 3.35605 8.72628 2.94984C8.5522 2.82199 8.33459 2.80693 8.07397 2.91224C6.71152 3.46132 6.7768 6.10154 6.7768 6.13161C6.7768 6.23693 6.70462 6.31966 6.59582 6.31966Z" fill="#595961"/>
<path opacity="0.46" fill-rule="evenodd" clip-rule="evenodd" d="M8.85447 2.61062C8.56467 2.39999 8.22441 2.36992 7.8545 2.51283C7.20962 2.77608 6.75318 3.46812 6.52866 4.5212C6.362 5.29592 6.38374 5.9955 6.38374 6.02557C6.38374 6.06317 6.39809 6.10082 6.42727 6.13089C6.45595 6.16095 6.48513 6.18354 6.52123 6.18354C6.52865 6.18354 6.53607 6.18354 6.543 6.18354C6.60827 6.18354 6.6592 6.13089 6.6592 6.06317C6.6592 6.0331 6.59395 3.34775 7.9925 2.78361C8.27488 2.67081 8.52115 2.68582 8.72441 2.83627C9.31093 3.26502 9.48499 4.71678 9.50675 5.23579C9.50675 5.31098 9.57205 5.38623 9.65167 5.39371C9.72436 5.40124 9.78221 5.34858 9.78221 5.27338C9.7748 5.18313 9.69519 3.22742 8.85447 2.61062Z" fill="#B2B2C2"/>
<path opacity="0.46" fill-rule="evenodd" clip-rule="evenodd" d="M6.5281 6.09425C6.52068 6.09425 6.52069 6.09425 6.51376 6.09425C6.47024 6.08672 6.43364 6.04159 6.42671 5.99646C6.42671 5.96634 6.40497 5.28188 6.57163 4.5071C6.78873 3.47662 7.24566 2.7921 7.87571 2.53634C8.23078 2.39342 8.54978 2.42354 8.82524 2.61912C9.63678 3.21332 9.7164 5.13896 9.7164 5.22169C9.7164 5.26682 9.68029 5.29689 9.63677 5.28941C9.59325 5.28188 9.55714 5.24428 9.54972 5.19162C9.54972 5.16903 9.47011 3.28104 8.73819 2.73944C8.52059 2.58152 8.25256 2.55893 7.94842 2.67925C6.52811 3.27351 6.59339 5.99646 6.59339 6.02653C6.60031 6.06413 6.57162 6.09425 6.5281 6.09425Z" fill="#B2B2C2"/>
<path opacity="0.62" fill-rule="evenodd" clip-rule="evenodd" d="M7.11612 3.94265C7.17398 3.82985 7.23183 3.71701 7.28276 3.59668C7.261 3.63428 7.1161 4.02543 6.67398 3.96524C6.66656 3.96524 6.93462 4.04797 7.11612 3.94265Z" fill="#595961"/>
<path opacity="0.62" fill-rule="evenodd" clip-rule="evenodd" d="M6.9562 4.4252C6.99972 4.30483 7.04323 4.17697 7.07241 4.05664C7.05807 4.10177 6.98536 4.50793 6.52148 4.50793C6.52148 4.50793 6.78954 4.56059 6.9562 4.4252Z" fill="#595961"/>
<path opacity="0.62" fill-rule="evenodd" clip-rule="evenodd" d="M9.50004 3.45337C9.44218 3.31793 9.37688 3.19007 9.3116 3.05469C9.33336 3.09982 9.55097 3.52857 9.30469 3.83694C9.30469 3.83694 9.49312 3.68654 9.50004 3.45337Z" fill="#595961"/>
<path opacity="0.62" fill-rule="evenodd" clip-rule="evenodd" d="M9.10208 2.77663C8.98586 2.67885 8.87012 2.58859 8.75391 2.50586C8.79743 2.54346 9.18167 2.82176 9.15991 3.24303C9.1525 3.24303 9.2178 2.9948 9.10208 2.77663Z" fill="#595961"/>
<path opacity="0.62" fill-rule="evenodd" clip-rule="evenodd" d="M7.32754 3.52969C7.41458 3.43943 7.48677 3.34165 7.56639 3.23633C7.5377 3.2664 7.29837 3.57482 6.87109 3.46197C6.87109 3.46197 7.11736 3.59741 7.32754 3.52969Z" fill="#595961"/>
<path opacity="0.62" fill-rule="evenodd" clip-rule="evenodd" d="M7.59316 3.18337C7.69454 3.10817 7.78851 3.03292 7.88296 2.9502C7.84686 2.97278 7.54966 3.22097 7.13672 3.04045C7.13672 3.04045 7.37557 3.21344 7.59316 3.18337Z" fill="#595961"/>
<path opacity="0.62" fill-rule="evenodd" clip-rule="evenodd" d="M7.98678 2.93517C8.10992 2.89757 8.22615 2.85244 8.34187 2.80731C8.29835 2.82232 7.9289 2.95771 7.56641 2.67188C7.57382 2.67188 7.76226 2.89757 7.98678 2.93517Z" fill="#595961"/>
<path opacity="0.62" fill-rule="evenodd" clip-rule="evenodd" d="M8.33939 2.79894C8.44077 2.814 8.54214 2.82153 8.64352 2.82906C8.60742 2.82153 8.28842 2.79894 8.10742 2.49805C8.10742 2.49805 8.18015 2.70115 8.33939 2.79894Z" fill="#595961"/>
<path opacity="0.62" fill-rule="evenodd" clip-rule="evenodd" d="M8.76186 2.96511C8.83406 3.04789 8.91416 3.13062 9.00071 3.20582C8.97202 3.17575 8.72576 2.92751 8.78362 2.61914C8.7762 2.61914 8.69658 2.79213 8.76186 2.96511Z" fill="#595961"/>
<path opacity="0.74" fill-rule="evenodd" clip-rule="evenodd" d="M9.63677 5.1836C9.63677 5.10083 9.55715 3.19778 8.76738 2.61863C8.61506 2.50578 8.4484 2.45312 8.27432 2.45312C8.14376 2.45312 8.00627 2.48319 7.86137 2.54338C7.23083 2.79162 6.78873 3.46107 6.57163 4.48403C6.40497 5.25128 6.42671 5.93579 6.42671 5.96586C6.42671 5.98845 6.44848 6.01099 6.47024 6.01099H6.47715C6.49891 6.01099 6.51376 5.99598 6.51376 5.97339C6.51376 5.94332 6.44105 3.19778 7.89747 2.6111C8.21645 2.48319 8.49191 2.50578 8.72385 2.67877C9.47703 3.2279 9.55715 5.14601 9.55715 5.16855C9.55715 5.19114 9.57891 5.21367 9.60067 5.21367C9.60067 5.21367 9.60066 5.21367 9.60758 5.21367C9.62242 5.2212 9.63677 5.20615 9.63677 5.1836Z" fill="url(#paint0_linear_1090_371844)"/>
<path fill-rule="evenodd" clip-rule="evenodd" d="M9.76125 4.24307C9.59459 3.4307 9.31914 2.88157 8.93538 2.59574C8.7252 2.44534 8.50019 2.37762 8.25391 2.39268C8.44974 2.40769 8.63074 2.47541 8.7974 2.59574C9.18166 2.87409 9.45713 3.4307 9.62379 4.24307C9.73951 4.81474 9.76125 5.31116 9.76125 5.33375C9.76125 5.42401 9.71773 5.49172 9.64504 5.51426C9.65987 5.52179 9.67423 5.52179 9.68165 5.52179C9.80479 5.53685 9.89875 5.45407 9.89182 5.33375C9.89875 5.31116 9.87697 4.82227 9.76125 4.24307Z" fill="url(#paint1_linear_1090_371844)"/>
<path fill-rule="evenodd" clip-rule="evenodd" d="M7.93489 2.91251C6.57244 3.46159 6.63769 6.10181 6.63769 6.13188C6.63769 6.22214 6.59418 6.28986 6.52148 6.3124C6.53632 6.31993 6.54326 6.31993 6.5581 6.31993C6.56502 6.31993 6.57985 6.31993 6.58677 6.31993C6.69557 6.31993 6.76776 6.2372 6.76776 6.13188C6.76776 6.10181 6.703 3.46912 8.06495 2.92004C8.15941 2.88244 8.24643 2.85985 8.32605 2.85232C8.20983 2.82978 8.07979 2.85232 7.93489 2.91251Z" fill="url(#paint2_linear_1090_371844)"/>
<path fill-rule="evenodd" clip-rule="evenodd" d="M9.99969 3.56671L3.85506 5.53743C3.85506 5.53743 3.59444 5.61267 3.52916 5.6954C3.46388 5.77813 3.44953 6.01131 3.44953 6.01131L2.5 13.6085L9.63026 14.9925L10.1812 3.55918C10.1016 3.54412 10.0214 3.55918 9.99969 3.56671Z" fill="url(#paint3_linear_1090_371844)"/>
<path fill-rule="evenodd" clip-rule="evenodd" d="M12.1229 4.54493C12.1229 4.54493 12.1155 4.48474 12.0794 4.4622C12.0502 4.43961 12.0141 4.43961 12.0141 4.43961L11.0068 4.36441L10.2679 3.6047C10.2387 3.58211 10.2096 3.5671 10.1735 3.55957L9.62305 14.9929L13.4849 14.1279L12.1229 4.54493Z" fill="url(#paint4_linear_1090_371844)"/>
<path fill-rule="evenodd" clip-rule="evenodd" d="M7.4648 9.91605C7.356 9.7656 7.22594 9.63022 7.09538 9.50984C6.96482 9.38951 6.82735 9.29172 6.68937 9.20147C6.59541 9.14128 6.50837 9.08109 6.43567 9.0209C6.36347 8.96076 6.3056 8.90057 6.26208 8.84791C6.21856 8.78773 6.18245 8.73507 6.16069 8.67493C6.13893 8.61474 6.13151 8.55455 6.13151 8.49436C6.13151 8.41163 6.15328 8.32891 6.18246 8.26119C6.21114 8.19352 6.26208 8.13333 6.31252 8.08067C6.37088 8.02801 6.43566 7.99041 6.51578 7.96034C6.5954 7.93022 6.68935 7.91521 6.79073 7.90768C6.89953 7.90015 7.00833 7.90768 7.10971 7.91521C7.2111 7.92269 7.30555 7.94528 7.39951 7.96782C7.48655 7.99041 7.57358 8.02048 7.64579 8.0506C7.71848 8.08067 7.79068 8.11074 7.84162 8.14086L8.31986 6.66656C8.24766 6.62896 8.16062 6.59131 8.06616 6.56877C7.96478 6.53865 7.85598 6.51611 7.73284 6.50106C7.6097 6.48604 7.47913 6.47852 7.34165 6.47852C7.20417 6.47852 7.05929 6.48605 6.90697 6.50859C6.58107 6.55371 6.29077 6.64397 6.03015 6.77936C5.78387 6.90727 5.56626 7.07272 5.38526 7.27583C5.21118 7.4714 5.07369 7.69705 4.97231 7.95281C4.87785 8.20105 4.82001 8.47935 4.80566 8.7802C4.79825 8.96076 4.81258 9.12622 4.8561 9.27666C4.8922 9.42711 4.95055 9.57003 5.03017 9.70542C5.10238 9.8408 5.19683 9.96118 5.29821 10.074C5.39959 10.1868 5.52273 10.2921 5.64587 10.3899C5.74725 10.4651 5.8343 10.5403 5.90699 10.608C5.9792 10.6758 6.03756 10.7434 6.08058 10.8187C6.1241 10.8864 6.15327 10.9541 6.17503 11.0293C6.19679 11.097 6.20421 11.1722 6.19679 11.2474C6.19679 11.3226 6.17505 11.3978 6.14587 11.458C6.11719 11.5182 6.08058 11.5784 6.02272 11.6235C5.97228 11.6687 5.90701 11.6987 5.83431 11.7138C5.76211 11.7288 5.67507 11.7363 5.58061 11.7213C5.47231 11.7063 5.36349 11.6762 5.26211 11.631C5.16073 11.5934 5.05888 11.5407 4.96492 11.4881C4.87095 11.4355 4.78391 11.3753 4.71122 11.3226C4.6316 11.27 4.56631 11.2098 4.51587 11.1647L4.18945 12.2855C4.24039 12.3606 4.31261 12.4284 4.39223 12.496C4.47235 12.5638 4.56632 12.6314 4.67512 12.6991C4.78392 12.7593 4.89964 12.8195 5.02278 12.8721C5.14592 12.9248 5.28388 12.9699 5.42136 13.0076H5.42879H5.4357H5.44312H5.45055C5.74727 13.0752 6.03014 13.0903 6.29818 13.0527C6.57364 13.015 6.82732 12.9173 7.04443 12.7669C7.26895 12.6089 7.45044 12.3982 7.58792 12.1199C7.7259 11.8416 7.80552 11.5031 7.81986 11.1195C7.82728 10.8788 7.79812 10.6682 7.73284 10.4727C7.66756 10.247 7.5736 10.074 7.4648 9.91605Z" fill="url(#paint5_linear_1090_371844)"/>
<path opacity="0.226763" fill-rule="evenodd" clip-rule="evenodd" d="M4.23443 12.3467C4.21762 12.3268 4.20178 12.3064 4.18743 12.2855L4.51385 11.1647C4.5183 11.1689 4.52324 11.1732 4.52818 11.1776C4.57665 11.221 4.637 11.2749 4.7092 11.3227C4.7819 11.3753 4.86894 11.4355 4.9629 11.4882C5.05686 11.5408 5.15871 11.5935 5.26009 11.6311C5.36147 11.6762 5.47029 11.7063 5.57859 11.7214C5.67305 11.7364 5.76009 11.7289 5.83229 11.7138C5.90499 11.6988 5.97026 11.6687 6.0207 11.6236C6.07856 11.5784 6.11517 11.5183 6.14385 11.4581C6.17303 11.3979 6.19478 11.3227 6.19478 11.2475C6.20219 11.1722 6.19477 11.097 6.17301 11.0293C6.15125 10.9541 6.12209 10.8864 6.07857 10.8187C6.03752 10.7472 5.98311 10.6826 5.91536 10.6182C5.95097 10.6584 5.98114 10.6997 6.00637 10.7435C6.04988 10.8112 6.07857 10.8789 6.10033 10.9541C6.12209 11.0218 6.12951 11.097 6.12209 11.1722C6.12209 11.2475 6.10034 11.3227 6.07165 11.3829C6.04248 11.4431 6.00636 11.5032 5.9485 11.5483C5.89756 11.5935 5.8323 11.6236 5.76009 11.6386C5.6874 11.6536 5.60036 11.6612 5.50639 11.6461C5.3976 11.6311 5.28879 11.601 5.18741 11.5559C5.08603 11.5183 4.98464 11.4656 4.89018 11.4129C4.79622 11.3603 4.7092 11.3001 4.637 11.2475C4.5643 11.1997 4.50397 11.1458 4.4555 11.1025C4.45056 11.098 4.44608 11.0937 4.44113 11.0895L4.11523 12.2103C4.14738 12.2581 4.18844 12.303 4.23443 12.3467ZM5.30214 10.0809C5.27494 10.054 5.24873 10.0266 5.22351 9.99883C5.12213 9.88599 5.02817 9.76566 4.95547 9.63027C4.87585 9.49483 4.81798 9.35192 4.78188 9.20152C4.73836 9.05107 4.72351 8.88557 4.73093 8.70505C4.74527 8.40416 4.80365 8.12585 4.89761 7.87762C4.99899 7.6219 5.13698 7.39626 5.31056 7.20068C5.49205 6.99758 5.70913 6.83207 5.95541 6.70421C6.21653 6.56883 6.50634 6.47857 6.83224 6.43344C6.98455 6.41085 7.12947 6.40332 7.26695 6.40332C7.40492 6.40332 7.53548 6.41085 7.65862 6.42591C7.78176 6.44097 7.89056 6.46351 7.99194 6.49363C8.08591 6.51617 8.17294 6.55377 8.24564 6.59137L8.23426 6.62655C8.18184 6.60377 8.12448 6.58325 8.06414 6.56883C7.96276 6.53876 7.85396 6.51617 7.73082 6.50111C7.60768 6.4861 7.47711 6.47857 7.33963 6.47857C7.20215 6.47857 7.05727 6.4861 6.90495 6.50864C6.57905 6.55377 6.28875 6.64403 6.02813 6.77946C5.78185 6.90732 5.56424 7.07278 5.38324 7.27588C5.20917 7.47146 5.07167 7.6971 4.97029 7.95287C4.87584 8.2011 4.81799 8.4794 4.80365 8.78025C4.79623 8.96081 4.81056 9.12627 4.85408 9.27672C4.89018 9.42716 4.94854 9.57008 5.02816 9.70547C5.10036 9.84086 5.19481 9.96123 5.29619 10.074C5.29817 10.0763 5.30016 10.0786 5.30214 10.0809ZM6.28626 8.87877C6.32583 8.92351 6.3753 8.97223 6.43365 9.02095C6.50635 9.08114 6.59339 9.14133 6.68735 9.20152C6.82533 9.29178 6.9628 9.38957 7.09336 9.50989C7.13144 9.54493 7.16903 9.5812 7.20661 9.6188C7.14628 9.55394 7.08345 9.49257 7.02065 9.43469C6.89058 9.31432 6.75263 9.21653 6.61515 9.12627C6.52069 9.06608 6.43366 9.00594 6.36145 8.94575C6.33425 8.92331 6.30951 8.90087 6.28626 8.87877Z" fill="black"/>
<path opacity="0.41" fill-rule="evenodd" clip-rule="evenodd" d="M11.252 12.8645L11.0057 4.36469L10.9622 4.31957L11.0784 12.7441C11.0784 12.7441 10.0567 14.3538 9.90437 14.3087C9.67985 14.241 10.3465 3.68771 10.3465 3.68771L10.2738 3.61251C10.2451 3.58992 10.2085 3.57491 10.1798 3.56738L9.63633 14.8428L9.62891 15.0007L9.81732 14.7525L11.252 12.8645Z" fill="url(#paint6_linear_1090_371844)"/>
<path fill-rule="evenodd" clip-rule="evenodd" d="M8.47725 4.05474C8.3907 4.40825 8.28192 4.73921 8.2023 4.94231C8.15136 5.06269 8.20923 5.17549 8.31803 5.19055C8.43424 5.20561 8.56431 5.12283 8.60783 5.0025C8.61524 4.97991 8.81057 4.49102 8.93421 3.91183V3.9043L8.47725 4.05474Z" fill="url(#paint7_linear_1090_371844)"/>
<path fill-rule="evenodd" clip-rule="evenodd" d="M5.21001 5.10858C5.10863 5.33423 5.00725 5.5298 4.93455 5.66519C4.86976 5.77804 4.90586 5.89837 5.01466 5.92843C5.12296 5.96608 5.26785 5.89837 5.33313 5.78552C5.34055 5.77051 5.55075 5.40195 5.73917 4.93555L5.21001 5.10858Z" fill="url(#paint8_linear_1090_371844)"/>
<path opacity="0.32" fill-rule="evenodd" clip-rule="evenodd" d="M9.62891 14.993L11.252 12.8643L13.4987 14.128L9.62891 14.993Z" fill="url(#paint9_linear_1090_371844)"/>
<path opacity="0.19" fill-rule="evenodd" clip-rule="evenodd" d="M9.62891 14.993L11.2376 12.8643L13.4987 14.128L9.62891 14.993Z" fill="url(#paint10_linear_1090_371844)"/>
<path opacity="0.19" fill-rule="evenodd" clip-rule="evenodd" d="M9.62891 14.993L11.2376 12.8643L13.4987 14.128L9.62891 14.993Z" fill="url(#paint11_linear_1090_371844)"/>
<path opacity="0.6" fill-rule="evenodd" clip-rule="evenodd" d="M8.05085 9.03484C8.89157 10.2158 9.45679 11.4945 9.73918 12.7356L10.1813 3.55134C10.1017 3.53633 10.0216 3.55134 9.99982 3.55887L3.85519 5.53717C3.85519 5.53717 3.79731 5.55218 3.72461 5.5823C5.2829 6.13891 6.84072 7.3349 8.05085 9.03484Z" fill="url(#paint12_linear_1090_371844)"/>
<path fill-rule="evenodd" clip-rule="evenodd" d="M12.0854 4.46924C12.122 4.49936 12.122 4.54449 12.122 4.54449L13.4696 14.1199L11.2521 12.8562L11.0059 4.35645L11.9989 4.43164C12.0058 4.43917 12.0493 4.43917 12.0854 4.46924Z" fill="url(#paint13_linear_1090_371844)"/>
<path fill-rule="evenodd" clip-rule="evenodd" d="M11.9266 4.4924C11.9266 4.4924 11.9701 4.4924 12.0062 4.53C12.0423 4.56012 12.0497 4.60525 12.0497 4.60525L13.3761 14.0754L13.4775 14.1356L12.1293 4.55259C12.1293 4.55259 12.1224 4.50746 12.0932 4.47739C12.0571 4.44727 12.0062 4.44727 12.0062 4.44727L11.0137 4.37207L11.9266 4.4924Z" fill="url(#paint14_linear_1090_371844)"/>
<path fill-rule="evenodd" clip-rule="evenodd" d="M2.5 13.6081L9.63026 14.9922L9.97841 7.1543L3.38669 7.34167L2.5 13.6081Z" fill="url(#paint15_linear_1090_371844)"/>
<path opacity="0.3" fill-rule="evenodd" clip-rule="evenodd" d="M4.84172 5.64752C4.77693 5.83035 4.84072 6.02243 4.98512 6.07667C5.12903 6.13085 5.29817 6.02662 5.36345 5.84384C5.42823 5.66106 5.36396 5.46892 5.22004 5.41474C5.07613 5.36051 4.9065 5.46474 4.84172 5.64752Z" fill="white"/>
<path opacity="0.89" fill-rule="evenodd" clip-rule="evenodd" d="M4.83383 5.55968C4.76904 5.74246 4.83332 5.93459 4.97723 5.98878C5.12114 6.04301 5.29078 5.93877 5.35556 5.75599C5.42035 5.57317 5.35656 5.38103 5.21216 5.32685C5.06825 5.27262 4.89911 5.37685 4.83383 5.55968Z" fill="black"/>
<path fill-rule="evenodd" clip-rule="evenodd" d="M11.0131 4.36441L10.2738 3.6047C10.2451 3.58211 10.2085 3.5671 10.1798 3.55957L9.62891 14.9929L11.2594 12.8567L11.0131 4.36441Z" fill="url(#paint16_linear_1090_371844)"/>
<path fill-rule="evenodd" clip-rule="evenodd" d="M9.99857 3.56662L3.85394 5.53734C3.85394 5.53734 3.59332 5.61258 3.52804 5.69531C3.52062 5.70284 3.5206 5.71037 3.51367 5.7179L9.70877 3.94271C9.75971 3.92765 9.88284 3.88252 9.8685 4.25108L9.49165 14.9774L9.62223 15L10.1726 3.56662C10.1004 3.54403 10.0203 3.55909 9.99857 3.56662Z" fill="url(#paint17_linear_1090_371844)"/>
<path fill-rule="evenodd" clip-rule="evenodd" d="M9.99857 3.56662L3.85394 5.53734C3.85394 5.53734 3.59332 5.61258 3.52804 5.69531C3.52062 5.70284 3.5206 5.71037 3.51367 5.7179L4.94833 5.30416L9.88284 3.71706C9.9046 3.70953 9.98423 3.69448 10.0639 3.70954L9.52036 14.9774L9.62223 15L10.1726 3.56662C10.1004 3.54403 10.0203 3.55909 9.99857 3.56662Z" fill="url(#paint18_linear_1090_371844)"/>
<path opacity="0.32" fill-rule="evenodd" clip-rule="evenodd" d="M11.5794 13.0445L11.253 12.8564L9.62305 14.9927L9.70959 14.9701C9.70959 14.9701 11.1447 13.052 11.2748 12.9918C11.3692 12.9542 11.5794 13.0445 11.5794 13.0445Z" fill="url(#paint19_linear_1090_371844)"/>
<path opacity="0.57" fill-rule="evenodd" clip-rule="evenodd" d="M9.62891 14.9927L11.2594 12.8564C11.252 12.864 10.2233 14.0299 9.62891 14.9927Z" fill="url(#paint20_linear_1090_371844)"/>
<path opacity="0.46" fill-rule="evenodd" clip-rule="evenodd" d="M13.5011 14.128L11.2619 12.8643C11.2545 12.8643 11.5156 12.9094 13.5011 14.128Z" fill="url(#paint21_linear_1090_371844)"/>
<path opacity="0.3" fill-rule="evenodd" clip-rule="evenodd" d="M8.15444 4.8975C8.08916 5.08033 8.15345 5.27246 8.29736 5.3267C8.44176 5.38093 8.6109 5.2767 8.67569 5.09392C8.74097 4.91109 8.67668 4.71896 8.53276 4.66472C8.38885 4.61054 8.21922 4.71472 8.15444 4.8975Z" fill="white"/>
<path opacity="0.89" fill-rule="evenodd" clip-rule="evenodd" d="M8.14632 4.81158C8.08154 4.99441 8.14585 5.18654 8.28976 5.24078C8.43367 5.29496 8.60327 5.19078 8.66806 5.00795C8.73284 4.82517 8.66904 4.63304 8.52513 4.5788C8.38073 4.52457 8.2116 4.6288 8.14632 4.81158Z" fill="black"/>
<path fill-rule="evenodd" clip-rule="evenodd" d="M5.09465 5.92903C5.08724 5.92903 5.07288 5.92903 5.06547 5.92903C4.94974 5.91402 4.87014 5.80118 4.88448 5.67332C4.89882 5.55294 5.31175 2.73973 7.00752 2.1004C7.4348 1.94242 7.79729 1.97249 8.07275 2.20571C8.40607 2.48402 8.58707 3.04063 8.61625 3.853C8.638 4.42467 8.57275 4.92109 8.57275 4.94368C8.55841 5.064 8.44961 5.15431 8.33339 5.13172C8.21767 5.11666 8.13061 5.00387 8.15237 4.88349C8.21765 4.37201 8.28985 2.96543 7.80471 2.55922C7.65239 2.43136 7.44224 2.4163 7.15986 2.52162C5.70344 3.0707 5.31916 5.71092 5.31916 5.73346C5.28999 5.84631 5.20345 5.92903 5.09465 5.92903Z" fill="#595961"/>
<path opacity="0.46" fill-rule="evenodd" clip-rule="evenodd" d="M7.98616 2.21995C7.73246 2.00936 7.39915 1.97929 7.00055 2.12221C6.31216 2.38546 5.73253 3.07745 5.33393 4.123C5.03721 4.89777 4.93535 5.5973 4.93535 5.62742C4.92843 5.66502 4.94278 5.70262 4.96454 5.73274C4.9863 5.7628 5.01546 5.78539 5.05156 5.78539C5.05848 5.78539 5.0659 5.78539 5.07332 5.78539C5.1386 5.78539 5.19645 5.73274 5.20387 5.66502C5.21079 5.63495 5.59506 2.94959 7.095 2.38546C7.39914 2.27261 7.6454 2.28767 7.81948 2.43812C8.3338 2.86687 8.26161 4.31858 8.19633 4.83758C8.18891 4.91283 8.23985 4.98803 8.31206 4.99556C8.38475 5.00309 8.45695 4.95043 8.46437 4.87523C8.47178 4.79246 8.72549 2.8368 7.98616 2.21995Z" fill="#B2B2C2"/>
<path opacity="0.81" fill-rule="evenodd" clip-rule="evenodd" d="M5.06515 5.70362C5.05773 5.70362 5.05774 5.70362 5.05082 5.70362C5.0073 5.69609 4.97811 5.65097 4.98553 5.60584C4.99294 5.57572 5.08692 4.89125 5.38414 4.11648C5.78274 3.08599 6.34798 2.40148 7.02154 2.14571C7.4058 2.0028 7.71736 2.03291 7.95623 2.22849C8.66638 2.8227 8.4201 4.74834 8.40576 4.83106C8.39834 4.87619 8.36225 4.90626 8.31131 4.89878C8.26829 4.89125 8.23911 4.85365 8.23911 4.80099C8.23911 4.77841 8.48538 2.89042 7.84792 2.34882C7.65951 2.2059 7.3984 2.19089 7.07992 2.31122C5.55081 2.89042 5.1522 5.60584 5.1522 5.63591C5.14479 5.67351 5.10867 5.70362 5.06515 5.70362Z" fill="#B2B2C2"/>
<path opacity="0.42" fill-rule="evenodd" clip-rule="evenodd" d="M6.02147 3.55203C6.1011 3.43923 6.17378 3.32638 6.24599 3.20605C6.2173 3.24365 6.00712 3.63481 5.57242 3.57462C5.56501 3.57462 5.81871 3.65735 6.02147 3.55203Z" fill="#595961"/>
<path opacity="0.42" fill-rule="evenodd" clip-rule="evenodd" d="M5.77417 4.03263C5.83945 3.91225 5.90471 3.78439 5.95515 3.66406C5.93339 3.70919 5.78849 4.11535 5.33203 4.11535C5.33203 4.11535 5.58575 4.16801 5.77417 4.03263Z" fill="#595961"/>
<path opacity="0.42" fill-rule="evenodd" clip-rule="evenodd" d="M5.58703 4.52913C5.64489 4.40122 5.68842 4.27337 5.73194 4.14551C5.71018 4.19064 5.63056 4.60433 5.15234 4.65699C5.15234 4.64946 5.41295 4.67958 5.58703 4.52913Z" fill="#595961"/>
<path opacity="0.62" fill-rule="evenodd" clip-rule="evenodd" d="M8.48522 3.06274C8.44912 2.92731 8.41301 2.79945 8.36207 2.66406C8.37641 2.70919 8.52133 3.13794 8.22461 3.44632C8.22461 3.44632 8.4417 3.29592 8.48522 3.06274Z" fill="#595961"/>
<path opacity="0.62" fill-rule="evenodd" clip-rule="evenodd" d="M8.20309 2.38601C8.10171 2.28822 7.99982 2.19796 7.89844 2.11523C7.93503 2.15283 8.27529 2.43114 8.18132 2.85236C8.17391 2.85236 8.28271 2.60412 8.20309 2.38601Z" fill="#595961"/>
<path opacity="0.62" fill-rule="evenodd" clip-rule="evenodd" d="M8.55685 3.75456C8.54943 3.61917 8.52769 3.47626 8.50593 3.34082C8.50593 3.39348 8.57862 3.83729 8.23047 4.07799C8.23047 4.07799 8.46981 3.97268 8.55685 3.75456Z" fill="#595961"/>
<path opacity="0.62" fill-rule="evenodd" clip-rule="evenodd" d="M8.59298 4.46252C8.6004 4.32713 8.6004 4.18422 8.59298 4.04883C8.59298 4.10149 8.60038 4.5453 8.23047 4.74835C8.23047 4.74087 8.48418 4.66562 8.59298 4.46252Z" fill="#595961"/>
<path opacity="0.42" fill-rule="evenodd" clip-rule="evenodd" d="M5.42035 5.07837C5.46386 4.94298 5.49305 4.80759 5.52173 4.67969C5.50739 4.72482 5.44212 5.15357 5 5.25888C5.00742 5.25888 5.26803 5.25136 5.42035 5.07837Z" fill="#595961"/>
<path opacity="0.42" fill-rule="evenodd" clip-rule="evenodd" d="M6.29671 3.13711C6.39809 3.04686 6.49252 2.94907 6.57956 2.84375C6.54297 2.87382 6.25318 3.18224 5.84766 3.0694C5.85458 3.0694 6.07911 3.20483 6.29671 3.13711Z" fill="#595961"/>
<path opacity="0.42" fill-rule="evenodd" clip-rule="evenodd" d="M6.6226 2.79275C6.73882 2.71755 6.84762 2.6423 6.95592 2.55957C6.9129 2.58216 6.57957 2.83034 6.19531 2.64983C6.19531 2.64983 6.39808 2.82282 6.6226 2.79275Z" fill="#595961"/>
<path opacity="0.62" fill-rule="evenodd" clip-rule="evenodd" d="M7.06432 2.54259C7.19488 2.50494 7.31803 2.45981 7.44117 2.41468C7.39765 2.42974 7.00648 2.56513 6.6875 2.2793C6.6875 2.2793 6.8398 2.50494 7.06432 2.54259Z" fill="#595961"/>
<path opacity="0.62" fill-rule="evenodd" clip-rule="evenodd" d="M7.43492 2.40831C7.5368 2.42337 7.63819 2.4309 7.73957 2.43843C7.70347 2.4309 7.39188 2.40832 7.25391 2.10742C7.26132 2.10742 7.29744 2.31053 7.43492 2.40831Z" fill="#595961"/>
<path opacity="0.62" fill-rule="evenodd" clip-rule="evenodd" d="M7.82725 2.57454C7.89253 2.65727 7.95732 2.73999 8.0226 2.81524C8.00084 2.78512 7.79807 2.53694 7.89945 2.22852C7.90687 2.22852 7.79807 2.40155 7.82725 2.57454Z" fill="#595961"/>
<path fill-rule="evenodd" clip-rule="evenodd" d="M8.32693 4.79293C8.33386 4.7102 8.58065 2.80715 7.89225 2.22796C7.76169 2.11516 7.60246 2.0625 7.42838 2.0625C7.29782 2.0625 7.15293 2.09257 7.00061 2.15276C6.33397 2.40099 5.77612 3.07045 5.38494 4.09341C5.08772 4.86065 4.99375 5.54516 4.98633 5.57523C4.98633 5.59777 5.0007 5.62036 5.02246 5.62036H5.02985C5.05161 5.62036 5.06595 5.6053 5.06595 5.58276C5.07337 5.55264 5.46455 2.80715 7.02234 2.22043C7.35566 2.09257 7.63854 2.11516 7.8413 2.28815C8.50052 2.83722 8.25426 4.75533 8.24734 4.77792C8.24734 4.80046 8.26168 4.82305 8.28344 4.82305C8.28344 4.82305 8.28343 4.82305 8.29035 4.82305C8.31211 4.83058 8.32693 4.81552 8.32693 4.79293Z" fill="url(#paint22_linear_1090_371844)"/>
<path fill-rule="evenodd" clip-rule="evenodd" d="M8.61609 3.85244C8.58691 3.04007 8.40591 2.49095 8.07259 2.20511C7.89159 2.05471 7.67401 1.987 7.42773 2.00205C7.61615 2.01707 7.78974 2.08478 7.93513 2.20511C8.26845 2.48347 8.44943 3.04007 8.47811 3.85244C8.49987 4.42411 8.4351 4.92053 8.4351 4.94312C8.42027 5.03338 8.3624 5.1011 8.2897 5.12364C8.30454 5.13117 8.31145 5.13117 8.32629 5.13117C8.44201 5.14623 8.55082 5.06345 8.56517 4.94312C8.57258 4.92053 8.63785 4.43164 8.61609 3.85244Z" fill="url(#paint23_linear_1090_371844)"/>
<path fill-rule="evenodd" clip-rule="evenodd" d="M7.01487 2.52082C5.55846 3.0699 5.17421 5.71012 5.17421 5.74019C5.15987 5.83045 5.1015 5.89817 5.0293 5.92071C5.04364 5.92824 5.05106 5.92824 5.0654 5.92824C5.07282 5.92824 5.08717 5.92824 5.09459 5.92824C5.20338 5.92824 5.28992 5.84551 5.30476 5.74019C5.31168 5.71012 5.68852 3.07743 7.14494 2.5283C7.24681 2.49071 7.33337 2.46816 7.41349 2.46064C7.30469 2.44558 7.1667 2.46816 7.01487 2.52082Z" fill="url(#paint24_linear_1090_371844)"/>
<defs>
<linearGradient id="paint0_linear_1090_371844" x1="6.80454" y1="2.4701" x2="6.57729" y2="5.56419" gradientUnits="userSpaceOnUse">
<stop stop-color="white" stop-opacity="0.65"/>
<stop offset="1" stop-color="white" stop-opacity="0.01"/>
</linearGradient>
<linearGradient id="paint1_linear_1090_371844" x1="8.46656" y1="4.24081" x2="10.0666" y2="5.64221" gradientUnits="userSpaceOnUse">
<stop stop-opacity="0.01"/>
<stop offset="1" stop-opacity="0.4"/>
</linearGradient>
<linearGradient id="paint2_linear_1090_371844" x1="7.82459" y1="5.86283" x2="9.51815" y2="4.28539" gradientUnits="userSpaceOnUse">
<stop stop-opacity="0.01"/>
<stop offset="1" stop-opacity="0.4"/>
</linearGradient>
<linearGradient id="paint3_linear_1090_371844" x1="5.66901" y1="1.25932" x2="-0.908909" y2="8.83852" gradientUnits="userSpaceOnUse">
<stop stop-color="#B8D26E"/>
<stop offset="1" stop-color="#7FB525"/>
</linearGradient>
<linearGradient id="paint4_linear_1090_371844" x1="14.6668" y1="3.1572" x2="11.0567" y2="3.22424" gradientUnits="userSpaceOnUse">
<stop stop-color="#B4E034"/>
<stop offset="1" stop-color="#60A927"/>
</linearGradient>
<linearGradient id="paint5_linear_1090_371844" x1="3.93031" y1="8.21148" x2="0.970517" y2="15.4192" gradientUnits="userSpaceOnUse">
<stop stop-color="white"/>
<stop offset="1" stop-color="#CECEEB"/>
</linearGradient>
<linearGradient id="paint6_linear_1090_371844" x1="8.17151" y1="25.9616" x2="12.8592" y2="25.9521" gradientUnits="userSpaceOnUse">
<stop stop-color="#1D1D1B" stop-opacity="0.5"/>
<stop offset="0.038033" stop-color="#1D1D1B" stop-opacity="0.4837"/>
<stop offset="0.4243" stop-color="#1D1D1B" stop-opacity="0.3185"/>
<stop offset="1" stop-color="#1D1D1B" stop-opacity="0.01"/>
</linearGradient>
<linearGradient id="paint7_linear_1090_371844" x1="8.71661" y1="3.39946" x2="7.93892" y2="3.81802" gradientUnits="userSpaceOnUse">
<stop stop-opacity="0.01"/>
<stop offset="1" stop-opacity="0.4"/>
</linearGradient>
<linearGradient id="paint8_linear_1090_371844" x1="5.45679" y1="4.64169" x2="4.91011" y2="5.11151" gradientUnits="userSpaceOnUse">
<stop stop-opacity="0.01"/>
<stop offset="1" stop-opacity="0.4"/>
</linearGradient>
<linearGradient id="paint9_linear_1090_371844" x1="10.7881" y1="14.1336" x2="10.8434" y2="14.8632" gradientUnits="userSpaceOnUse">
<stop stop-opacity="0.01"/>
<stop offset="1" stop-opacity="0.4"/>
</linearGradient>
<linearGradient id="paint10_linear_1090_371844" x1="9.49588" y1="13.0655" x2="9.6242" y2="14.9624" gradientUnits="userSpaceOnUse">
<stop stop-color="white" stop-opacity="0.5"/>
<stop offset="0.0896271" stop-color="white" stop-opacity="0.4552"/>
<stop offset="1" stop-color="white" stop-opacity="0.01"/>
</linearGradient>
<linearGradient id="paint11_linear_1090_371844" x1="9.2491" y1="13.3605" x2="9.47735" y2="15.3868" gradientUnits="userSpaceOnUse">
<stop stop-opacity="0.01"/>
<stop offset="1" stop-opacity="0.4"/>
</linearGradient>
<linearGradient id="paint12_linear_1090_371844" x1="8.35498" y1="1.70169" x2="2.50103" y2="5.08738" gradientUnits="userSpaceOnUse">
<stop stop-color="white" stop-opacity="0.5"/>
<stop offset="1" stop-color="white" stop-opacity="0.01"/>
</linearGradient>
<linearGradient id="paint13_linear_1090_371844" x1="9.48318" y1="19.3967" x2="14.6501" y2="19.4072" gradientUnits="userSpaceOnUse">
<stop stop-color="#1D1D1B" stop-opacity="0.5"/>
<stop offset="0.0896271" stop-color="#1D1D1B" stop-opacity="0.4552"/>
<stop offset="1" stop-color="#1D1D1B" stop-opacity="0.01"/>
</linearGradient>
<linearGradient id="paint14_linear_1090_371844" x1="13.1837" y1="4.08702" x2="12.4497" y2="4.26687" gradientUnits="userSpaceOnUse">
<stop stop-color="white" stop-opacity="0.4"/>
<stop offset="1" stop-color="white" stop-opacity="0.01"/>
</linearGradient>
<linearGradient id="paint15_linear_1090_371844" x1="6.59923" y1="15.0759" x2="6.9809" y2="13.2358" gradientUnits="userSpaceOnUse">
<stop stop-color="#1D1D1B" stop-opacity="0.5"/>
<stop offset="0.0896271" stop-color="#1D1D1B" stop-opacity="0.4552"/>
<stop offset="1" stop-color="#1D1D1B" stop-opacity="0.01"/>
</linearGradient>
<linearGradient id="paint16_linear_1090_371844" x1="8.80451" y1="25.7271" x2="13.509" y2="25.7312" gradientUnits="userSpaceOnUse">
<stop stop-color="#1D1D1B" stop-opacity="0.5"/>
<stop offset="1" stop-color="#1D1D1B" stop-opacity="0.01"/>
</linearGradient>
<linearGradient id="paint17_linear_1090_371844" x1="4.50572" y1="2.90376" x2="2.22403" y2="11.6699" gradientUnits="userSpaceOnUse">
<stop stop-color="white" stop-opacity="0.5"/>
<stop offset="1" stop-color="white" stop-opacity="0.01"/>
</linearGradient>
<linearGradient id="paint18_linear_1090_371844" x1="4.50572" y1="2.90376" x2="2.22403" y2="11.6699" gradientUnits="userSpaceOnUse">
<stop stop-color="white" stop-opacity="0.5"/>
<stop offset="1" stop-color="white" stop-opacity="0.01"/>
</linearGradient>
<linearGradient id="paint19_linear_1090_371844" x1="10.0439" y1="12.0933" x2="8.24044" y2="14.5756" gradientUnits="userSpaceOnUse">
<stop stop-color="white" stop-opacity="0.5"/>
<stop offset="0.0896271" stop-color="white" stop-opacity="0.4552"/>
<stop offset="1" stop-color="white" stop-opacity="0.01"/>
</linearGradient>
<linearGradient id="paint20_linear_1090_371844" x1="10.5868" y1="12.664" x2="10.4083" y2="13.0643" gradientUnits="userSpaceOnUse">
<stop stop-opacity="0.01"/>
<stop offset="1" stop-opacity="0.4"/>
</linearGradient>
<linearGradient id="paint21_linear_1090_371844" x1="12.3602" y1="13.1936" x2="12.3514" y2="13.3012" gradientUnits="userSpaceOnUse">
<stop stop-opacity="0.01"/>
<stop offset="1" stop-opacity="0.4"/>
</linearGradient>
<linearGradient id="paint22_linear_1090_371844" x1="5.86562" y1="1.80929" x2="5.08597" y2="4.88928" gradientUnits="userSpaceOnUse">
<stop stop-color="white" stop-opacity="0.65"/>
<stop offset="1" stop-color="white" stop-opacity="0.01"/>
</linearGradient>
<linearGradient id="paint23_linear_1090_371844" x1="7.60972" y1="3.58576" x2="8.96596" y2="4.96461" gradientUnits="userSpaceOnUse">
<stop stop-opacity="0.01"/>
<stop offset="1" stop-opacity="0.4"/>
</linearGradient>
<linearGradient id="paint24_linear_1090_371844" x1="6.74289" y1="5.61603" x2="8.61673" y2="3.69159" gradientUnits="userSpaceOnUse">
<stop stop-opacity="0.01"/>
<stop offset="1" stop-opacity="0.4"/>
</linearGradient>
</defs>
</svg>
