<svg width="20" height="20" viewBox="0 0 20 20" fill="none" xmlns="http://www.w3.org/2000/svg">
<path d="M1.79497 3.98005C1.25 5.04961 1.25 6.44974 1.25 9.25V10.75C1.25 13.5503 1.25 14.9504 1.79497 16.02C2.27433 16.9608 3.03924 17.7257 3.98005 18.205C5.04961 18.75 6.44974 18.75 9.25 18.75H10.75C13.5503 18.75 14.9504 18.75 16.02 18.205C16.9608 17.7257 17.7257 16.9608 18.205 16.02C18.75 14.9504 18.75 13.5503 18.75 10.75V9.25C18.75 6.44974 18.75 5.04961 18.205 3.98005C17.7257 3.03924 16.9608 2.27433 16.02 1.79497C14.9504 1.25 13.5503 1.25 10.75 1.25H9.25C6.44974 1.25 5.04961 1.25 3.98005 1.79497C3.03924 2.27433 2.27433 3.03924 1.79497 3.98005Z" fill="url(#paint0_linear_1837_125722)"/>
<path d="M1.41576 5.1744C1.25 6.11645 1.25 7.36643 1.25 9.24967V10.7497C1.25 13.5499 1.25 14.9501 1.79497 16.0196C2.27433 16.9604 3.03924 17.7253 3.98005 18.2047C5.04961 18.7497 6.44974 18.7497 9.25 18.7497H10.75C13.5503 18.7497 14.9504 18.7497 16.02 18.2047C16.9608 17.7253 17.7257 16.9604 18.205 16.0196C18.75 14.9501 18.75 13.5499 18.75 10.7497V9.24967C18.75 6.4494 18.75 5.04927 18.205 3.97971C17.7423 3.07164 17.0136 2.32744 16.1175 1.8457L1.41576 5.1744Z" fill="url(#paint1_linear_1837_125722)"/>
<path d="M18.5694 14.9092C18.4891 15.3315 18.3731 15.6916 18.2055 16.0203C17.7262 16.9612 16.9613 17.7261 16.0205 18.2054C14.9829 18.7341 13.6343 18.7499 10.9982 18.7504H10.0371V16.7734L18.5694 14.9092Z" fill="url(#paint2_linear_1837_125722)"/>
<path d="M10.7508 1.25H9.25084C8.70605 1.25 8.21426 1.25 7.76758 1.25401V3.73157L16.1167 1.84516C16.085 1.8281 16.053 1.81136 16.0208 1.79497C15.427 1.49243 14.7314 1.35784 13.7508 1.29797C12.9651 1.25 11.9965 1.25 10.7508 1.25Z" fill="url(#paint3_linear_1837_125722)"/>
<path d="M18.7501 10.858C18.75 12.7365 18.7467 13.9747 18.5691 14.9084L15.6016 15.5568V11.1346L18.7501 10.4023V10.858Z" fill="url(#paint4_linear_1837_125722)"/>
<path fill-rule="evenodd" clip-rule="evenodd" d="M9.33862 8.36143C9.33862 7.95976 9.66702 7.80527 10.2109 7.80527C10.9909 7.80527 11.9761 8.04215 12.7561 8.46442V6.04408C11.9043 5.7042 11.0627 5.57031 10.2109 5.57031C8.12764 5.57031 6.74219 6.66204 6.74219 8.48502C6.74219 11.3276 10.642 10.8745 10.642 12.1001C10.642 12.5739 10.2315 12.7283 9.65676 12.7283C8.80497 12.7283 7.71713 12.3782 6.85508 11.9044V14.3556C7.8095 14.7676 8.77418 14.9427 9.65676 14.9427C11.7914 14.9427 13.2589 13.8819 13.2589 12.0383C13.2487 8.96909 9.33862 9.51495 9.33862 8.36143Z" fill="white"/>
<defs>
<linearGradient id="paint0_linear_1837_125722" x1="1.25" y1="1.25" x2="6.99791" y2="5.31381" gradientUnits="userSpaceOnUse">
<stop stop-color="#392993"/>
<stop offset="1" stop-color="#4B47B9"/>
</linearGradient>
<linearGradient id="paint1_linear_1837_125722" x1="1.909" y1="5.35871" x2="14.5979" y2="15.8253" gradientUnits="userSpaceOnUse">
<stop stop-color="#594BB9"/>
<stop offset="1" stop-color="#60A8F2"/>
</linearGradient>
<linearGradient id="paint2_linear_1837_125722" x1="10.0371" y1="16.8466" x2="18.7505" y2="18.7504" gradientUnits="userSpaceOnUse">
<stop stop-color="#61A2EF"/>
<stop offset="1" stop-color="#58E6FD"/>
</linearGradient>
<linearGradient id="paint3_linear_1837_125722" x1="7.76758" y1="2.49477" x2="18.7508" y2="1.25" gradientUnits="userSpaceOnUse">
<stop stop-color="#534EBE"/>
<stop offset="1" stop-color="#6875E2"/>
</linearGradient>
<linearGradient id="paint4_linear_1837_125722" x1="15.6016" y1="11.1712" x2="18.7501" y2="14.9421" gradientUnits="userSpaceOnUse">
<stop stop-color="#71A5F3"/>
<stop offset="1" stop-color="#6CC3FA"/>
</linearGradient>
</defs>
</svg>
