<svg width="68" height="17" viewBox="0 0 68 17" fill="none" xmlns="http://www.w3.org/2000/svg">
<path fill-rule="evenodd" clip-rule="evenodd" d="M35.8615 12.4861C34.5314 12.5003 33.4373 11.6779 33.4181 10.6496C33.3991 9.6212 34.462 8.77598 35.7925 8.76195C37.123 8.74793 38.2166 9.5702 38.2356 10.5984C38.2546 11.6269 37.1921 12.4719 35.8615 12.4861ZM35.7706 7.58895C33.6024 7.6119 31.8694 8.98939 31.9006 10.6656C31.9318 12.342 33.7148 13.6822 35.8833 13.6591C38.052 13.6362 39.7846 12.2587 39.7536 10.5823C39.7224 8.90621 37.9394 7.56585 35.7706 7.58895Z" fill="#8CC24A"/>
<path fill-rule="evenodd" clip-rule="evenodd" d="M10.0321 8.76179C11.0543 8.76179 11.9255 9.25462 12.2757 9.94915H7.78892C8.13884 9.25462 9.01004 8.76179 10.0321 8.76179ZM13.9294 10.9875C13.9482 10.8681 13.9591 10.747 13.9591 10.624C13.9591 8.94764 12.201 7.58862 10.0321 7.58862C7.86358 7.58862 6.10547 8.94764 6.10547 10.624C6.10547 12.3004 7.86358 13.6594 10.0321 13.6594C11.7282 13.6594 13.0949 13.028 13.7648 12.0949H11.8061C11.3983 12.34 10.9262 12.4863 10.0321 12.4863C8.86182 12.4863 7.88737 11.8408 7.66952 10.9858L13.9294 10.9875Z" fill="#8CC24A"/>
<path fill-rule="evenodd" clip-rule="evenodd" d="M46.6138 12.0892C46.2045 12.3376 45.6889 12.4863 45.1281 12.4863C43.7976 12.4863 42.719 11.6525 42.719 10.624C42.719 9.59562 43.7976 8.76179 45.1281 8.76179C45.7301 8.76179 46.2804 8.93295 46.7026 9.21534H48.6061C47.9493 8.24849 46.6389 7.58862 45.1281 7.58862C42.9594 7.58862 41.2013 8.94764 41.2013 10.624C41.2013 12.3004 42.9594 13.6594 45.1281 13.6594C46.6094 13.6594 47.8984 13.0252 48.5675 12.0892H46.6138Z" fill="#8CC24A"/>
<path fill-rule="evenodd" clip-rule="evenodd" d="M26.7917 7.58862C25.9854 7.58862 25.2028 7.80187 24.5505 8.14583V3.23877L23.0184 3.65964V13.6586H24.5505V9.80011C24.9738 9.18563 25.8446 8.76179 26.7917 8.76179C28.0908 8.76179 29.0137 9.32147 29.0934 10.5199V13.654H30.4669V10.5458C30.4669 8.86957 28.9604 7.58862 26.7917 7.58862Z" fill="#8CC24A"/>
<path fill-rule="evenodd" clip-rule="evenodd" d="M53.9518 12.4863C52.6215 12.4863 51.5428 11.6525 51.5428 10.624C51.5428 9.59562 52.6215 8.76179 53.9518 8.76179C55.2823 8.76179 56.3609 9.59562 56.3609 10.624C56.3609 11.6525 55.2823 12.4863 53.9518 12.4863ZM56.5881 7.67858V8.37904C55.8907 7.88951 54.9679 7.58862 53.9518 7.58862C51.7833 7.58862 50.025 8.94764 50.025 10.624C50.025 12.3004 51.7833 13.6594 53.9518 13.6594C54.9679 13.6594 55.8907 13.3586 56.5881 12.869V13.6586H58.12V8.09945L56.5881 7.67858Z" fill="#8CC24A"/>
<path fill-rule="evenodd" clip-rule="evenodd" d="M21.4689 7.65019H18.5216V4.89454L17.0097 5.30963V7.65019H15.3784V8.68669H17.0097V13.6586H18.5216V8.68669H21.4689V7.65019Z" fill="#8CC24A"/>
<path fill-rule="evenodd" clip-rule="evenodd" d="M61.0176 8.8458L60.9731 8.34042C60.9672 8.27523 60.9731 8.19518 60.9703 8.11315H60.9618C60.934 8.19105 60.9006 8.27935 60.867 8.35313L60.6361 8.83524H60.5079L60.2824 8.34042C60.2547 8.27308 60.2268 8.19105 60.2014 8.11315H60.1931C60.1905 8.19303 60.1931 8.26466 60.1877 8.34042L60.146 8.8458H59.9845L60.0707 8.00785H60.2907L60.5079 8.46256C60.5359 8.52577 60.5579 8.59526 60.5859 8.67316H60.5915C60.6166 8.59526 60.6415 8.52164 60.6695 8.46041L60.8867 8.00785H61.1039L61.1872 8.8458H61.0176ZM59.9456 8.00785V8.11529H59.6057V8.8458H59.4385V8.11529H59.1017V8.00785H59.9456Z" fill="#8CC24A"/>
</svg>
