<svg width="72" height="22" viewBox="0 0 72 22" fill="none" xmlns="http://www.w3.org/2000/svg">
<path d="M41.658 2.67587H30.9197V19.3248H41.658V2.67587Z" fill="#FF5F00"/>
<path d="M31.6016 11.0003C31.5999 9.39693 32.021 7.8142 32.8331 6.37197C33.6452 4.92974 34.827 3.66582 36.2889 2.67588C34.4785 1.44812 32.3042 0.684603 30.0146 0.472582C27.725 0.26056 25.4125 0.608586 23.3413 1.4769C21.2701 2.34521 19.5239 3.69877 18.3022 5.38285C17.0805 7.06693 16.4326 9.0136 16.4326 11.0003C16.4326 12.9871 17.0805 14.9338 18.3022 16.6178C19.5239 18.3019 21.2701 19.6555 23.3413 20.5238C25.4125 21.3921 27.725 21.7401 30.0146 21.5281C32.3042 21.3161 34.4785 20.5526 36.2889 19.3248C34.827 18.3349 33.6452 17.0709 32.8331 15.6287C32.0211 14.1865 31.5999 12.6038 31.6016 11.0003Z" fill="#EB001B"/>
<path d="M56.1446 11.0003C56.1447 12.9871 55.4969 14.9337 54.2752 16.6178C53.0536 18.3019 51.3074 19.6554 49.2363 20.5238C47.1651 21.3921 44.8526 21.7401 42.5631 21.5281C40.2735 21.3161 38.0993 20.5526 36.2889 19.3248C37.7496 18.3339 38.9304 17.0697 39.7423 15.6277C40.5543 14.1857 40.9762 12.6035 40.9762 11.0003C40.9762 9.39719 40.5543 7.81495 39.7423 6.37295C38.9304 4.93094 37.7496 3.66682 36.2889 2.67588C38.0993 1.44812 40.2735 0.684598 42.5631 0.472579C44.8526 0.26056 47.1651 0.608602 49.2363 1.47692C51.3074 2.34524 53.0536 3.6988 54.2752 5.38288C55.4969 7.06697 56.1447 9.01363 56.1446 11.0003Z" fill="#F79E1B"/>
<path d="M54.9737 17.5614V17.2206H55.133V17.1511H54.7273V17.2206H54.8867V17.5614H54.9737ZM55.7614 17.5614V17.1505H55.637L55.494 17.4331L55.3509 17.1505H55.2265V17.5614H55.3143V17.2514L55.4484 17.5187H55.5395L55.6736 17.2508V17.5614H55.7614Z" fill="#F79E1B"/>
</svg>
