<svg width="72" height="20" viewBox="0 0 72 20" fill="none" xmlns="http://www.w3.org/2000/svg">
<g clip-path="url(#clip0_1732_114639)">
<path d="M2.07056 2.8585L5.13579 9.32202L8.26719 2.8585H10.0975L5.11374 12.8862L0.240234 2.8585H2.07056Z" fill="#021E4C"/>
<path d="M23.5272 4.18814H19.0727V6.42267H23.3949V7.75231H19.0727V10.8548H23.5272V12.1844H17.3967V2.8585H23.5272V4.18814Z" fill="#021E4C"/>
<path fill-rule="evenodd" clip-rule="evenodd" d="M35.3912 8.21399L38.8314 12.1844H36.7805L33.605 8.36173H33.2963V12.1844H31.6203V2.8585H33.583C35.0604 2.8585 36.1189 3.09857 36.7585 3.56025C37.4641 4.05887 37.8611 4.81602 37.839 5.59165C37.8611 6.20106 37.6185 6.81048 37.1554 7.29063C36.7364 7.77078 36.0969 8.08472 35.3912 8.21399ZM33.2963 7.14289H33.8255C35.4133 7.14289 36.2072 6.62581 36.2072 5.61011C36.2072 4.64982 35.4353 4.16967 33.8917 4.16967H33.2963V7.14289Z" fill="#021E4C"/>
<path d="M48.0932 2.8585V12.1844H46.4173V2.8585H48.0932Z" fill="#021E4C"/>
<path d="M62.2065 4.18814H58.3474V6.42267H62.0742V7.75231H58.3474V12.1844H56.6715V2.8585H62.2065V4.18814Z" fill="#021E4C"/>
<path d="M71.733 2.8585V12.1844H70.0571V2.8585H71.733Z" fill="#021E4C"/>
<path d="M70.0571 0.199219H71.733V1.54733H70.0571V0.199219Z" fill="#FCC015"/>
<path d="M46.4173 0.199219H48.0932V1.54733H46.4173V0.199219Z" fill="#FCC015"/>
<path d="M27.1658 19.7006H26.394L28.1361 15.7671H29.0182L30.7603 19.7006H29.8782L29.4151 18.6295H27.6289L27.1658 19.7006ZM27.8274 18.094H29.1946L28.511 16.5058H28.4889L27.8274 18.094Z" fill="#021E4C"/>
<path d="M32.6347 15.7671L33.9137 18.9434H33.9358L35.1928 15.7671H35.9425L34.3107 19.7006H33.3845L31.7526 15.7671H32.6347Z" fill="#021E4C"/>
<path d="M36.4277 16.0626C36.4277 15.9702 36.4718 15.8779 36.56 15.8225C36.7364 15.6932 37.001 15.6932 37.1995 15.8225C37.2877 15.8779 37.3318 15.9702 37.3318 16.0626C37.3318 16.1549 37.2877 16.2472 37.1995 16.3026C37.0231 16.4319 36.7585 16.4319 36.56 16.3026C36.4718 16.2472 36.4056 16.1549 36.4277 16.0626ZM37.2436 16.7643V19.7006H36.4938V16.7643H37.2436Z" fill="#021E4C"/>
<path d="M38.1036 17.5769C38.1036 17.3922 38.1477 17.226 38.2801 17.0783C38.4124 16.949 38.5667 16.8382 38.7652 16.7828C38.9857 16.7089 39.2283 16.672 39.4709 16.672C39.6693 16.672 39.8678 16.6904 40.0663 16.7274C40.1986 16.7458 40.3309 16.7828 40.4632 16.8382L40.4853 17.3553H40.4632C40.375 17.2999 40.2647 17.2629 40.1545 17.226C40.0222 17.1891 39.9119 17.1521 39.7796 17.1337C39.6473 17.1152 39.537 17.0967 39.4047 17.0967C39.2503 17.0967 39.096 17.1152 38.9416 17.1706C38.8093 17.226 38.7431 17.3368 38.7652 17.4476C38.7652 17.5215 38.7873 17.5953 38.8534 17.6507C38.9196 17.7061 39.0078 17.7431 39.096 17.78C39.2062 17.8169 39.3386 17.8539 39.515 17.8908C39.6914 17.9277 39.8457 17.9832 40.0001 18.0201C40.1324 18.057 40.2647 18.1124 40.375 18.1678C40.4853 18.2232 40.5735 18.2971 40.6176 18.3894C40.6837 18.5002 40.7058 18.6295 40.7058 18.7588C40.7278 19.0358 40.5955 19.3128 40.3309 19.479C40.0442 19.6452 39.6693 19.7375 39.3165 19.7191C39.096 19.7191 38.8534 19.7006 38.6329 19.6637C38.4565 19.6267 38.28 19.5713 38.1036 19.4975L38.0595 18.9434H38.0816C38.258 19.0543 38.4565 19.1281 38.6549 19.1835C38.8755 19.2389 39.096 19.2759 39.3165 19.2759C39.4929 19.2943 39.6693 19.2574 39.8457 19.1835C39.956 19.1097 40.0222 18.9988 40.0001 18.888C40.0001 18.8142 39.9781 18.7403 39.9119 18.6849C39.8457 18.6295 39.7575 18.5741 39.6473 18.5556C39.537 18.5187 39.3827 18.4818 39.2062 18.4264C38.9857 18.371 38.7872 18.3156 38.6329 18.2602C38.4785 18.2048 38.3462 18.1309 38.2359 18.0201C38.1477 17.9277 38.0816 17.7615 38.1036 17.5769Z" fill="#021E4C"/>
<path d="M41.4776 17.503L41.5658 16.949C41.7202 16.8751 41.8966 16.8012 42.073 16.7643C42.2935 16.7089 42.514 16.6904 42.7346 16.6904C43.1095 16.672 43.4843 16.7458 43.7931 16.9121C44.0577 17.0967 44.19 17.3737 44.1459 17.6507V19.7006H43.4182V19.1651H43.3961C43.33 19.3497 43.1756 19.5159 42.9771 19.6452C42.7566 19.7375 42.514 19.7929 42.2715 19.7929C42.0951 19.7929 41.9186 19.756 41.7422 19.7006C41.5879 19.6452 41.4555 19.5529 41.3673 19.4236C41.2571 19.2759 41.213 19.1281 41.235 18.9619C41.235 18.7957 41.2791 18.6295 41.3894 18.5002C41.4997 18.371 41.632 18.2786 41.7863 18.2232C41.9848 18.1494 42.1833 18.1124 42.4038 18.0755C42.7125 18.0386 42.933 18.0016 43.0874 17.9647C43.1977 17.9462 43.3079 17.9093 43.4182 17.8354V17.6877C43.4402 17.5399 43.3741 17.3922 43.2638 17.2814C43.0874 17.1891 42.8669 17.1337 42.6464 17.1521C42.4258 17.1521 42.2274 17.1706 42.0289 17.2445C41.8304 17.2999 41.654 17.3922 41.4997 17.503H41.4776ZM43.4182 18.6849V18.1678C43.33 18.2232 43.2197 18.2602 43.1315 18.2786C42.9992 18.3156 42.8228 18.334 42.6023 18.371C42.4479 18.3894 42.2935 18.4448 42.1612 18.5187C42.051 18.611 41.9848 18.7403 42.0068 18.8696C41.9848 18.9988 42.051 19.1281 42.1612 19.202C42.2715 19.2759 42.4258 19.3128 42.5802 19.3128C42.7346 19.3128 42.911 19.2759 43.0433 19.2205C43.1536 19.1651 43.2638 19.0727 43.33 18.9804C43.3741 18.888 43.4182 18.7957 43.4182 18.6849Z" fill="#021E4C"/>
<path d="M45.9542 16.8566C45.9542 16.635 46.0203 16.4134 46.1747 16.2288C46.3291 16.0626 46.5275 15.9333 46.7701 15.841C47.0347 15.7486 47.3214 15.7117 47.6081 15.7117C47.8947 15.7117 48.1814 15.7301 48.4461 15.804C48.6225 15.841 48.7768 15.8964 48.9312 15.9702L48.9753 16.6166C48.865 16.5427 48.7327 16.4688 48.6004 16.4319C48.4461 16.3765 48.2917 16.3396 48.1153 16.3026C47.9609 16.2657 47.7845 16.2472 47.6081 16.2472C47.3876 16.2472 47.167 16.2842 46.9686 16.358C46.8142 16.4319 46.7039 16.5796 46.726 16.7274C46.726 16.8382 46.748 16.949 46.8363 17.0413C46.9245 17.1337 47.0568 17.1891 47.1891 17.226C47.3434 17.2814 47.5419 17.3183 47.7624 17.3737C47.983 17.4291 48.1814 17.4661 48.3578 17.5215C48.5343 17.5584 48.6886 17.6323 48.843 17.7246C48.9753 17.7985 49.1076 17.9093 49.1738 18.0386C49.262 18.2048 49.3061 18.371 49.284 18.5556C49.3061 18.9065 49.1297 19.2574 48.8209 19.479C48.4461 19.7006 47.983 19.8114 47.5199 19.7929C47.2332 19.7929 46.9465 19.756 46.6819 19.7006C46.4393 19.6452 46.1967 19.5713 45.9983 19.4421L45.9542 18.7772H45.9762C46.1967 18.925 46.4393 19.0358 46.726 19.1096C47.0127 19.1835 47.2993 19.2389 47.586 19.2389C48.2035 19.2389 48.5122 19.0542 48.5122 18.7034C48.5122 18.5926 48.4902 18.4818 48.4019 18.3894C48.3137 18.2971 48.2035 18.2232 48.0712 18.1863C47.8727 18.1309 47.6742 18.0755 47.4537 18.0201C47.2552 17.9832 47.0568 17.9277 46.8804 17.8723C46.7039 17.8169 46.5496 17.7615 46.3952 17.6692C46.2629 17.5769 46.1526 17.4845 46.0644 17.3553C45.9983 17.2075 45.9542 17.0413 45.9542 16.8566Z" fill="#021E4C"/>
<path d="M51.5995 16.6904C51.9303 16.6904 52.2611 16.7458 52.5257 16.8936C52.7903 17.0229 53.0108 17.226 53.1652 17.4476C53.4739 17.9462 53.4739 18.5372 53.1652 19.0358C53.0108 19.2574 52.7903 19.4605 52.5257 19.5898C51.9523 19.8668 51.2467 19.8668 50.6513 19.5898C50.3866 19.4605 50.1661 19.2574 50.0117 19.0358C49.703 18.5372 49.703 17.9462 50.0117 17.4476C50.1661 17.226 50.3866 17.0229 50.6513 16.8936C50.96 16.7458 51.2908 16.6904 51.5995 16.6904ZM51.5995 19.2759C51.8862 19.2943 52.1729 19.1835 52.3493 18.9988C52.68 18.5372 52.68 17.9462 52.3493 17.4661C51.9523 17.1152 51.2687 17.0967 50.8497 17.4476L50.8277 17.4661C50.4748 17.9277 50.4748 18.5187 50.8277 18.9988C51.0482 19.1835 51.3128 19.2759 51.5995 19.2759Z" fill="#021E4C"/>
<path d="M54.797 15.6193V19.7006H54.0473V15.6193H54.797Z" fill="#021E4C"/>
<path d="M57.2448 19.2389C57.4874 19.2389 57.7079 19.1651 57.8843 19.0358C58.0608 18.9065 58.149 18.7034 58.149 18.5002V16.7643H58.8987V19.7006H58.171V19.0912H58.149C58.0387 19.3867 57.7741 19.6083 57.4433 19.7191C57.2889 19.756 57.1346 19.7929 56.9582 19.7929C56.6274 19.8114 56.3186 19.7191 56.054 19.5344C55.8114 19.3313 55.7012 19.0542 55.7232 18.7588V16.7643H56.473V18.5926C56.451 18.7588 56.5171 18.9434 56.6274 19.0727C56.8258 19.202 57.0243 19.2574 57.2448 19.2389Z" fill="#021E4C"/>
<path d="M60.9937 18.8326C60.9716 18.9619 61.0157 19.0727 61.126 19.1651C61.2363 19.2205 61.3465 19.2574 61.4788 19.2574C61.5891 19.2574 61.6993 19.2574 61.8096 19.2205C61.8978 19.202 61.986 19.1835 62.0522 19.1466L61.986 19.6637C61.8978 19.7006 61.7876 19.7191 61.6993 19.7375C61.567 19.756 61.4568 19.7745 61.3245 19.7745C61.0378 19.7929 60.7511 19.7375 60.5085 19.5898C60.3101 19.4236 60.1998 19.1835 60.2219 18.9434V17.2629H59.5823L59.6706 16.8382L60.2219 16.7643V16.118L60.9716 16.0441V16.7643H61.986L61.8978 17.2814H60.9716L60.9937 18.8326Z" fill="#021E4C"/>
<path d="M62.7578 16.0626C62.7578 15.9702 62.8019 15.8779 62.8902 15.8225C63.0666 15.6932 63.3312 15.6932 63.5297 15.8225C63.6179 15.8779 63.662 15.9702 63.662 16.0626C63.662 16.1549 63.6179 16.2472 63.5297 16.3026C63.3532 16.4319 63.0886 16.4319 62.8902 16.3026C62.7799 16.2472 62.7358 16.1549 62.7578 16.0626ZM63.5517 16.7643V19.7006H62.802V16.7643H63.5517Z" fill="#021E4C"/>
<path d="M66.1318 16.6904C66.4626 16.6904 66.7713 16.7643 67.058 16.8936C67.3226 17.0229 67.5431 17.226 67.6975 17.4476C68.0062 17.9462 68.0062 18.5372 67.6975 19.0358C67.5431 19.2574 67.3226 19.4605 67.058 19.5898C66.4846 19.8668 65.779 19.8668 65.1836 19.5898C64.919 19.4605 64.6984 19.2574 64.5441 19.0358C64.2353 18.5372 64.2353 17.9462 64.5441 17.4476C64.6984 17.226 64.919 17.0229 65.1836 16.8936C65.4703 16.7458 65.801 16.672 66.1318 16.6904ZM66.1318 19.2759C66.4185 19.2943 66.7052 19.1835 66.8816 18.9988C67.2124 18.5372 67.2124 17.9462 66.8816 17.4661C66.4846 17.1152 65.8231 17.0967 65.4041 17.4476L65.382 17.4661C65.0292 17.9277 65.0292 18.5187 65.382 18.9988C65.5585 19.1835 65.8451 19.2759 66.1318 19.2759Z" fill="#021E4C"/>
<path d="M70.2335 17.226C69.9909 17.226 69.7704 17.2814 69.5719 17.4291C69.3955 17.5769 69.3073 17.78 69.3073 17.9832V19.7191H68.5575V16.7643H69.2853V17.3922H69.3073C69.3514 17.2445 69.4617 17.0967 69.594 16.9859C69.7263 16.8936 69.8807 16.8197 70.035 16.7643C70.1894 16.7274 70.3658 16.6904 70.5202 16.6904C70.851 16.672 71.1597 16.7643 71.4023 16.9305C71.6228 17.1337 71.733 17.4107 71.711 17.6692V19.6821H70.9612V17.8723C70.9833 17.7061 70.9171 17.5215 70.8068 17.3737C70.6525 17.2629 70.432 17.2075 70.2335 17.226Z" fill="#021E4C"/>
</g>
<defs>
<clipPath id="clip0_1732_114639">
<rect width="72" height="20" fill="white"/>
</clipPath>
</defs>
</svg>
