<svg width="72" height="20" viewBox="0 0 72 20" fill="none" xmlns="http://www.w3.org/2000/svg">
<path fill-rule="evenodd" clip-rule="evenodd" d="M38.2801 13.2894C36.8603 13.3061 35.6925 12.3385 35.672 11.1288C35.6517 9.91889 36.7862 8.92452 38.2064 8.90802C39.6266 8.89151 40.794 9.85889 40.8143 11.0686C40.8346 12.2785 39.7005 13.2727 38.2801 13.2894ZM38.1831 7.52802C35.8686 7.55501 34.0188 9.17559 34.0521 11.1476C34.0854 13.1199 35.9886 14.6966 38.3034 14.6694C40.6183 14.6424 42.4677 13.0218 42.4346 11.0496C42.4013 9.07773 40.4981 7.50084 38.1831 7.52802Z" fill="#8CC24A"/>
<path fill-rule="evenodd" clip-rule="evenodd" d="M10.709 8.90783C11.8001 8.90783 12.7301 9.48763 13.1038 10.3047H8.31455C8.68806 9.48763 9.61801 8.90783 10.709 8.90783ZM14.8691 11.5263C14.8892 11.3859 14.9008 11.2434 14.9008 11.0987C14.9008 9.12647 13.0241 7.52763 10.709 7.52763C8.39424 7.52763 6.51758 9.12647 6.51758 11.0987C6.51758 13.0709 8.39424 14.6698 10.709 14.6698C12.5194 14.6698 13.9783 13.9269 14.6934 12.8292H12.6026C12.1674 13.1175 11.6634 13.2896 10.709 13.2896C9.45979 13.2896 8.41964 12.5302 8.18709 11.5243L14.8691 11.5263Z" fill="#8CC24A"/>
<path fill-rule="evenodd" clip-rule="evenodd" d="M49.7574 12.8224C49.3205 13.1146 48.7702 13.2896 48.1716 13.2896C46.7514 13.2896 45.6001 12.3086 45.6001 11.0987C45.6001 9.8888 46.7514 8.90783 48.1716 8.90783C48.8142 8.90783 49.4016 9.10919 49.8523 9.44142H51.8841C51.183 8.30394 49.7842 7.52763 48.1716 7.52763C45.8566 7.52763 43.9799 9.12647 43.9799 11.0987C43.9799 13.0709 45.8566 14.6698 48.1716 14.6698C49.7528 14.6698 51.1287 13.9236 51.8429 12.8224H49.7574Z" fill="#8CC24A"/>
<path fill-rule="evenodd" clip-rule="evenodd" d="M28.5987 7.52763C27.738 7.52763 26.9027 7.77851 26.2064 8.18317V2.41016L24.5709 2.9053V14.6688H26.2064V10.1294C26.6582 9.40647 27.5877 8.90783 28.5987 8.90783C29.9854 8.90783 30.9705 9.56627 31.0556 10.9762V14.6634H32.5217V11.0067C32.5217 9.03462 30.9137 7.52763 28.5987 7.52763Z" fill="#8CC24A"/>
<path fill-rule="evenodd" clip-rule="evenodd" d="M57.5903 13.2896C56.1703 13.2896 55.0188 12.3086 55.0188 11.0987C55.0188 9.8888 56.1703 8.90783 57.5903 8.90783C59.0105 8.90783 60.1618 9.8888 60.1618 11.0987C60.1618 12.3086 59.0105 13.2896 57.5903 13.2896ZM60.4043 7.63346V8.45753C59.6599 7.88161 58.6749 7.52763 57.5903 7.52763C55.2756 7.52763 53.3987 9.12647 53.3987 11.0987C53.3987 13.0709 55.2756 14.6698 57.5903 14.6698C58.6749 14.6698 59.6599 14.3158 60.4043 13.7399V14.6688H62.0396V8.1286L60.4043 7.63346Z" fill="#8CC24A"/>
<path fill-rule="evenodd" clip-rule="evenodd" d="M22.917 7.60006H19.7709V4.35812L18.1571 4.84647V7.60006H16.4158V8.81948H18.1571V14.6688H19.7709V8.81948H22.917V7.60006Z" fill="#8CC24A"/>
<path fill-rule="evenodd" clip-rule="evenodd" d="M65.1326 9.00666L65.085 8.4121C65.0787 8.3354 65.085 8.24122 65.082 8.14472H65.0729C65.0433 8.23637 65.0077 8.34025 64.9718 8.42705L64.7253 8.99423H64.5885L64.3478 8.4121C64.3182 8.33287 64.2884 8.23637 64.2613 8.14472H64.2525C64.2497 8.2387 64.2525 8.32297 64.2467 8.4121L64.2022 9.00666H64.0297L64.1218 8.02084H64.3566L64.5885 8.55579C64.6183 8.63016 64.6419 8.7119 64.6717 8.80355H64.6777C64.7045 8.7119 64.7311 8.6253 64.7609 8.55326L64.9928 8.02084H65.2246L65.3136 9.00666H65.1326ZM63.9883 8.02084V8.14724H63.6255V9.00666H63.447V8.14724H63.0874V8.02084H63.9883Z" fill="#8CC24A"/>
</svg>
