<svg width="24" height="24" viewBox="0 0 24 24" fill="none" xmlns="http://www.w3.org/2000/svg">
<g clip-path="url(#clip0_1732_85655)">
<path d="M12 24C18.6274 24 24 18.6274 24 12C24 5.37258 18.6274 0 12 0C5.37258 0 0 5.37258 0 12C0 18.6274 5.37258 24 12 24Z" fill="#F0F0F0"/>
<path d="M24.0009 12.0017C24.0009 7.24413 21.2322 3.13338 17.2183 1.19238V22.8109C21.2322 20.8699 24.0009 16.7592 24.0009 12.0017Z" fill="#D80027"/>
<path d="M0.000488281 12.0007C0.000488281 16.7582 2.76916 20.869 6.78311 22.81V1.19141C2.76916 3.13241 0.000488281 7.24316 0.000488281 12.0007Z" fill="#D80027"/>
<path d="M14.0875 13.566L16.1744 12.5225L15.131 12.0008V10.9573L13.044 12.0008L14.0875 9.91384H13.044L12.0006 8.34863L10.9571 9.91384H9.91358L10.9571 12.0008L8.8701 10.9573V12.0008L7.82666 12.5225L9.91358 13.566L9.39186 14.6095H11.4788V16.1747H12.5223V14.6095H14.6092L14.0875 13.566Z" fill="#D80027"/>
</g>
<defs>
<clipPath id="clip0_1732_85655">
<rect width="24" height="24" fill="white"/>
</clipPath>
</defs>
</svg>
