<svg width="26" height="9" viewBox="0 0 26 9" fill="none" xmlns="http://www.w3.org/2000/svg">
<path d="M16.0111 0.655273C14.4867 0.655273 13.1244 1.44374 13.1244 2.90049C13.1244 4.5711 15.5405 4.68649 15.5405 5.52576C15.5405 5.87914 15.1346 6.19547 14.4415 6.19547C13.4578 6.19547 12.7226 5.75346 12.7226 5.75346L12.408 7.22348C12.408 7.22348 13.2549 7.59685 14.3794 7.59685C16.0461 7.59685 17.3575 6.76967 17.3575 5.28801C17.3575 3.52271 14.9314 3.41075 14.9314 2.63176C14.9314 2.35494 15.2646 2.05162 15.9557 2.05162C16.7355 2.05162 17.3718 2.37309 17.3718 2.37309L17.6797 0.953296C17.6797 0.953296 16.9874 0.655273 16.0111 0.655273ZM2.06426 0.762428L2.02734 0.976736C2.02734 0.976736 2.66866 1.09386 3.24628 1.3275C3.99 1.59541 4.04298 1.75138 4.16823 2.2358L5.53314 7.48634H7.36279L10.1815 0.762428H8.35606L6.54486 5.33405L5.80578 1.45893C5.738 1.01542 5.39467 0.762428 4.97442 0.762428H2.06426ZM10.9156 0.762428L9.48355 7.48634H11.2243L12.6513 0.762428H10.9156ZM20.6242 0.762428C20.2045 0.762428 19.9821 0.986683 19.8189 1.37856L17.2686 7.48634H19.0941L19.4472 6.46838H21.6712L21.8859 7.48634H23.4966L22.0915 0.762428H20.6242ZM20.8616 2.57902L21.4027 5.10217H19.9531L20.8616 2.57902Z" fill="#1434CB"/>
</svg>
