<svg width="53" height="17" viewBox="0 0 53 17" fill="none" xmlns="http://www.w3.org/2000/svg">
<path d="M32.9823 1.3501C29.8421 1.3501 27.0359 2.97431 27.0359 5.97516C27.0359 9.41657 32.0128 9.65427 32.0128 11.3831C32.0128 12.1111 31.1769 12.7627 29.749 12.7627C27.7226 12.7627 26.2081 11.8522 26.2081 11.8522L25.56 14.8804C25.56 14.8804 27.3048 15.6495 29.6211 15.6495C33.0544 15.6495 35.756 13.9456 35.756 10.8934C35.756 7.25692 30.7582 7.02628 30.7582 5.4216C30.7582 4.85135 31.4445 4.22654 32.8683 4.22654C34.4747 4.22654 35.7853 4.88874 35.7853 4.88874L36.4196 1.96401C36.4196 1.96401 34.9935 1.3501 32.9823 1.3501ZM4.25231 1.57083L4.17627 2.0123C4.17627 2.0123 5.49737 2.25357 6.68723 2.73486C8.21928 3.28675 8.32841 3.60803 8.58644 4.60592L11.3981 15.4219H15.1671L20.9736 1.57083H17.2132L13.4822 10.9882L11.9597 3.0056C11.8201 2.092 11.1129 1.57083 10.2472 1.57083H4.25231ZM22.4857 1.57083L19.5358 15.4219H23.1217L26.0612 1.57083H22.4857ZM42.4853 1.57083C41.6206 1.57083 41.1624 2.03279 40.8263 2.84005L35.5728 15.4219H39.3332L40.0607 13.3249H44.642L45.0844 15.4219H48.4023L45.5077 1.57083H42.4853ZM42.9743 5.31296L44.089 10.5106H41.1028L42.9743 5.31296Z" fill="#1434CB"/>
</svg>
