<svg width="24" height="24" viewBox="0 0 24 24" fill="none" xmlns="http://www.w3.org/2000/svg">
<g clip-path="url(#clip0_1732_85606)">
<path d="M12 24C18.6274 24 24 18.6274 24 12C24 5.37258 18.6274 0 12 0C5.37258 0 0 5.37258 0 12C0 18.6274 5.37258 24 12 24Z" fill="#F0F0F0"/>
<path d="M2.48069 4.69238C1.53808 5.91877 0.827311 7.33229 0.413452 8.86787H6.65617L2.48069 4.69238Z" fill="#0052B4"/>
<path d="M23.587 8.86782C23.1731 7.33229 22.4623 5.91877 21.5198 4.69238L17.3444 8.86782H23.587Z" fill="#0052B4"/>
<path d="M0.413452 15.1299C0.827359 16.6654 1.53812 18.0789 2.48069 19.3053L6.65603 15.1299H0.413452Z" fill="#0052B4"/>
<path d="M19.3056 2.47939C18.0792 1.53678 16.6657 0.826016 15.1301 0.412109V6.65479L19.3056 2.47939Z" fill="#0052B4"/>
<path d="M4.69397 21.5171C5.92036 22.4597 7.33388 23.1705 8.86941 23.5844V17.3418L4.69397 21.5171Z" fill="#0052B4"/>
<path d="M8.86936 0.412109C7.33383 0.826015 5.92031 1.53678 4.69397 2.47934L8.86936 6.65473V0.412109Z" fill="#0052B4"/>
<path d="M15.1301 23.5844C16.6657 23.1705 18.0792 22.4597 19.3055 21.5172L15.1301 17.3418V23.5844Z" fill="#0052B4"/>
<path d="M17.3444 15.1299L21.5198 19.3053C22.4623 18.079 23.1731 16.6654 23.587 15.1299H17.3444Z" fill="#0052B4"/>
<path d="M23.8984 10.4348H13.5653H13.5653V0.101578C13.0529 0.034875 12.5305 0 12 0C11.4694 0 10.9471 0.034875 10.4348 0.101578V10.4347V10.4347H0.101578C0.034875 10.9471 0 11.4695 0 12C0 12.5306 0.034875 13.0529 0.101578 13.5652H10.4347H10.4347V23.8984C10.9471 23.9651 11.4694 24 12 24C12.5305 24 13.0529 23.9652 13.5652 23.8984V13.5653V13.5653H23.8984C23.9651 13.0529 24 12.5306 24 12C24 11.4695 23.9651 10.9471 23.8984 10.4348Z" fill="#D80027"/>
<path d="M15.1304 15.1309L20.4852 20.4857C20.7315 20.2395 20.9664 19.9821 21.1906 19.7153L16.6061 15.1309H15.1304V15.1309Z" fill="#D80027"/>
<path d="M8.86951 15.1309H8.86941L3.51465 20.4856C3.76084 20.7319 4.01823 20.9668 4.28504 21.191L8.86951 16.6064V15.1309Z" fill="#D80027"/>
<path d="M8.86939 8.8696V8.86951L3.51458 3.51465C3.2683 3.76084 3.03336 4.01823 2.8092 4.28504L7.39372 8.86955H8.86939V8.8696Z" fill="#D80027"/>
<path d="M15.1304 8.86981L20.4852 3.5149C20.239 3.26862 19.9817 3.03368 19.7148 2.80957L15.1304 7.39409V8.86981Z" fill="#D80027"/>
</g>
<defs>
<clipPath id="clip0_1732_85606">
<rect width="24" height="24" fill="white"/>
</clipPath>
</defs>
</svg>
