<svg width="16" height="17" viewBox="0 0 16 17" fill="none" xmlns="http://www.w3.org/2000/svg">
<path d="M12.4242 5.30862C12.5801 4.29258 12.4242 3.61523 11.8788 2.98998C11.2815 2.28657 10.1906 2 8.78812 2H4.76242C4.47673 2 4.24297 2.20842 4.19103 2.49499L2.50283 13.1764C2.47686 13.3848 2.63269 13.5671 2.84047 13.5671H5.33381L5.152 14.6613C5.12603 14.8437 5.25589 15 5.46367 15H7.56743C7.82715 15 8.03493 14.8176 8.0609 14.5832L8.50243 11.8216C8.5284 11.5872 8.76215 11.4048 8.9959 11.4048H9.30757C11.3334 11.4048 12.9437 10.5711 13.4112 8.17435C13.593 7.18437 13.5151 6.32465 12.9956 5.7515C12.8398 5.56914 12.658 5.43888 12.4242 5.30862" fill="#009CDE"/>
<path d="M12.4242 5.30862C12.5801 4.29258 12.4242 3.61523 11.8788 2.98998C11.2815 2.28657 10.1906 2 8.78812 2H4.76242C4.47672 2 4.24297 2.20842 4.19103 2.49499L2.50283 13.1764C2.47686 13.3848 2.63269 13.5671 2.84047 13.5671H5.33381L5.93117 9.71142C5.98312 9.42485 6.21687 9.21643 6.50256 9.21643H7.69729C10.0348 9.21643 11.8529 8.27856 12.3723 5.51703C12.3983 5.46493 12.3983 5.38677 12.4242 5.30862Z" fill="#012169"/>
<path d="M6.63242 5.33467C6.6584 5.1523 6.89215 4.91784 7.1259 4.91784H10.2945C10.6581 4.91784 11.0217 4.94389 11.3334 4.99599C11.6191 5.0481 12.1385 5.17836 12.3983 5.33467C12.5541 4.31864 12.3983 3.64128 11.8529 3.01603C11.2815 2.28657 10.1906 2 8.78812 2H4.76242C4.47673 2 4.24297 2.20842 4.19103 2.49499L2.50283 13.1764C2.47686 13.3848 2.63269 13.5671 2.84047 13.5671H5.33381L6.63242 5.33467V5.33467Z" fill="#003087"/>
</svg>
