<svg width="24" height="24" viewBox="0 0 24 24" xmlns="http://www.w3.org/2000/svg">
<path d="M7.2,22c-0.3,0-0.4,0-0.5,0c-1.4-0.1-2.6-1.3-2.7-2.7c0-0.1,0-0.3,0-0.5v-3.3c-0.5,0-0.8-0.1-1.1-0.2
	c-0.7-0.3-1.3-0.9-1.6-1.6C1,13.1,1,12.5,1,11.5v-1.2c0-1.8,0-2.8,0.4-3.6c0.4-0.8,1-1.4,1.7-1.7C4,4.5,5,4.5,6.8,4.5h3.5
	c1.3,0,3-0.6,5.1-1.7c1.2-0.7,1.7-0.9,2.4-0.9c0.6,0.1,1,0.4,1.4,0.8c0.4,0.5,0.4,1.2,0.4,2.4v9.7c0,1.3,0,1.9-0.4,2.4
	c-0.3,0.5-0.8,0.8-1.4,0.8c-0.6,0.1-1.2-0.2-2.4-0.9c-1.9-1.1-3.6-1.7-4.9-1.7v3.2c0,0.3,0,0.4,0,0.5c-0.1,1.4-1.3,2.5-2.7,2.7
	C7.7,22,7.5,22,7.2,22z M7.2,20c0.2,0,0.3,0,0.3,0c0.5,0,0.9-0.4,0.9-0.9c0-0.1,0-0.2,0-0.3v-4.2c0-0.6,0.4-1,1-1h0.8
	c1.6,0,3.7,0.7,6.1,2c0.4,0.2,0.9,0.5,1.2,0.6c0-0.2,0-0.7,0-1.2V5.1c0-0.5,0-1,0-1.2c-0.2,0.1-0.7,0.4-1.2,0.6
	c-2.4,1.3-4.5,2-6.1,2H6.8c-1.5,0-2.3,0-2.7,0.2C3.7,6.9,3.4,7.2,3.2,7.6C3,8,3,8.8,3,10.3v1.2c0,0.7,0,1.2,0.1,1.4
	c0.1,0.2,0.3,0.4,0.5,0.5c0.2,0.1,0.7,0.1,1.4,0.1c0.6,0,1,0.4,1,1v4.2c0,0.2,0,0.3,0,0.3c0,0.5,0.4,0.9,0.9,0.9C7,20,7.1,20,7.2,20
	z M17.6,16.1L17.6,16.1L17.6,16.1z M17.6,3.9L17.6,3.9z M22,13c-0.6,0-1-0.4-1-1V8c0-0.6,0.4-1,1-1s1,0.4,1,1v4
	C23,12.6,22.6,13,22,13z"/>
</svg>
