<svg width="24" height="24" viewBox="0 0 24 24" xmlns="http://www.w3.org/2000/svg">
<path d="M15.2,22H8.8C7,22,6,22,5.2,21.6c-0.8-0.4-1.4-1-1.7-1.7C3,19,3,18,3,16.2V8.8C2,8.5,1.3,7.6,1.1,6.6C1,6.3,1,6,1,5.5
	s0-0.8,0.1-1.1c0.2-1.2,1.2-2.1,2.4-2.4C3.7,2,4,2,4.5,2h15c0.5,0,0.8,0,1.1,0.1c1.2,0.2,2.1,1.2,2.4,2.4C23,4.7,23,5,23,5.5
	s0,0.8-0.1,1.1c-0.2,1.1-1,1.9-1.9,2.2v7.4c0,1.8,0,2.8-0.4,3.6c-0.4,0.8-1,1.4-1.7,1.7C18,22,17,22,15.2,22z M5,9v7.2
	c0,1.5,0,2.3,0.2,2.7c0.2,0.4,0.5,0.7,0.9,0.9C6.5,20,7.3,20,8.8,20h6.4c1.5,0,2.3,0,2.7-0.2c0.4-0.2,0.7-0.5,0.9-0.9
	c0.2-0.4,0.2-1.2,0.2-2.7V9H5z M4.1,7h15.8c0,0,0,0,0.1,0c0.1,0,0.2,0,0.2,0c0.4-0.1,0.7-0.4,0.8-0.8c0-0.1,0-0.3,0-0.7s0-0.6,0-0.7
	c-0.1-0.4-0.4-0.7-0.8-0.8c-0.1,0-0.3,0-0.7,0h-15C4.1,4,3.9,4,3.8,4C3.4,4.1,3.1,4.4,3,4.8c0,0.1,0,0.3,0,0.7s0,0.6,0,0.7
	C3.1,6.6,3.4,6.9,3.8,7C3.9,7,3.9,7,4.1,7C4,7,4.1,7,4.1,7z M14,14h-4c-0.6,0-1-0.4-1-1c0-0.6,0.4-1,1-1h4c0.6,0,1,0.4,1,1
	C15,13.6,14.6,14,14,14z"/>
</svg>
