<svg width="20" height="20" viewBox="0 0 20 20" xmlns="http://www.w3.org/2000/svg">
<path d="M14.2,15c-0.5,0-0.8-0.4-0.8-0.8V7.8l-6.9,6.9c-0.3,0.3-0.9,0.3-1.2,0c-0.3-0.3-0.3-0.9,0-1.2l6.9-6.9H5.8
	C5.4,6.7,5,6.3,5,5.8S5.4,5,5.8,5h8.3l0,0c0,0,0,0,0,0h0h0c0,0,0,0,0,0h0c0,0,0,0,0,0l0,0c0.1,0,0.2,0,0.3,0.1c0,0,0,0,0,0
	c0,0,0,0,0,0c0.1,0,0.2,0.1,0.3,0.2l0,0c0,0,0,0,0,0c0,0,0,0,0,0c0,0,0,0,0,0c0,0,0,0,0,0c0,0,0,0,0,0c0,0,0,0,0,0c0,0,0,0,0,0
	c0,0,0,0,0,0l0,0c0.1,0.1,0.1,0.2,0.2,0.3c0,0,0,0,0,0C15,5.6,15,5.7,15,5.8c0,0,0,0,0,0c0,0,0,0,0,0c0,0,0,0,0,0c0,0,0,0,0,0
	c0,0,0,0,0,0l0,0v8.3C15,14.6,14.6,15,14.2,15z"/>
</svg>
