<svg width="24" height="24" viewBox="0 0 24 24" xmlns="http://www.w3.org/2000/svg">
<path d="M12,21.9l-2.8-2.8H5.3c-0.5,0-0.9-0.2-1.3-0.5s-0.5-0.8-0.5-1.3V3.9C3.5,3.4,3.7,3,4,2.6s0.8-0.5,1.3-0.5h13.4
	c0.5,0,0.9,0.2,1.3,0.5s0.5,0.8,0.5,1.3v13.4c0,0.5-0.2,0.9-0.5,1.3s-0.8,0.5-1.3,0.5h-3.9L12,21.9z M5.3,17.6h4.5l2.2,2.2l2.2-2.2
	h4.5c0.1,0,0.2,0,0.2-0.1c0.1-0.1,0.1-0.1,0.1-0.2V3.9c0-0.1,0-0.2-0.1-0.2c-0.1-0.1-0.1-0.1-0.2-0.1H5.3c-0.1,0-0.2,0-0.2,0.1
	C5,3.7,5,3.8,5,3.9v13.4c0,0.1,0,0.2,0.1,0.2C5.1,17.6,5.2,17.6,5.3,17.6z M5,3.6v14V3.6z M13.4,12l3-1.4l-3-1.4l-1.4-3l-1.4,3
	l-3,1.4l3,1.4l1.4,3L13.4,12z"/>
</svg>
