<svg width="24" height="24" viewBox="0 0 24 24" xmlns="http://www.w3.org/2000/svg">
<path d="M19,22.5H5c-0.9,0-1.8-0.4-2.5-1c-0.7-0.7-1-1.6-1-2.5V5c0-0.9,0.4-1.8,1-2.5s1.5-1,2.5-1h14
	c0.9,0,1.8,0.4,2.5,1c0.7,0.7,1,1.5,1,2.5v14c0,0.9-0.4,1.8-1,2.5C20.8,22.1,19.9,22.5,19,22.5z M5,3.3c-0.5,0-0.9,0.2-1.2,0.5
	S3.3,4.5,3.3,5v14c0,0.5,0.2,0.9,0.5,1.2c0.3,0.3,0.8,0.5,1.2,0.5h14c0.5,0,0.9-0.2,1.2-0.5s0.5-0.8,0.5-1.2V5
	c0-0.5-0.2-0.9-0.5-1.2c-0.3-0.3-0.8-0.5-1.2-0.5h-0.9v14c0,0.3-0.2,0.6-0.4,0.7c-0.3,0.2-0.6,0.2-0.9,0L12,15.6L7.1,18
	c-0.3,0.1-0.6,0.1-0.9,0c-0.3-0.2-0.4-0.4-0.4-0.7v-14H5z M12,13.8c0.1,0,0.3,0,0.4,0.1l4,2V3.3H7.6v12.6l4-2
	C11.7,13.8,11.9,13.8,12,13.8z"/>
</svg>
