<svg width="24" height="24" viewBox="0 0 24 24" xmlns="http://www.w3.org/2000/svg">
<path d="M22.1,21.8h-20c-0.4,0-0.8-0.3-0.8-0.8s0.3-0.8,0.8-0.8h0.2v-7.6c0-0.6,0-1,0.2-1.4c0.2-0.3,0.4-0.6,0.8-0.8
	s0.8-0.2,1.4-0.2h2.1v-4c0-1.2,0-1.9,0.3-2.4s0.7-0.9,1.2-1.2c0.6-0.3,1.2-0.3,2.4-0.3h2.6c1.2,0,1.9,0,2.4,0.3s0.9,0.7,1.2,1.2
	c0.3,0.6,0.3,1.3,0.3,2.5v4h2.2c0.6,0,1,0,1.4,0.2c0.3,0.2,0.6,0.4,0.8,0.8c0.2,0.4,0.2,0.8,0.2,1.4v7.6H22c0.4,0,0.8,0.3,0.8,0.8
	S22.5,21.8,22.1,21.8z M17.4,20.2h3v-7.6c0-0.3,0-0.6,0-0.7l-0.1-0.1c-0.1,0-0.4,0-0.7,0h-2.2C17.4,11.8,17.4,20.2,17.4,20.2z
	 M8.4,20.2h7.5v-14c0-1,0-1.5-0.1-1.8c-0.2-0.2-0.4-0.4-0.6-0.5c-0.3-0.1-0.8-0.1-1.8-0.1h-2.6c-1,0-1.5,0-1.8,0.1
	C8.8,4,8.6,4.1,8.5,4.4C8.4,4.6,8.4,5.1,8.4,6.1V20.2z M3.8,20.2h3v-8.5H4.7c-0.3,0-0.6,0-0.7,0l-0.1,0.1c0,0.1,0,0.4,0,0.7v7.7H3.8
	z M13.1,15.8h-2c-0.4,0-0.8-0.3-0.8-0.8s0.3-0.8,0.8-0.8h2c0.4,0,0.8,0.3,0.8,0.8S13.5,15.8,13.1,15.8z M13.1,11.8h-2
	c-0.4,0-0.8-0.3-0.8-0.8s0.3-0.8,0.8-0.8h2c0.4,0,0.8,0.3,0.8,0.8S13.5,11.8,13.1,11.8z M13.1,7.8h-2c-0.4,0-0.8-0.3-0.8-0.8
	s0.3-0.8,0.8-0.8h2c0.4,0,0.8,0.3,0.8,0.8S13.5,7.8,13.1,7.8z"/>
</svg>
