<svg width="24" height="24" viewBox="0 0 24 24" xmlns="http://www.w3.org/2000/svg">
<path d="M16.2,23H7.8C6,23,5,23,4.2,22.6c-0.8-0.4-1.4-1-1.7-1.7C2,20,2,19,2,17.2V8.8C2,7,2,6,2.4,5.2c0.4-0.8,1-1.4,1.7-1.7
	C4.9,3.1,5.7,3,7,3V2c0-0.6,0.4-1,1-1s1,0.4,1,1v1h6V2c0-0.6,0.4-1,1-1s1,0.4,1,1v1c1.3,0,2.1,0.1,2.8,0.4c0.8,0.4,1.4,1,1.7,1.7
	C22,6,22,7,22,8.8v8.4c0,1.8,0,2.8-0.4,3.6c-0.4,0.8-1,1.4-1.7,1.7C19,23,18,23,16.2,23z M4,11v6.2c0,1.5,0,2.3,0.2,2.7
	c0.2,0.4,0.5,0.7,0.9,0.9C5.5,21,6.3,21,7.8,21h8.4c1.5,0,2.3,0,2.7-0.2c0.4-0.2,0.7-0.5,0.9-0.9c0.2-0.4,0.2-1.2,0.2-2.7V11H4z
	 M4,9h16V8.8c0-1.5,0-2.3-0.2-2.7c-0.2-0.4-0.5-0.7-0.9-0.9C18.6,5,18,5,17,5v1c0,0.6-0.4,1-1,1s-1-0.4-1-1V5H9v1c0,0.6-0.4,1-1,1
	S7,6.6,7,6V5C6,5,5.4,5,5.1,5.2C4.7,5.4,4.4,5.7,4.2,6.1C4,6.5,4,7.3,4,8.8V9z"/>
</svg>
