<svg width="24" height="24" viewBox="0 0 24 24" xmlns="http://www.w3.org/2000/svg">
<path d="M12,23c-1.1,0-2.2-0.4-3.1-1.2c-0.5-0.4-1-0.6-1.6-0.7C4.9,21,3,19.1,2.8,16.7c0-0.6-0.3-1.2-0.7-1.6
	c-1.5-1.8-1.5-4.5,0-6.3c0.4-0.5,0.6-1,0.7-1.6C3,4.9,4.9,3,7.3,2.8c0.6,0,1.2-0.3,1.6-0.7c1.8-1.5,4.5-1.5,6.3,0
	c0.5,0.4,1,0.6,1.6,0.7C19.1,3,21,4.9,21.2,7.3c0,0.6,0.3,1.2,0.7,1.6c1.5,1.8,1.5,4.5,0,6.3c-0.4,0.5-0.6,1-0.7,1.6
	c-0.2,2.4-2.1,4.2-4.4,4.4c-0.6,0-1.2,0.3-1.6,0.7C14.2,22.6,13.1,23,12,23z M12,3c-0.7,0-1.3,0.2-1.8,0.7C9.4,4.3,8.4,4.7,7.4,4.8
	c0,0,0,0,0,0C6,4.9,4.9,6,4.8,7.4c-0.1,1-0.5,2-1.1,2.7c-0.9,1.1-0.9,2.6,0,3.7c0.7,0.8,1.1,1.7,1.1,2.7C4.9,18,6,19.1,7.4,19.2
	c1,0.1,2,0.5,2.7,1.1c1.1,0.9,2.6,0.9,3.7,0c0.8-0.7,1.7-1.1,2.8-1.1c1.4-0.1,2.5-1.2,2.6-2.6c0.1-1,0.5-2,1.1-2.7
	c0.9-1.1,0.9-2.6,0-3.7c-0.7-0.8-1.1-1.7-1.1-2.8C19.1,6,18,4.9,16.6,4.8c-1-0.1-2-0.5-2.8-1.1C13.3,3.2,12.7,3,12,3z M7.3,3.8
	L7.3,3.8L7.3,3.8z M11,15c-0.3,0-0.5-0.1-0.7-0.3l-2-2c-0.4-0.4-0.4-1,0-1.4s1-0.4,1.4,0l1.3,1.3l3.8-3.8c0.4-0.4,1-0.4,1.4,0
	s0.4,1,0,1.4l-4.5,4.5C11.5,14.9,11.3,15,11,15z"/>
</svg>
