<svg width="24" height="24" viewBox="0 0 24 24" xmlns="http://www.w3.org/2000/svg">
<path d="M16.5,21.8c-3,0-6.2-0.9-6.2-2.8v-7.5c0-1.9,3.2-2.8,6.2-2.8s6.2,0.9,6.2,2.8V19C22.7,20.9,19.5,21.8,16.5,21.8z M11.7,17.1
	V19c0,0.4,1.8,1.2,4.8,1.2s4.7-0.9,4.8-1.3V17C18.8,18.3,14.2,18.3,11.7,17.1z M11.7,15.2c0,0.4,1.8,1.2,4.8,1.2s4.7-0.9,4.8-1.3
	v-1.9c-2.4,1.2-7.1,1.2-9.5,0L11.7,15.2L11.7,15.2z M11.7,11.5c0,0.4,1.8,1.2,4.8,1.2s4.7-0.9,4.8-1.2c0-0.4-1.8-1.2-4.8-1.2
	C13.5,10.2,11.8,11.1,11.7,11.5z M7.5,19.8c-3,0-6.2-0.9-6.2-2.8V5c0-1.9,3.2-2.8,6.2-2.8s6.2,0.9,6.2,2.8v1.5
	c0,0.4-0.3,0.8-0.8,0.8c-0.3,0-0.6-0.2-0.7-0.4c-2.4,1.2-7.1,1.2-9.6,0V9c0,0.3,1.4,1.1,4.3,1.2c0.2,0,0.3,0,0.5,0
	c0.4,0,0.8,0.3,0.8,0.8s-0.3,0.8-0.7,0.8c-0.2,0-0.4,0-0.5,0c-1.6-0.1-3.1-0.3-4.2-0.9V13c0,0.4,1.8,1.2,4.8,1.2
	c0.4,0,0.8,0.3,0.8,0.8s-0.5,0.8-0.9,0.8c-1.7,0-3.5-0.3-4.8-0.9V17c0,0.4,1.8,1.2,4.8,1.2c0.4,0,0.8,0.3,0.8,0.8S7.9,19.8,7.5,19.8
	z M2.7,5c0.1,0.4,1.8,1.2,4.8,1.2s4.7-0.9,4.8-1.2c0-0.4-1.8-1.2-4.8-1.2S2.8,4.6,2.7,5z"/>
</svg>
