<svg width="24" height="24" viewBox="0 0 24 24" xmlns="http://www.w3.org/2000/svg">
<path d="M19,22c-0.6,0-1-0.4-1-1v-2h-2c-0.6,0-1-0.4-1-1s0.4-1,1-1h2v-2c0-0.6,0.4-1,1-1s1,0.4,1,1v2h2c0.6,0,1,0.4,1,1s-0.4,1-1,1
	h-2v2C20,21.6,19.6,22,19,22z M12,20H5.2c-1.2,0-1.9,0-2.6-0.3c-0.6-0.3-1-0.7-1.3-1.3C1,17.7,1,17,1,15.8V8.2C1,7,1,6.3,1.3,5.6
	c0.3-0.6,0.7-1,1.3-1.3C3.3,4,4,4,5.2,4h13.6c1.2,0,1.9,0,2.6,0.3c0.6,0.3,1,0.7,1.3,1.3C23,6.3,23,7,23,8.2V12c0,0.6-0.4,1-1,1
	s-1-0.4-1-1v-1H3v4.8c0,0.9,0,1.4,0.1,1.7c0.1,0.2,0.2,0.3,0.4,0.4C3.8,18,4.3,18,5.2,18H12c0.6,0,1,0.4,1,1S12.6,20,12,20z M3,9h18
	V8.2c0-0.9,0-1.4-0.1-1.7c-0.1-0.2-0.2-0.3-0.4-0.4C20.2,6,19.7,6,18.8,6H5.2C4.3,6,3.8,6,3.5,6.1C3.4,6.2,3.2,6.4,3.1,6.5
	C3,6.8,3,7.3,3,8.2V9z"/>
</svg>
