<svg width="24" height="24" viewBox="0 0 24 24" xmlns="http://www.w3.org/2000/svg">
<path d="M18.8,20H5.2c-1.2,0-1.9,0-2.6-0.3c-0.6-0.3-1-0.7-1.3-1.3C1,17.7,1,17,1,15.8V8.2C1,7,1,6.3,1.3,5.6c0.3-0.6,0.7-1,1.3-1.3
	C3.3,4,4,4,5.2,4h13.6c1.2,0,1.9,0,2.6,0.3c0.6,0.3,1,0.7,1.3,1.3C23,6.3,23,7,23,8.2v7.6c0,1.2,0,1.9-0.3,2.6
	c-0.3,0.6-0.7,1-1.3,1.3C20.7,20,20,20,18.8,20z M3,11v4.8c0,0.9,0,1.4,0.1,1.7c0.1,0.2,0.2,0.3,0.4,0.4C3.8,18,4.3,18,5.2,18h13.6
	c0.9,0,1.4,0,1.7-0.1c0.2-0.1,0.3-0.2,0.4-0.4c0.1-0.2,0.1-0.8,0.1-1.7V11H3z M3,9h18V8.2c0-0.9,0-1.4-0.1-1.7
	c-0.1-0.2-0.2-0.3-0.4-0.4C20.2,6,19.7,6,18.8,6H5.2C4.3,6,3.8,6,3.5,6.1C3.4,6.2,3.2,6.4,3.1,6.5C3,6.8,3,7.3,3,8.2V9z M11,15H6
	c-0.6,0-1-0.4-1-1s0.4-1,1-1h5c0.6,0,1,0.4,1,1S11.6,15,11,15z"/>
</svg>
