<svg width="16" height="16" viewBox="0 0 16 16" xmlns="http://www.w3.org/2000/svg">
<path d="M8,15.4c-0.4,0-0.8-0.3-0.8-0.8v-0.6H6.7c-1.9,0-3.4-1.5-3.4-3.4c0-0.4,0.3-0.8,0.8-0.8s0.8,0.3,0.8,0.8
	c0,1.1,0.9,1.9,1.9,1.9h0.6V8.8H6.7c-1.9,0-3.4-1.5-3.4-3.4c0-1.9,1.5-3.4,3.4-3.4h0.6V1.3c0-0.4,0.3-0.8,0.8-0.8s0.8,0.3,0.8,0.8
	v0.6h0.6c1.9,0,3.4,1.5,3.4,3.4c0,0.4-0.3,0.8-0.8,0.8s-0.8-0.3-0.8-0.8c0-1.1-0.9-1.9-1.9-1.9H8.8v3.8h0.6c1.9,0,3.4,1.5,3.4,3.4
	c0,1.9-1.5,3.4-3.4,3.4H8.8v0.6C8.8,15.1,8.4,15.4,8,15.4z M8.8,12.6h0.6c1.1,0,1.9-0.9,1.9-1.9s-0.9-1.9-1.9-1.9H8.8V12.6z
	 M6.7,3.4c-1.1,0-1.9,0.9-1.9,1.9c0,1.1,0.9,1.9,1.9,1.9h0.6V3.4H6.7z"/>
</svg>
