<svg width="24" height="24" viewBox="0 0 24 24" xmlns="http://www.w3.org/2000/svg">
<path d="M16.2,22H7.8C6,22,5,22,4.2,21.6c-0.8-0.4-1.4-1-1.7-1.7C2,19,2,18,2,16.2V15c0-0.6,0.4-1,1-1s1,0.4,1,1v1.2
	c0,1.5,0,2.3,0.2,2.7c0.2,0.4,0.5,0.7,0.9,0.9C5.5,20,6.3,20,7.8,20h8.4c1.5,0,2.3,0,2.7-0.2c0.4-0.2,0.7-0.5,0.9-0.9
	c0.2-0.4,0.2-1.2,0.2-2.7V15c0-0.6,0.4-1,1-1s1,0.4,1,1v1.2c0,1.8,0,2.8-0.4,3.6c-0.4,0.8-1,1.4-1.7,1.7C19,22,18,22,16.2,22z
	 M12,16C12,16,12,16,12,16L12,16c-0.1,0-0.3,0-0.4-0.1c-0.1,0-0.2-0.1-0.3-0.2l-5-5c-0.4-0.4-0.4-1,0-1.4s1-0.4,1.4,0l3.3,3.3V3
	c0-0.6,0.4-1,1-1s1,0.4,1,1v9.6l3.3-3.3c0.4-0.4,1-0.4,1.4,0s0.4,1,0,1.4l-5,5c-0.1,0.1-0.2,0.2-0.3,0.2C12.3,16,12.1,16,12,16
	L12,16C12,16,12,16,12,16z"/>
</svg>
