<svg width="24" height="24" viewBox="0 0 24 24" xmlns="http://www.w3.org/2000/svg">
<path d="M2.5,22.5c-0.3,0-0.5-0.1-0.7-0.3c-0.2-0.2-0.3-0.5-0.3-0.8L1.9,18c0-0.5,0.1-0.7,0.2-1c0.1-0.3,0.2-0.5,0.4-0.7
	c0.2-0.3,0.4-0.4,0.7-0.8L16.3,2.3c1.5-1.5,3.9-1.5,5.4,0c1.5,1.5,1.5,3.9,0,5.4l-3,3c0,0,0,0,0,0s0,0,0,0L8.5,20.9
	c-0.3,0.3-0.5,0.5-0.8,0.7c-0.2,0.1-0.5,0.3-0.7,0.3c-0.3,0.1-0.6,0.1-1,0.2l-3.4,0.4C2.6,22.5,2.5,22.5,2.5,22.5z M14,7.4l-9.5,9.5
	c-0.2,0.2-0.4,0.4-0.4,0.5C4,17.4,4,17.5,4,17.6c0,0.1-0.1,0.3-0.1,0.6l-0.2,2.1l2.1-0.2c0.3,0,0.5-0.1,0.6-0.1
	c0.1,0,0.2-0.1,0.2-0.1c0.1-0.1,0.2-0.2,0.5-0.4l9.5-9.5L14,7.4z M15.4,6L18,8.6l2.3-2.3c0.7-0.7,0.7-1.9,0-2.6s-1.9-0.7-2.6,0
	L15.4,6z"/>
</svg>
