<svg width="24" height="24" viewBox="0 0 24 24" xmlns="http://www.w3.org/2000/svg">
<path d="M2.5,22.5c-0.3,0-0.5-0.1-0.7-0.3c-0.2-0.2-0.3-0.5-0.3-0.8L1.9,18l0,0c0-0.4,0.1-0.7,0.2-1s0.2-0.5,0.4-0.7
	c0.2-0.3,0.4-0.4,0.7-0.8L16.3,2.3c1.5-1.5,3.9-1.5,5.4,0s1.5,3.9,0,5.4L8.5,20.9c-0.3,0.3-0.5,0.5-0.8,0.7
	c-0.2,0.1-0.5,0.3-0.7,0.3C6.7,22,6.4,22,6,22.1L2.5,22.5L2.5,22.5z M3.9,18.2l-0.2,2.1l2.1-0.2c0.3,0,0.5-0.1,0.6-0.1
	s0.2-0.1,0.2-0.1c0.1-0.1,0.2-0.2,0.5-0.4L20.3,6.3c0.7-0.7,0.7-1.9,0-2.6s-1.9-0.7-2.6,0L4.5,16.9c-0.2,0.2-0.4,0.4-0.4,0.5
	C4,17.4,4,17.5,4,17.6S3.9,17.9,3.9,18.2"/>
</svg>
