<svg width="24" height="24" viewBox="0 0 24 24" xmlns="http://www.w3.org/2000/svg">
<path d="M21,22c-0.3,0-0.5-0.1-0.7-0.3l-3.2-3.2c-1.6,1-3.4,1.4-5.1,1.4c-5.6,0-9.1-4.7-10.4-6.8c-0.2-0.3-0.3-0.5-0.4-0.8
	c-0.1-0.3-0.1-0.6,0-0.9c0.1-0.3,0.2-0.5,0.4-0.8c0.6-1,1.8-2.7,3.6-4.1L2.3,3.7c-0.4-0.4-0.4-1,0-1.4s1-0.4,1.4,0l3.6,3.6
	C7.4,6,7.5,6,7.5,6.1l7.3,7.3c0,0,0,0,0,0s0,0,0,0l3,3c0.1,0.1,0.1,0.1,0.2,0.2l3.6,3.6c0.4,0.4,0.4,1,0,1.4
	C21.5,21.9,21.3,22,21,22z M6.6,8C5,9.3,3.8,10.9,3.3,11.8C3.2,11.9,3.2,12,3.1,12c0,0,0.1,0.1,0.1,0.2C4.4,13.9,7.4,18,12,18
	c1.2,0,2.5-0.3,3.7-0.9L14,15.4c-0.6,0.4-1.3,0.6-2,0.6c-2.2,0-4-1.8-4-4c0-0.7,0.2-1.4,0.6-2L6.6,8z M10.1,11.5
	c0,0.2-0.1,0.3-0.1,0.5c0,1.1,0.9,2,2,2c0.2,0,0.4,0,0.5-0.1L10.1,11.5z M20.2,15.6c-0.2,0-0.5-0.1-0.6-0.2c-0.4-0.4-0.5-1-0.1-1.4
	c0.6-0.7,1-1.3,1.3-1.8c0.1-0.1,0.1-0.1,0.1-0.2c0,0-0.1-0.1-0.1-0.2C19.6,10.1,16.6,6,12,6c-0.4,0-0.7,0-1.1,0.1
	c-0.5,0.1-1.1-0.3-1.1-0.8c-0.1-0.5,0.3-1.1,0.8-1.1C11.1,4,11.5,4,12,4c5.6,0,9.1,4.7,10.4,6.8c0.2,0.3,0.3,0.5,0.4,0.8
	c0.1,0.3,0.1,0.6,0,0.9c-0.1,0.3-0.2,0.6-0.4,0.8c-0.3,0.5-0.8,1.2-1.4,2C20.8,15.5,20.5,15.6,20.2,15.6z"/>
</svg>
