<svg width="24" height="24" viewBox="0 0 24 24" xmlns="http://www.w3.org/2000/svg">
	<path d="M22.8,11.6c-0.1-0.3-0.2-0.5-0.4-0.8C21.1,8.7,17.6,4,12,4C6.4,4,2.9,8.7,1.6,10.8c-0.2,0.2-0.3,0.5-0.4,0.8
		c-0.1,0.3-0.1,0.6,0,0.9c0.1,0.3,0.2,0.5,0.4,0.8l0.8-0.5l0.8-0.5C3.2,12.1,3.2,12,3.1,12c0-0.1,0.1-0.1,0.1-0.2
		C4.4,10.1,7.4,6,12,6c4.6,0,7.6,4.1,8.7,5.8c0.1,0.1,0.1,0.1,0.1,0.2c0,0.1-0.1,0.1-0.1,0.2C19.6,13.9,16.6,18,12,18
		c-4.6,0-7.6-4.1-8.7-5.8l-0.8,0.5l-0.8,0.5c0,0,0,0,0,0C2.9,15.3,6.4,20,12,20c5.6,0,9.1-4.7,10.4-6.8c0.2-0.2,0.3-0.5,0.4-0.8
		C22.9,12.2,22.9,11.8,22.8,11.6z"/>
	<path d="M12,16c2.2,0,4-1.8,4-4c0-2.2-1.8-4-4-4s-4,1.8-4,4C8,14.2,9.8,16,12,16z M12,10c1.1,0,2,0.9,2,2c0,1.1-0.9,2-2,2
		c-1.1,0-2-0.9-2-2C10,10.9,10.9,10,12,10z"/>
</svg>
