<svg width="24" height="24" viewBox="0 0 24 24" xmlns="http://www.w3.org/2000/svg">
<path d="M18,23C18,23,18,23,18,23L18,23c-0.1,0-0.3,0-0.4-0.1c-0.1,0-0.2-0.1-0.3-0.2l-3-3c-0.4-0.4-0.4-1,0-1.4s1-0.4,1.4,0
	l1.3,1.3V16c0-0.6,0.4-1,1-1s1,0.4,1,1v3.6l1.3-1.3c0.4-0.4,1-0.4,1.4,0s0.4,1,0,1.4l-3,3c-0.1,0.1-0.2,0.2-0.3,0.2
	C18.3,23,18.1,23,18,23L18,23C18,23,18,23,18,23z M12.5,23H8.8C7,23,6,23,5.2,22.6c-0.8-0.4-1.4-1-1.7-1.7C3,20,3,19,3,17.2V6.8
	C3,5,3,4,3.4,3.2c0.4-0.8,1-1.4,1.7-1.7C6,1,7,1,8.8,1h6.4C17,1,18,1,18.8,1.4c0.8,0.4,1.4,1,1.7,1.7C21,4,21,5,21,6.8v5.7
	c0,0.6-0.4,1-1,1s-1-0.4-1-1V6.8c0-1.5,0-2.3-0.2-2.7c-0.2-0.4-0.5-0.7-0.9-0.9C17.5,3,16.7,3,15.2,3H8.8C7.3,3,6.5,3,6.1,3.2
	C5.7,3.4,5.4,3.7,5.2,4.1C5,4.5,5,5.3,5,6.8v10.4c0,1.5,0,2.3,0.2,2.7c0.2,0.4,0.5,0.7,0.9,0.9C6.5,21,7.3,21,8.8,21h3.7
	c0.6,0,1,0.4,1,1S13.1,23,12.5,23z M10,16H8c-0.6,0-1-0.4-1-1s0.4-1,1-1h2c0.6,0,1,0.4,1,1S10.6,16,10,16z M14,12H8
	c-0.6,0-1-0.4-1-1s0.4-1,1-1h6c0.6,0,1,0.4,1,1S14.6,12,14,12z M16,8H8C7.4,8,7,7.6,7,7s0.4-1,1-1h8c0.6,0,1,0.4,1,1S16.6,8,16,8z"
	/>
</svg>
