<svg width="24" height="24" viewBox="0 0 24 24" xmlns="http://www.w3.org/2000/svg">
<path d="M15.2,22.8H8.8c-1.8,0-2.7,0-3.5-0.4C4.6,22,4,21.4,3.7,20.7c-0.4-0.8-0.4-1.7-0.4-3.5V6.8c0-1.8,0-2.7,0.4-3.5
	C4,2.6,4.6,2,5.3,1.7C6.1,1.2,7,1.2,8.8,1.2H14c0.2,0,0.4,0.1,0.5,0.2l6,6c0.1,0.1,0.2,0.3,0.2,0.5v9.2c0,1.8,0,2.7-0.4,3.5
	c-0.4,0.7-0.9,1.3-1.6,1.6C17.9,22.8,17,22.8,15.2,22.8z M8.8,2.8C7.2,2.8,6.5,2.8,6,3C5.6,3.2,5.2,3.6,5,4C4.8,4.5,4.8,5.2,4.8,6.8
	v10.4c0,1.6,0,2.3,0.2,2.8c0.2,0.4,0.6,0.8,1,1c0.5,0.2,1.3,0.2,2.8,0.2h6.4c1.6,0,2.3,0,2.8-0.2c0.4-0.2,0.8-0.6,1-1
	c0.2-0.5,0.2-1.3,0.2-2.8V8.8h-3.7c-0.6,0-1,0-1.4-0.2c-0.3-0.2-0.6-0.4-0.8-0.8c-0.2-0.4-0.2-0.8-0.2-1.4V2.8H8.8z M14.8,3.8v2.6
	c0,0.3,0,0.6,0,0.7c0,0,0.1,0.1,0.1,0.1c0.1,0,0.4,0,0.7,0h2.6L14.8,3.8z M16,17.8H8c-0.4,0-0.8-0.3-0.8-0.8s0.3-0.8,0.8-0.8h8
	c0.4,0,0.8,0.3,0.8,0.8S16.4,17.8,16,17.8z M16,13.8H8c-0.4,0-0.8-0.3-0.8-0.8s0.3-0.8,0.8-0.8h8c0.4,0,0.8,0.3,0.8,0.8
	S16.4,13.8,16,13.8z M10,9.8H8C7.6,9.8,7.2,9.4,7.2,9S7.6,8.2,8,8.2h2c0.4,0,0.8,0.3,0.8,0.8S10.4,9.8,10,9.8z"/>
</svg>
