<svg width="24" height="24" viewBox="0 0 24 24" xmlns="http://www.w3.org/2000/svg">
<path d="M10,21.8c-0.1,0-0.2,0-0.3,0c-0.4-0.1-0.7-0.3-0.9-0.6c-0.3-0.4-0.3-0.8-0.3-1.3v-6.7c0-0.1,0-0.2,0-0.3
	c0,0-0.1-0.1-0.1-0.1L2.6,6.3c-0.9-1-1.4-1.5-1.4-2.3c0-0.6,0.2-1.2,0.7-1.6C2.5,2,3.2,2,4.6,2c0,0,0,0,0,0h14.8
	c1.4,0,2.1,0,2.6,0.5c0.5,0.4,0.7,1,0.7,1.6c0,0.7-0.5,1.2-1.4,2.3l-5.7,6.4c-0.1,0.1-0.1,0.1-0.2,0.2c0,0,0,0.1,0,0.2v5.3
	c0,0.3,0,0.5-0.1,0.7c-0.1,0.2-0.2,0.4-0.4,0.6c-0.2,0.2-0.4,0.3-0.6,0.4L11,21.5C10.6,21.6,10.3,21.8,10,21.8z M10.5,20.2
	L10.5,20.2L10.5,20.2z M3.3,4c0.2,0.2,0.5,0.6,0.8,1l0,0l5.7,6.4c0.2,0.2,0.3,0.3,0.4,0.5c0.1,0.2,0.2,0.3,0.2,0.5
	c0,0.2,0,0.4,0,0.7v6.4l3-1.2v-5.2c0-0.3,0-0.4,0-0.7c0-0.2,0.1-0.4,0.2-0.5c0.1-0.2,0.2-0.3,0.4-0.5L19.9,5c0.3-0.4,0.7-0.7,0.8-1
	c-0.3,0-0.8,0-1.3,0H4.6C4.1,4,3.6,4,3.3,4z M3.1,4.1L3.1,4.1L3.1,4.1z M20.9,4.1L20.9,4.1C20.9,4.1,20.9,4.1,20.9,4.1z M3.2,3.9
	L3.2,3.9L3.2,3.9z M20.8,3.9L20.8,3.9L20.8,3.9z"/>
</svg>
