<svg width="24" height="24" viewBox="0 0 24 24" xmlns="http://www.w3.org/2000/svg">
<path d="M7.2,22.5c-0.4,0-0.9-0.3-1-0.8L2,4.9c0,0,0,0,0,0C1.8,4,1.7,3.5,1.9,2.9C2,2.5,2.3,2.1,2.8,1.8
	c0.5-0.3,1-0.3,1.9-0.3h7.8c0.7,0,1.1,0,1.6,0.2c0.4,0.2,0.7,0.5,0.9,0.9c0.2,0.4,0.2,0.9,0.2,1.6v1.5h5c0.6,0,1,0,1.4,0.3
	c0.4,0.3,0.6,0.6,0.6,1.1c0.1,0.5-0.2,0.9-0.4,1.4l-1.4,2.5l1.4,2.5c0.3,0.5,0.5,0.9,0.4,1.4c-0.1,0.4-0.3,0.8-0.6,1.1
	c-0.4,0.3-0.8,0.3-1.4,0.3h-7.4c-0.7,0-1.1,0-1.6-0.2c-0.4-0.2-0.7-0.5-0.9-0.9c-0.2-0.4-0.2-0.9-0.2-1.6v-1.5H5.9l2.3,9.3
	c0.1,0.5-0.2,1.1-0.7,1.2C7.4,22.5,7.3,22.5,7.2,22.5z M11.9,11.9v1.5c0,0.3,0,0.6,0,0.7c0.1,0,0.4,0,0.7,0h7.2l-1.3-2.3
	c-0.1-0.2-0.2-0.4-0.2-0.6c0-0.2,0-0.4,0-0.6c0-0.2,0.1-0.4,0.2-0.6l1.3-2.3h-4.7v1.5c0,0.7,0,1.1-0.2,1.6c-0.2,0.4-0.5,0.7-0.9,0.9
	c-0.4,0.2-0.9,0.2-1.6,0.2H11.9z M5.4,9.9h7c0.3,0,0.6,0,0.7,0c0-0.1,0-0.4,0-0.7V4.2c0-0.3,0-0.6,0-0.7c-0.1,0-0.4,0-0.7,0H4.6
	c-0.4,0-0.8,0-0.9,0C3.8,3.6,3.9,4,4,4.4L5.4,9.9z"/>
</svg>
