<svg width="24" height="24" viewBox="0 0 24 24" xmlns="http://www.w3.org/2000/svg">
<path d="M10.5,21.5c0,0-0.1,0-0.1,0c-0.4-0.1-0.7-0.5-0.6-0.9l0.1-0.8c-0.4-0.1-0.9-0.3-1.3-0.5l-0.4,0.7
	c-0.2,0.4-0.7,0.5-1,0.3c-0.4-0.2-0.5-0.7-0.3-1l0.4-0.7c-0.4-0.3-0.7-0.6-1-0.9l-0.6,0.5c-0.3,0.3-0.8,0.2-1-0.1
	c-0.3-0.3-0.2-0.8,0.1-1l0.6-0.5c-0.3-0.4-0.5-0.8-0.7-1.2l-0.7,0.3c-0.4,0.1-0.8-0.1-1-0.4c-0.1-0.4,0.1-0.8,0.4-1l0.7-0.3
	c-0.1-0.4-0.2-0.9-0.2-1.3H3.1c-0.4,0-0.7-0.3-0.7-0.7c0-0.4,0.3-0.7,0.7-0.7h0.8c0-0.5,0.1-0.9,0.2-1.3L3.4,9.6
	C3,9.5,2.8,9.1,2.9,8.7c0.1-0.4,0.6-0.6,1-0.4l0.7,0.3C4.8,8.1,5,7.7,5.3,7.3L4.7,6.8c-0.3-0.3-0.4-0.7-0.1-1c0.3-0.3,0.7-0.4,1-0.1
	l0.6,0.5c0.3-0.3,0.7-0.6,1-0.9L6.9,4.6c-0.2-0.4-0.1-0.8,0.3-1c0.4-0.2,0.8-0.1,1,0.3l0.4,0.7C9,4.4,9.4,4.2,9.9,4.1L9.7,3.3
	c-0.1-0.4,0.2-0.8,0.6-0.9c0.4-0.1,0.8,0.2,0.9,0.6l0.1,0.8c0.5,0,0.9,0,1.4,0l0.1-0.8c0.1-0.4,0.5-0.7,0.9-0.6
	c0.4,0.1,0.7,0.5,0.6,0.9l-0.1,0.8c0.4,0.1,0.9,0.3,1.3,0.5l0.4-0.7c0.2-0.4,0.7-0.5,1-0.3c0.4,0.2,0.5,0.7,0.3,1l-0.4,0.7
	c0.4,0.3,0.7,0.6,1,0.9l0.6-0.5c0.3-0.3,0.8-0.2,1,0.1c0.3,0.3,0.2,0.8-0.1,1l-0.6,0.5c0.3,0.4,0.5,0.8,0.7,1.2l0.7-0.3
	c0.4-0.1,0.8,0.1,1,0.4c0.1,0.4-0.1,0.8-0.4,1l-0.7,0.3c0.1,0.4,0.2,0.9,0.2,1.3h0.8c0.4,0,0.7,0.3,0.7,0.7c0,0.4-0.3,0.7-0.7,0.7
	h-0.8c0,0.5-0.1,0.9-0.2,1.3l0.7,0.3c0.4,0.1,0.6,0.6,0.4,1c-0.1,0.4-0.6,0.6-1,0.4l-0.7-0.3c-0.2,0.4-0.4,0.8-0.7,1.2l0.6,0.5
	c0.3,0.3,0.4,0.7,0.1,1c-0.3,0.3-0.7,0.4-1,0.1l-0.6-0.5c-0.3,0.3-0.7,0.6-1,0.9l0.4,0.7c0.2,0.4,0.1,0.8-0.3,1
	c-0.4,0.2-0.8,0.1-1-0.3l-0.4-0.7c-0.4,0.2-0.8,0.3-1.3,0.5l0.1,0.8c0.1,0.4-0.2,0.8-0.6,0.9c-0.4,0.1-0.8-0.2-0.9-0.6l-0.1-0.8
	c-0.5,0-0.9,0-1.4,0l-0.1,0.8C11.1,21.3,10.8,21.5,10.5,21.5z M10.9,18.6c0.7,0.1,1.5,0.1,2.2,0c0,0,0,0,0,0c0,0,0,0,0,0
	c0.7-0.1,1.4-0.4,2.1-0.8c0,0,0,0,0.1,0c0,0,0,0,0.1,0c0.5-0.3,0.9-0.6,1.3-1c0.1-0.1,0.3-0.3,0.4-0.4c0,0,0,0,0,0c0,0,0,0,0,0
	c0.5-0.6,0.9-1.2,1.1-1.9c0,0,0,0,0-0.1c0,0,0,0,0-0.1c0.2-0.5,0.3-1,0.3-1.5h-6.2l-3.1,5.4C9.8,18.3,10.3,18.5,10.9,18.6
	C10.8,18.6,10.8,18.6,10.9,18.6C10.9,18.6,10.9,18.6,10.9,18.6z M6.9,16.3c0.1,0.1,0.2,0.3,0.4,0.4C7.5,17,7.8,17.2,8,17.4l3.1-5.4
	L8,6.6C7.8,6.8,7.5,7,7.3,7.3C7.1,7.4,7,7.5,6.9,7.7c0,0,0,0,0,0c0,0,0,0,0,0C6.4,8.3,6,8.9,5.7,9.6c0,0,0,0.1,0,0.1
	c0,0,0,0.1,0,0.1c-0.2,0.7-0.4,1.4-0.4,2.2c0,0.8,0.1,1.5,0.4,2.2c0,0,0,0,0,0.1c0,0,0,0.1,0,0.1C6,15,6.4,15.7,6.9,16.3
	C6.9,16.3,6.9,16.3,6.9,16.3C6.9,16.3,6.9,16.3,6.9,16.3z M12.4,11.3h6.2c-0.1-0.5-0.2-1-0.3-1.5c0,0,0,0,0-0.1c0,0,0,0,0-0.1
	c-0.3-0.7-0.6-1.4-1.1-1.9c0,0,0,0,0,0c0,0,0,0,0,0c-0.1-0.1-0.3-0.3-0.4-0.4c-0.4-0.4-0.9-0.8-1.3-1c0,0,0,0-0.1,0c0,0,0,0-0.1,0
	c-0.6-0.4-1.3-0.6-2.1-0.8c0,0,0,0,0,0c0,0,0,0,0,0c-0.7-0.1-1.5-0.1-2.2,0c0,0,0,0,0,0c0,0,0,0-0.1,0c-0.5,0.1-1,0.2-1.5,0.4
	L12.4,11.3z"/>
</svg>
