<svg width="20" height="20" viewBox="0 0 20 20" xmlns="http://www.w3.org/2000/svg">
<path d="M7,9H3.8C3.3,9,3,9,2.7,8.8C2.4,8.7,2.2,8.5,2,8.2C1.9,7.9,1.9,7.5,1.9,7V3.8c0-0.5,0-0.9,0.2-1.2
	C2.2,2.4,2.4,2.2,2.7,2C3,1.9,3.3,1.9,3.8,1.9H7c0.5,0,0.9,0,1.2,0.2c0.3,0.1,0.5,0.4,0.6,0.6C9,3,9,3.3,9,3.8V7
	c0,0.5,0,0.9-0.2,1.2C8.7,8.5,8.5,8.7,8.2,8.8C7.9,9,7.5,9,7,9z M3.8,3.1c-0.3,0-0.5,0-0.6,0c0,0-0.1,0-0.1,0.1c0,0.1,0,0.3,0,0.6V7
	c0,0.3,0,0.5,0,0.6c0,0,0,0.1,0.1,0.1c0.1,0,0.3,0,0.6,0H7c0.3,0,0.5,0,0.6,0c0,0,0.1,0,0.1-0.1c0-0.1,0-0.3,0-0.6V3.8
	c0-0.3,0-0.5,0-0.6c0,0,0-0.1-0.1-0.1c-0.1,0-0.3,0-0.6,0H3.8z"/>
<path d="M16.2,9H13c-0.5,0-0.9,0-1.2-0.2c-0.3-0.1-0.5-0.4-0.6-0.6C11,7.9,11,7.5,11,7V3.8c0-0.5,0-0.9,0.2-1.2
	c0.1-0.3,0.4-0.5,0.6-0.6c0.3-0.2,0.6-0.2,1.2-0.2h3.2c0.5,0,0.9,0,1.2,0.2c0.3,0.1,0.5,0.4,0.6,0.6c0.2,0.3,0.2,0.6,0.2,1.2V7
	c0,0.5,0,0.9-0.2,1.2c-0.1,0.3-0.4,0.5-0.6,0.6C17,9,16.7,9,16.2,9z M13,3.1c-0.3,0-0.5,0-0.6,0c0,0-0.1,0-0.1,0.1
	c0,0.1,0,0.3,0,0.6V7c0,0.3,0,0.5,0,0.6c0,0,0,0.1,0.1,0.1c0.1,0,0.3,0,0.6,0h3.2c0.3,0,0.5,0,0.6,0c0,0,0.1,0,0.1-0.1
	c0-0.1,0-0.3,0-0.6V3.8c0-0.3,0-0.5,0-0.6c0,0,0-0.1-0.1-0.1c-0.1,0-0.3,0-0.6,0H13z"/>
<path d="M16.2,18.2H13c-0.5,0-0.9,0-1.2-0.2c-0.3-0.1-0.5-0.4-0.6-0.7C11,17,11,16.7,11,16.2V13c0-0.5,0-0.9,0.2-1.2
	c0.1-0.3,0.4-0.5,0.7-0.6C12.1,11,12.5,11,13,11h3.2c0.5,0,0.9,0,1.2,0.2c0.3,0.1,0.5,0.4,0.6,0.6c0.2,0.3,0.2,0.6,0.2,1.2v3.2
	c0,0.5,0,0.9-0.2,1.2c-0.1,0.3-0.4,0.5-0.6,0.6C17,18.2,16.7,18.2,16.2,18.2z M13,12.3c-0.3,0-0.5,0-0.6,0c0,0-0.1,0-0.1,0.1
	c0,0.1,0,0.3,0,0.6v3.2c0,0.3,0,0.5,0,0.6c0,0,0,0.1,0.1,0.1c0.1,0,0.3,0,0.6,0h3.2c0.3,0,0.5,0,0.6,0c0,0,0.1,0,0.1-0.1
	c0-0.1,0-0.3,0-0.6V13c0-0.3,0-0.5,0-0.6c0,0,0-0.1-0.1-0.1c-0.1,0-0.3,0-0.6,0H13z"/>
<path d="M7,18.2H3.8c-0.5,0-0.9,0-1.2-0.2c-0.3-0.1-0.5-0.4-0.6-0.6c-0.2-0.3-0.2-0.6-0.2-1.2V13c0-0.5,0-0.9,0.2-1.2
	c0.1-0.3,0.4-0.5,0.6-0.6C3,11,3.3,11,3.8,11H7c0.5,0,0.9,0,1.2,0.2c0.3,0.1,0.5,0.4,0.6,0.6C9,12.1,9,12.5,9,13v3.2
	c0,0.5,0,0.9-0.2,1.2c-0.1,0.3-0.4,0.5-0.6,0.6C7.9,18.2,7.5,18.2,7,18.2z M3.8,12.3c-0.3,0-0.5,0-0.6,0c0,0-0.1,0-0.1,0.1
	c0,0.1,0,0.3,0,0.6v3.2c0,0.3,0,0.5,0,0.6c0,0,0,0.1,0.1,0.1c0.1,0,0.3,0,0.6,0H7c0.3,0,0.5,0,0.6,0c0,0,0.1,0,0.1-0.1
	c0-0.1,0-0.3,0-0.6V13c0-0.3,0-0.5,0-0.6c0,0,0-0.1-0.1-0.1c-0.1,0-0.3,0-0.6,0H3.8z"/>
</svg>
