<svg width="24" height="24" viewBox="0 0 24 24" xmlns="http://www.w3.org/2000/svg">
<path d="M1.8,19.3v-2.2c0-0.5,0.1-1,0.4-1.4c0.3-0.4,0.6-0.7,1.1-1c1-0.4,1.9-0.8,2.9-1.1c1-0.3,2-0.4,3.2-0.4
	c1.2,0,2.2,0.1,3.2,0.4c1,0.3,1.9,0.6,2.9,1.1c0.4,0.2,0.8,0.6,1.1,1c0.3,0.4,0.4,0.9,0.4,1.4v2.2H1.8z M18.8,19.3v-2.4
	c0-0.6-0.2-1.3-0.5-1.9c-0.3-0.6-0.8-1.1-1.4-1.5c0.7,0.1,1.3,0.3,1.9,0.5c0.6,0.2,1.2,0.5,1.7,0.7c0.5,0.3,0.9,0.6,1.2,1
	c0.3,0.4,0.4,0.8,0.4,1.2v2.4H18.8z M9.3,11.7c-1,0-1.8-0.3-2.5-1c-0.7-0.7-1-1.5-1-2.5c0-1,0.3-1.8,1-2.5c0.7-0.7,1.5-1,2.5-1
	c1,0,1.8,0.3,2.5,1c0.7,0.7,1,1.5,1,2.5c0,0.9-0.3,1.8-1,2.5C11.1,11.4,10.3,11.7,9.3,11.7z M17.9,8.2c0,0.9-0.3,1.8-1,2.5
	c-0.7,0.7-1.5,1-2.5,1c-0.1,0-0.2,0-0.4,0c-0.2,0-0.3-0.1-0.4-0.1c0.4-0.5,0.7-1,0.9-1.6c0.2-0.6,0.3-1.2,0.3-1.8
	c0-0.6-0.1-1.2-0.3-1.8c-0.2-0.6-0.5-1.1-0.9-1.6c0.1-0.1,0.3-0.1,0.4-0.1c0.1,0,0.3,0,0.4,0c1,0,1.8,0.3,2.5,1
	C17.6,6.4,17.9,7.2,17.9,8.2z M3.3,17.8h12v-0.7c0-0.2-0.1-0.4-0.2-0.5c-0.1-0.2-0.3-0.3-0.5-0.4c-0.8-0.4-1.7-0.7-2.5-1
	c-0.9-0.2-1.8-0.3-2.8-0.3c-1,0-1.9,0.1-2.8,0.3c-0.9,0.2-1.7,0.5-2.5,1c-0.2,0.1-0.4,0.3-0.5,0.4s-0.2,0.4-0.2,0.5V17.8z M9.3,10.2
	c0.6,0,1-0.2,1.4-0.6c0.4-0.4,0.6-0.9,0.6-1.4c0-0.6-0.2-1-0.6-1.4c-0.4-0.4-0.9-0.6-1.4-0.6c-0.5,0-1,0.2-1.4,0.6
	C7.5,7.2,7.3,7.7,7.3,8.2c0,0.5,0.2,1,0.6,1.4C8.3,10,8.7,10.2,9.3,10.2z"/>
</svg>
