<svg width="24" height="24" viewBox="0 0 24 24" xmlns="http://www.w3.org/2000/svg">
<path d="M12,23C5.9,23,1,18.1,1,12S5.9,1,12,1s11,4.9,11,11S18.1,23,12,23z M12,3c-5,0-9,4-9,9c0,5,4,9,9,9c5,0,9-4,9-9
	C21,7,17,3,12,3z M12,18c-0.6,0-1-0.4-1-1s0.4-1,1-1h0c0.6,0,1,0.4,1,1S12.6,18,12,18z M11.9,14c-0.4,0-0.8-0.3-0.9-0.7
	c-0.2-0.5,0.1-1.1,0.6-1.3c0.6-0.2,2.3-1,2.3-2.1c0-0.5-0.2-0.9-0.5-1.3c-0.3-0.4-0.7-0.6-1.2-0.7c-0.5-0.1-0.9,0-1.4,0.2
	c-0.4,0.2-0.7,0.6-0.9,1.1c-0.2,0.5-0.8,0.8-1.3,0.6C8.2,9.8,8,9.2,8.1,8.7C8.5,7.8,9.1,7,9.9,6.5c0.8-0.5,1.8-0.7,2.7-0.5
	c0.9,0.2,1.8,0.6,2.4,1.4c0.6,0.7,0.9,1.6,0.9,2.6c0,2.6-3.3,3.8-3.7,3.9C12.1,14,12,14,11.9,14z"/>
</svg>
