<svg width="24" height="24" viewBox="0 0 24 24" xmlns="http://www.w3.org/2000/svg">
<path d="M14.2,22H7.8C6,22,5,22,4.2,21.6c-0.8-0.4-1.4-1-1.7-1.7C2,19,2,18,2,16.2V9.8C2,8,2,7,2.4,6.2c0.4-0.8,1-1.4,1.7-1.7
	C5,4,6,4,7.8,4H10c0.6,0,1,0.4,1,1s-0.4,1-1,1H7.8C6.3,6,5.5,6,5.1,6.2C4.7,6.4,4.4,6.7,4.2,7.1C4,7.5,4,8.3,4,9.8v6.4
	c0,1.5,0,2.3,0.2,2.7c0.2,0.4,0.5,0.7,0.9,0.9C5.5,20,6.3,20,7.8,20h6.4c1.5,0,2.3,0,2.7-0.2c0.4-0.2,0.7-0.5,0.9-0.9
	c0.2-0.4,0.2-1.2,0.2-2.7V14c0-0.6,0.4-1,1-1s1,0.4,1,1v2.2c0,1.8,0,2.8-0.4,3.6c-0.4,0.8-1,1.4-1.7,1.7C17,22,16,22,14.2,22z
	 M13,12c-0.3,0-0.5-0.1-0.7-0.3c-0.4-0.4-0.4-1,0-1.4L18.6,4H15c-0.6,0-1-0.4-1-1s0.4-1,1-1h6c0,0,0,0,0,0l0,0c0.1,0,0.3,0,0.4,0.1
	c0.1,0,0.2,0.1,0.3,0.2s0.2,0.2,0.2,0.3C22,2.7,22,2.9,22,3l0,0c0,0,0,0,0,0v6c0,0.6-0.4,1-1,1s-1-0.4-1-1V5.4l-6.3,6.3
	C13.5,11.9,13.3,12,13,12z"/>
</svg>
