<svg width="24" height="24" viewBox="0 0 24 24" xmlns="http://www.w3.org/2000/svg">
<path d="M7.1,22.9C7,22.9,7,22.9,7.1,22.9c-1.6,0-3.1-0.6-4.2-1.8c-1.1-1.1-1.7-2.6-1.8-4.2c0-1.6,0.6-3.1,1.7-4.2l3-3
	c0.6-0.6,1.3-1.1,2.1-1.4C8.7,8.1,9.6,7.9,10.4,8c0.9,0.1,1.7,0.3,2.4,0.7c0.8,0.4,1.4,1,1.9,1.7c0.3,0.4,0.2,1.1-0.2,1.4
	c-0.4,0.3-1.1,0.2-1.4-0.2c-0.3-0.5-0.8-0.8-1.3-1.1c-0.5-0.3-1.1-0.4-1.6-0.5c-0.6,0-1.1,0-1.7,0.2c-0.5,0.2-1,0.5-1.4,0.9l-3,3
	C3.4,14.9,3,15.9,3.1,17c0,1.1,0.4,2,1.2,2.8C5,20.5,6,20.9,7,20.9c1.1,0,2.1-0.4,2.8-1.1l1.7-1.7c0.4-0.4,1-0.4,1.4,0s0.4,1,0,1.4
	l-1.7,1.7C10.1,22.3,8.6,22.9,7.1,22.9z M14,16c-0.1,0-0.3,0-0.4,0c-0.8-0.1-1.7-0.3-2.4-0.7c-0.8-0.4-1.4-1-1.9-1.7
	c-0.3-0.4-0.2-1.1,0.2-1.4c0.4-0.3,1.1-0.2,1.4,0.2c0.3,0.5,0.8,0.8,1.3,1.1c0.5,0.3,1.1,0.4,1.6,0.5c0.6,0,1.2,0,1.7-0.2
	c0.5-0.2,1-0.5,1.4-0.9l3-3C20.6,9.1,21,8.1,20.9,7s-0.4-2-1.2-2.8C19,3.5,18,3.1,17,3.1c-1,0-2.1,0.4-2.8,1.1l-1.7,1.7
	c-0.4,0.4-1,0.4-1.4,0c-0.4-0.4-0.4-1,0-1.4l1.7-1.7C13.9,1.7,15.4,1,17,1.1c1.6,0,3.1,0.6,4.2,1.8c1.1,1.1,1.7,2.6,1.8,4.2
	c0,1.6-0.6,3.1-1.7,4.2l-3,3c-0.6,0.6-1.3,1.1-2.1,1.4C15.4,15.9,14.7,16,14,16z"/>
</svg>
