<svg width="24" height="24" viewBox="0 0 24 24" xmlns="http://www.w3.org/2000/svg">
<path d="M15.2,22H8.8C7,22,6,22,5.2,21.6c-0.8-0.4-1.4-1-1.7-1.7C3,19,3,18,3,16.2v-0.4C3,14,3,13,3.4,12.2c0.4-0.8,1-1.4,1.7-1.7
	c0.3-0.1,0.5-0.2,0.8-0.3V8c0-3.3,2.7-6,6-6s6,2.7,6,6v2.1c0.3,0.1,0.6,0.2,0.8,0.3c0.8,0.4,1.4,1,1.7,1.7C21,13,21,14,21,15.8v0.4
	c0,1.8,0,2.8-0.4,3.6c-0.4,0.8-1,1.4-1.7,1.7C18,22,17,22,15.2,22z M8.8,12c-1.5,0-2.3,0-2.7,0.2c-0.4,0.2-0.7,0.5-0.9,0.9
	C5,13.5,5,14.3,5,15.8v0.4c0,1.5,0,2.3,0.2,2.7c0.2,0.4,0.5,0.7,0.9,0.9C6.5,20,7.3,20,8.8,20h6.4c1.5,0,2.3,0,2.7-0.2
	c0.4-0.2,0.7-0.5,0.9-0.9c0.2-0.4,0.2-1.2,0.2-2.7v-0.4c0-1.5,0-2.3-0.2-2.7c-0.2-0.4-0.5-0.7-0.9-0.9C17.5,12,16.7,12,15.2,12H8.8z
	 M8.8,10h6.4c0.3,0,0.6,0,0.8,0V8c0-2.2-1.8-4-4-4C9.8,4,8,5.8,8,8v2C8.2,10,8.5,10,8.8,10z"/>
</svg>
