<svg width="24" height="24" viewBox="0 0 24 24" xmlns="http://www.w3.org/2000/svg">
<path d="M12,22.8C6,22.8,1.2,18,1.2,12S6,1.2,12,1.2C18,1.2,22.8,6,22.8,12S18,22.8,12,22.8z M12,3c-5,0-9,4-9,9
	s4,9,9,9c5,0,9-4,9-9S17,3,12,3z"/>
<path d="M13.9,17.8h-3.7c-0.5,0-0.8,0-1.2-0.2c-0.3-0.2-0.5-0.5-0.6-0.8c-0.1-0.4,0-0.7,0.2-1.2l0.9-2.7
	c0,0,0,0-0.1-0.1c-0.8-0.7-1.2-1.8-1.2-2.8c0-2.1,1.7-3.9,3.9-3.9c2.1,0,3.9,1.7,3.9,3.9c0,1.1-0.4,2.1-1.2,2.8c0,0,0,0-0.1,0.1
	l0.9,2.7c0.2,0.5,0.3,0.8,0.2,1.2c-0.1,0.3-0.3,0.6-0.6,0.8C14.7,17.8,14.3,17.8,13.9,17.8z M13.9,16.5L13.9,16.5L13.9,16.5z
	 M10.3,16.1h3.5l-0.9-2.6c0,0,0,0,0,0c-0.1-0.3-0.2-0.5-0.1-0.7c0-0.2,0.1-0.4,0.2-0.6c0.1-0.2,0.3-0.4,0.5-0.6
	c0.4-0.4,0.7-0.9,0.7-1.5c0-1.1-0.9-2.1-2.1-2.1S9.9,8.9,9.9,10c0,0.6,0.2,1.1,0.7,1.5c0.3,0.3,0.4,0.4,0.5,0.6
	c0.1,0.2,0.2,0.4,0.2,0.6c0,0.2-0.1,0.4-0.1,0.7L10.3,16.1z"/>
</svg>
