<svg width="24" height="24" viewBox="0 0 24 24" xmlns="http://www.w3.org/2000/svg">
<path d="M18.1,22.5c-0.7,0-1.5-0.1-2.6-0.3l-6.6-0.9c-0.4-0.1-0.6-0.1-0.8-0.1c-1.6-0.4-2.9-1.8-3-3.5c0-0.2,0-0.4,0-0.8
	c0-0.6,0.4-1,1-1s1,0.4,1,1c0,0.3,0,0.4,0,0.6c0.1,0.8,0.7,1.5,1.5,1.7c0.1,0,0.3,0,0.5,0.1l6.6,0.9c1.6,0.2,2.6,0.3,3,0.1
	c0.4-0.2,0.8-0.5,1-0.9c0.3-0.5,0.3-1.4,0.3-3v-9c0-1.7,0-2.6-0.3-3c-0.2-0.4-0.6-0.7-1-0.9c-0.5-0.2-1.4-0.1-3,0.1L9.1,4.6
	c-0.3,0-0.4,0.1-0.6,0.1C7.7,4.9,7.1,5.6,7,6.4C7,6.6,7,6.7,7,7c0,0.6-0.4,1-1,1S5,7.6,5,7c0-0.4,0-0.6,0-0.8c0.2-1.7,1.4-3.1,3-3.5
	c0.2,0,0.4-0.1,0.8-0.1l6.6-0.9c2-0.3,3.1-0.4,4,0c0.8,0.3,1.6,1,2,1.8C22,4.4,22,5.4,22,7.5v9c0,2.1,0,3.1-0.5,4
	c-0.4,0.8-1.2,1.4-2,1.8C19,22.5,18.6,22.5,18.1,22.5z M12,17c-0.3,0-0.5-0.1-0.7-0.3c-0.4-0.4-0.4-1,0-1.4l2.3-2.3H3
	c-0.6,0-1-0.4-1-1s0.4-1,1-1h10.6l-2.3-2.3c-0.4-0.4-0.4-1,0-1.4s1-0.4,1.4,0l4,4c0.1,0.1,0.2,0.2,0.2,0.3c0,0.1,0.1,0.2,0.1,0.4
	l0,0c0,0,0,0,0,0l0,0c0,0.1,0,0.3-0.1,0.4c0,0.1-0.1,0.2-0.2,0.3l-4,4C12.5,16.9,12.3,17,12,17z"/>
</svg>
