<svg width="24" height="24" viewBox="0 0 24 24" xmlns="http://www.w3.org/2000/svg">
<path d="M13,23.4H6c-0.9,0-1.8-0.4-2.5-1c-0.7-0.7-1-1.6-1-2.5V4.1c0-0.9,0.4-1.8,1-2.5s1.5-1,2.5-1h7
	c0.9,0,1.8,0.4,2.5,1c0.7,0.7,1,1.5,1,2.5v4.4c0,0.5-0.4,0.9-0.9,0.9S14.7,9,14.7,8.5V4.1c0-0.5-0.2-0.9-0.5-1.2S13.4,2.4,13,2.4H6
	c-0.5,0-0.9,0.2-1.2,0.5C4.5,3.2,4.2,3.7,4.2,4.1v15.8c0,0.5,0.2,0.9,0.5,1.2c0.3,0.3,0.8,0.5,1.2,0.5h7c0.5,0,0.9-0.2,1.2-0.5
	s0.5-0.8,0.5-1.2v-4.4c0-0.5,0.4-0.9,0.9-0.9c0.5,0,0.9,0.4,0.9,0.9v4.4c0,0.9-0.4,1.8-1,2.5C14.8,23.1,13.9,23.4,13,23.4z
	 M19.1,16.4c-0.2,0-0.4-0.1-0.6-0.3c-0.3-0.3-0.3-0.9,0-1.2l2-2H7.7c-0.5,0-0.9-0.4-0.9-0.9s0.4-0.9,0.9-0.9h12.8l-2-2
	c-0.3-0.3-0.3-0.9,0-1.2s0.9-0.3,1.2,0l3.5,3.5l0,0l0,0l0,0l0,0l0,0c0.1,0.1,0.1,0.2,0.2,0.3c0,0.1,0.1,0.2,0.1,0.3l0,0l0,0l0,0l0,0
	l0,0l0,0l0,0l0,0l0,0l0,0c0,0.1,0,0.2-0.1,0.3c0,0.1-0.1,0.2-0.2,0.3l0,0l0,0l0,0l0,0l0,0l-3.5,3.5C19.6,16.3,19.3,16.4,19.1,16.4z"
	/>
</svg>
