<svg width="24" height="24" viewBox="0 0 24 24" xmlns="http://www.w3.org/2000/svg">
<path d="M17.2,21H6.8C5,21,4,21,3.2,20.6c-0.8-0.4-1.4-1-1.7-1.7C1,18,1,17,1,15.2V8.8c0-0.6,0-1.2,0-1.6
	C1,7,1,6.9,1,6.7c0.1-0.6,0.2-1.1,0.4-1.5c0.4-0.8,1-1.4,1.7-1.7C4,3,5,3,6.8,3h10.4C19,3,20,3,20.8,3.4c0.8,0.4,1.4,1,1.7,1.7
	c0.2,0.4,0.3,0.9,0.4,1.5C23,6.9,23,7,23,7.2c0,0.5,0,1,0,1.6v6.4c0,1.8,0,2.8-0.4,3.6c-0.4,0.8-1,1.4-1.7,1.7C20,21,19,21,17.2,21z
	 M3,8.9v6.3c0,1.5,0,2.3,0.2,2.7c0.2,0.4,0.5,0.7,0.9,0.9C4.5,19,5.3,19,6.8,19h10.4c1.5,0,2.3,0,2.7-0.2c0.4-0.2,0.7-0.5,0.9-0.9
	c0.2-0.4,0.2-1.2,0.2-2.7V8.9l-6.6,4.6c-0.7,0.5-1.1,0.8-1.7,0.9c-0.5,0.1-1,0.1-1.4,0c-0.5-0.1-0.9-0.4-1.7-0.9L3,8.9z M3.1,6.5
	l7.7,5.4c0.5,0.4,0.8,0.6,1,0.6c0.2,0,0.3,0,0.5,0c0.2,0,0.5-0.3,1-0.6l7.7-5.4c0-0.2-0.1-0.3-0.1-0.4c-0.2-0.4-0.5-0.7-0.9-0.9
	C19.5,5,18.7,5,17.2,5H6.8C5.3,5,4.5,5,4.1,5.2C3.7,5.4,3.4,5.7,3.2,6.1C3.2,6.2,3.1,6.4,3.1,6.5z"/>
</svg>
