<svg width="24" height="24" viewBox="0 0 24 24" xmlns="http://www.w3.org/2000/svg">
<path d="M12,13.5c-2.2,0-4-1.8-4-4s1.8-4,4-4c2.2,0,4,1.8,4,4S14.2,13.5,12,13.5z M12,7.5c-1.1,0-2,0.9-2,2s0.9,2,2,2
	c1.1,0,2-0.9,2-2S13.1,7.5,12,7.5z"/>
<path d="M12,23c-0.4,0-0.7-0.2-0.9-0.6c-0.7-1.4-1.9-2.6-3.3-3.9C5.6,16.3,3,13.8,3,10c0-5,4-9,9-9c5,0,9,4,9,9
	c0,3.8-2.6,6.3-4.8,8.5c-1.3,1.3-2.6,2.5-3.3,3.9C12.7,22.8,12.4,23,12,23z M12,3c-3.9,0-7,3.1-7,7c0,2.9,2.1,5,4.2,7.1
	c1,1,2,1.9,2.8,3c0.8-1.1,1.8-2.1,2.8-3C16.9,15,19,12.9,19,10C19,6.1,15.9,3,12,3z"/>
</svg>
