<svg width="39" height="39" viewBox="0 0 39 39" xmlns="http://www.w3.org/2000/svg">
<path d="M20.3,33.3c-1.8,0-3.6-0.3-5.3-1c-0.2-0.1-0.3-0.1-0.3-0.1c-0.1,0-0.2,0-0.3,0l-8,0.8c-1,0.1-1.6,0.2-2.2-0.2
	c-0.5-0.3-0.9-0.9-1-1.5c-0.1-0.7,0.2-1.3,0.7-2.1l2.6-4.7c0.1-0.2,0.2-0.4,0.2-0.5c0-0.2-0.1-0.4-0.2-0.7c-0.5-1.5-0.8-3.1-0.8-4.7
	c0-8.1,6.6-14.6,14.6-14.6s14.6,6.6,14.6,14.6C34.9,26.8,28.3,33.3,20.3,33.3z M5.8,31.3L5.8,31.3L5.8,31.3z M14.7,29.6
	C14.7,29.6,14.7,29.6,14.7,29.6c0.3,0,0.4,0,0.6,0.1c0.1,0,0.3,0.1,0.7,0.2c1.4,0.5,2.8,0.8,4.3,0.8c6.6,0,11.9-5.4,11.9-11.9
	S26.9,6.8,20.3,6.8c-6.6,0-11.9,5.4-11.9,11.9c0,1.3,0.2,2.6,0.6,3.8c0.2,0.6,0.3,0.9,0.3,1.3c0,0.3,0,0.6-0.1,0.9
	c-0.1,0.3-0.2,0.6-0.5,1.1l-2.5,4.6l7.8-0.8C14.4,29.6,14.5,29.6,14.7,29.6z M18.7,23.2c-0.4,0-0.7-0.1-0.9-0.4l-3.1-3.1
	c-0.5-0.5-0.5-1.4,0-1.9c0.5-0.5,1.4-0.5,1.9,0l2.2,2.2l6.1-6.1c0.5-0.5,1.4-0.5,1.9,0c0.5,0.5,0.5,1.4,0,1.9l-7,7
	C19.4,23,19.1,23.2,18.7,23.2z"/>
</svg>
