<svg width="24" height="24" viewBox="0 0 24 24" xmlns="http://www.w3.org/2000/svg">
<path d="M16.2,22H7.8C6,22,5,22,4.2,21.6c-0.8-0.4-1.4-1-1.7-1.7C2,19,2,18,2,16.2V7.8C2,6,2,5,2.4,4.2c0.4-0.8,1-1.4,1.7-1.7
	C5,2,6,2,7.8,2h8.4C18,2,19,2,19.8,2.4c0.8,0.4,1.4,1,1.7,1.7C22,5,22,6,22,7.8v8.4c0,1.8,0,2.8-0.4,3.6c-0.4,0.8-1,1.4-1.7,1.7
	C19,22,18,22,16.2,22z M7.8,4C6.3,4,5.5,4,5.1,4.2C4.7,4.4,4.4,4.7,4.2,5.1C4,5.5,4,6.3,4,7.8v8.4c0,1.5,0,2.3,0.2,2.7
	c0.2,0.4,0.5,0.7,0.9,0.9C5.5,20,6.3,20,7.8,20h8.4c1.5,0,2.3,0,2.7-0.2c0.4-0.2,0.7-0.5,0.9-0.9c0.2-0.4,0.2-1.2,0.2-2.7V7.8
	c0-1.5,0-2.3-0.2-2.7c-0.2-0.4-0.5-0.7-0.9-0.9C18.5,4,17.7,4,16.2,4H7.8z M16,13H8c-0.6,0-1-0.4-1-1s0.4-1,1-1h8c0.6,0,1,0.4,1,1
	S16.6,13,16,13z"/>
</svg>
