<svg width="24" height="24" viewBox="0 0 24 24" xmlns="http://www.w3.org/2000/svg">
<path d="M19.4,22h-3.8c-0.7,0-1.1,0-1.5-0.2c-0.4-0.2-0.7-0.5-0.9-0.9C13,20.5,13,20.1,13,19.4v-0.8
	c0-0.7,0-1.1,0.2-1.5c0.2-0.4,0.5-0.7,0.9-0.9c0.2-0.1,0.4-0.2,0.7-0.2v-0.8c0-1.5,1.2-2.8,2.8-2.8s2.8,1.2,2.8,2.8V16
	c0.2,0,0.4,0.1,0.7,0.2c0.4,0.2,0.7,0.5,0.9,0.9c0.2,0.4,0.2,0.9,0.2,1.5v0.8c0,0.7,0,1.1-0.2,1.5c-0.2,0.4-0.5,0.7-0.9,0.9
	C20.5,22,20.1,22,19.4,22z M15.6,18c-0.3,0-0.6,0-0.6,0c0,0,0,0.3,0,0.6v0.8c0,0.3,0,0.6,0,0.6c0,0,0.3,0,0.6,0h3.8
	c0.3,0,0.6,0,0.6,0c0,0,0-0.3,0-0.6v-0.8c0-0.3,0-0.6,0-0.6c0,0-0.3,0-0.6,0H15.6z M16.8,16h1.5v-0.8c0-0.4-0.3-0.8-0.8-0.8
	s-0.8,0.3-0.8,0.8V16z M11,16H5.2c-1.2,0-1.9,0-2.6-0.3c-0.6-0.3-1-0.7-1.3-1.3C1,13.7,1,13,1,11.8V8.2C1,7,1,6.3,1.3,5.6
	c0.3-0.6,0.7-1,1.3-1.3C3.3,4,4,4,5.2,4h13.6c1.2,0,1.9,0,2.6,0.3c0.6,0.3,1,0.7,1.3,1.3C23,6.3,23,7,23,8.2V11c0,0.6-0.4,1-1,1
	s-1-0.4-1-1V8.2c0-0.9,0-1.4-0.1-1.7c-0.1-0.2-0.2-0.3-0.4-0.4C20.2,6,19.7,6,18.8,6H5.2C4.3,6,3.8,6,3.5,6.1
	C3.4,6.2,3.2,6.4,3.1,6.5C3,6.8,3,7.3,3,8.2v3.6c0,0.9,0,1.4,0.1,1.7c0.1,0.2,0.2,0.3,0.4,0.4C3.8,14,4.3,14,5.2,14H11
	c0.6,0,1,0.4,1,1S11.6,16,11,16z M17,11.2c-0.7,0-1.2-0.6-1.2-1.2s0.6-1.2,1.2-1.2s1.2,0.6,1.2,1.2S17.7,11.2,17,11.2z M12,11.2
	c-0.7,0-1.2-0.6-1.2-1.2s0.6-1.2,1.2-1.2s1.2,0.6,1.2,1.2S12.7,11.2,12,11.2z M7,11.2c-0.7,0-1.2-0.6-1.2-1.2S6.3,8.8,7,8.8
	S8.2,9.3,8.2,10S7.7,11.2,7,11.2z"/>
</svg>
