<svg width="24" height="24" viewBox="0 0 24 24" xmlns="http://www.w3.org/2000/svg">
<path d="M17.4,24c-0.2,0-0.4-0.1-0.6-0.2c-0.6-0.4-0.8-1.1-0.5-1.8C18.1,19,19,15.5,19,12c0-3.5-0.9-7-2.7-10.1
	c-0.4-0.6-0.1-1.4,0.5-1.8c0.6-0.4,1.4-0.1,1.8,0.5c2,3.4,3,7.4,3,11.4c0,4-1.1,7.9-3,11.4C18.3,23.8,17.9,24,17.4,24z M12.7,21.6
	c-0.2,0-0.4-0.1-0.6-0.2c-0.6-0.4-0.8-1.1-0.5-1.8c1.4-2.3,2.1-5,2.1-7.7c0-2.7-0.7-5.4-2.1-7.7c-0.4-0.6-0.1-1.4,0.5-1.8
	c0.6-0.4,1.4-0.1,1.8,0.5c1.6,2.7,2.4,5.8,2.4,9c0,3.2-0.8,6.3-2.4,9C13.6,21.4,13.1,21.6,12.7,21.6z M8.2,19.3
	c-0.2,0-0.4-0.1-0.6-0.2C7,18.8,6.7,18,7.1,17.4c0.9-1.7,1.4-3.6,1.4-5.5S8,8.1,7.1,6.4C6.7,5.8,7,5,7.6,4.7C8.2,4.3,9,4.6,9.3,5.2
	c1.2,2,1.8,4.4,1.8,6.7c0,2.4-0.6,4.7-1.8,6.7C9.1,19.1,8.7,19.3,8.2,19.3z M3.7,17.1c-0.2,0-0.5-0.1-0.7-0.2
	c-0.6-0.4-0.8-1.2-0.4-1.8c0.6-0.9,1-2,1-3.1c0-1.1-0.3-2.2-1-3.1C2.2,8.3,2.4,7.5,3,7.1c0.6-0.4,1.4-0.2,1.8,0.4
	c0.9,1.4,1.4,2.9,1.4,4.6c0,1.6-0.5,3.2-1.4,4.6C4.5,16.9,4.1,17.1,3.7,17.1z"/>
</svg>
