<svg width="24" height="24" viewBox="0 0 24 24" xmlns="http://www.w3.org/2000/svg">
<path d="M2.5,22.5c-0.3,0-0.5-0.1-0.7-0.3c-0.1-0.1-0.2-0.2-0.2-0.3c0-0.1-0.1-0.1-0.1-0.2c0,0,0,0,0,0c0,0,0,0,0,0c0,0,0,0,0,0l0,0
	c0-0.2,0-0.4,0.1-0.5l2.1-5.5C3.9,15.2,3.9,15,4,14.8c0.1-0.2,0.2-0.4,0.4-0.6C4.5,14,4.7,13.9,5,13.6L16.3,2.3c1.4-1.4,4-1.4,5.4,0
	c1.5,1.5,1.5,3.9,0,5.4L10.4,19c-0.3,0.3-0.5,0.5-0.6,0.6c-0.2,0.1-0.4,0.3-0.6,0.4c-0.2,0.1-0.4,0.2-0.8,0.3l-5.6,2.1
	C2.7,22.5,2.6,22.5,2.5,22.5z M5.4,16.8l-1.1,3l3-1.1L5.4,16.8z M6.4,15c0.1,0.1,0.1,0.1,0.2,0.2l2.3,2.3c0.1,0.1,0.1,0.1,0.2,0.2
	c0,0,0,0,0,0L20.3,6.3c0.7-0.7,0.7-1.9,0-2.6c-0.7-0.7-1.9-0.7-2.6,0L6.4,15C6.4,15,6.4,15,6.4,15z"/>
</svg>
