<svg width="20" height="20" viewBox="0 0 20 20" xmlns="http://www.w3.org/2000/svg">
<path d="M15.1042 11.4582V8.95817H12.6042V7.70817H15.1042V5.20817H16.3542V7.70817H18.8542V8.95817H16.3542V11.4582H15.1042ZM7.5 9.74984C6.69444 9.74984 6.00694 9.4615 5.4375 8.88484C4.86806 8.30873 4.58333 7.62484 4.58333 6.83317C4.58333 6.02762 4.86806 5.34012 5.4375 4.77067C6.00694 4.20123 6.69444 3.9165 7.5 3.9165C8.30556 3.9165 8.99306 4.20123 9.5625 4.77067C10.1319 5.34012 10.4167 6.02762 10.4167 6.83317C10.4167 7.62484 10.1319 8.30873 9.5625 8.88484C8.99306 9.4615 8.30556 9.74984 7.5 9.74984ZM1.25 16.0832V14.229C1.25 13.8262 1.36111 13.4512 1.58333 13.104C1.80556 12.7568 2.10417 12.4859 2.47917 12.2915C3.29861 11.8887 4.12861 11.5865 4.96917 11.3848C5.80917 11.1837 6.65278 11.0832 7.5 11.0832C8.34722 11.0832 9.19111 11.1837 10.0317 11.3848C10.8717 11.5865 11.7014 11.8887 12.5208 12.2915C12.8958 12.4859 13.1944 12.7568 13.4167 13.104C13.6389 13.4512 13.75 13.8262 13.75 14.229V16.0832H1.25ZM2.5 14.8332H12.5V14.229C12.5 14.0623 12.4514 13.9096 12.3542 13.7707C12.2569 13.6318 12.125 13.5137 11.9583 13.4165C11.2361 13.0693 10.5036 12.8018 9.76083 12.614C9.0175 12.4268 8.26389 12.3332 7.5 12.3332C6.73611 12.3332 5.9825 12.4268 5.23917 12.614C4.49639 12.8018 3.76389 13.0693 3.04167 13.4165C2.875 13.5137 2.74306 13.6318 2.64583 13.7707C2.54861 13.9096 2.5 14.0623 2.5 14.229V14.8332ZM7.5 8.49984C7.95833 8.49984 8.35083 8.3365 8.6775 8.00984C9.00361 7.68373 9.16667 7.2915 9.16667 6.83317C9.16667 6.37484 9.00361 5.98234 8.6775 5.65567C8.35083 5.32956 7.95833 5.1665 7.5 5.1665C7.04167 5.1665 6.64944 5.32956 6.32333 5.65567C5.99667 5.98234 5.83333 6.37484 5.83333 6.83317C5.83333 7.2915 5.99667 7.68373 6.32333 8.00984C6.64944 8.3365 7.04167 8.49984 7.5 8.49984Z"/>
</svg>
