<svg width="24" height="24" viewBox="0 0 24 24" xmlns="http://www.w3.org/2000/svg">
<path d="M12,22.5L12,22.5L12,22.5c-0.1,0-0.1,0-0.2,0c-0.1,0-0.1,0-0.2-0.1c0,0,0,0,0,0l-9-5.2
	c-0.2-0.1-0.4-0.4-0.4-0.6v-9c0,0,0,0,0,0c0-0.1,0-0.1,0-0.2v0v0c0-0.1,0-0.1,0.1-0.2C2.4,7.1,2.4,7,2.5,7c0,0,0.1-0.1,0.2-0.1
	c0,0,0,0,0,0l9-5.2c0.2-0.1,0.5-0.1,0.8,0l9,5.2c0,0,0,0,0,0c0.1,0,0.1,0.1,0.2,0.1c0,0,0.1,0.1,0.1,0.2c0,0.1,0.1,0.1,0.1,0.2
	c0,0,0,0,0,0v0c0,0.1,0,0.1,0,0.2c0,0,0,0,0,0v9c0,0.3-0.1,0.5-0.4,0.6l-9,5.2c0,0,0,0,0,0c-0.1,0-0.1,0.1-0.2,0.1
	C12.1,22.5,12.1,22.5,12,22.5z M12.8,13.2v7.3l7.5-4.4V8.8L12.8,13.2z M3.8,16.1l7.5,4.4v-7.3L3.8,8.8V16.1z M4.5,7.5l7.5,4.4
	l7.5-4.4L12,3.1L4.5,7.5z"/>
</svg>
