<svg width="24" height="24" viewBox="0 0 24 24" xmlns="http://www.w3.org/2000/svg">
<path d="M17,22c-0.3,0-0.5,0-0.8,0H7.8c-0.3,0-0.5,0-0.8,0c0,0,0,0-0.1,0c-1.3,0-2-0.1-2.7-0.4c-0.8-0.4-1.4-1-1.7-1.7
	C2,19,2,18,2,16.2V7.8C2,6,2,5,2.4,4.2c0.4-0.8,1-1.4,1.7-1.7C4.9,2.1,5.6,2,6.9,2C7,2,7,2,7.1,2c0.2,0,0.5,0,0.7,0h6.9
	c0.5,0,0.9,0,1.2,0.1c0.3,0.1,0.6,0.2,0.9,0.4c0.3,0.2,0.5,0.4,0.9,0.8l3.1,3.1c0.4,0.4,0.6,0.6,0.8,0.9c0.2,0.3,0.3,0.6,0.4,0.9
	C22,8.5,22,8.8,22,9.3v6.9c0,1.8,0,2.8-0.4,3.6c-0.4,0.8-1,1.4-1.7,1.7C19.1,21.9,18.4,22,17,22C17,22,17,22,17,22z M8,20h8v-5.4
	c0-0.3,0-0.6,0-0.6c0,0-0.3,0-0.6,0H8.6C8.3,14,8,14,8,14c0,0,0,0.3,0,0.6V20z M8.6,12h6.8c0.7,0,1.1,0,1.5,0.2
	c0.4,0.2,0.7,0.5,0.9,0.9c0.2,0.4,0.2,0.9,0.2,1.5V20c0.4,0,0.7-0.1,0.9-0.2c0.4-0.2,0.7-0.5,0.9-0.9c0.2-0.4,0.2-1.2,0.2-2.7V9.3
	c0-0.4,0-0.6,0-0.7c0-0.1-0.1-0.2-0.1-0.3c-0.1-0.1-0.2-0.3-0.5-0.5L18,6.4c0,0.6,0,1.1-0.2,1.5c-0.2,0.4-0.5,0.7-0.9,0.9
	C16.5,9,16.1,9,15.4,9H8.6C7.9,9,7.5,9,7.1,8.8C6.7,8.6,6.4,8.3,6.2,7.9C6,7.5,6,7.1,6,6.4V4c-0.4,0-0.7,0.1-0.9,0.2
	C4.7,4.4,4.4,4.7,4.2,5.1C4,5.5,4,6.3,4,7.8v8.4c0,1.5,0,2.3,0.2,2.7c0.2,0.4,0.5,0.7,0.9,0.9C5.3,19.9,5.6,19.9,6,20v-5.4
	c0-0.7,0-1.1,0.2-1.5c0.2-0.4,0.5-0.7,0.9-0.9C7.5,12,7.9,12,8.6,12z M8,4v2.4C8,6.7,8,7,8,7c0,0,0.3,0,0.6,0h6.8C15.7,7,16,7,16,7
	c0,0,0-0.3,0-0.6v-2c-0.1-0.1-0.2-0.2-0.3-0.3c-0.1-0.1-0.2-0.1-0.3-0.1c-0.1,0-0.3,0-0.7,0H8z"/>
</svg>
