<svg width="24" height="24" viewBox="0 0 24 24" xmlns="http://www.w3.org/2000/svg">
<path d="M12,16c-2.2,0-4-1.8-4-4c0-2.2,1.8-4,4-4c2.2,0,4,1.8,4,4C16,14.2,14.2,16,12,16z M12,10c-1.1,0-2,0.9-2,2c0,1.1,0.9,2,2,2
	c1.1,0,2-0.9,2-2C14,10.9,13.1,10,12,10z"/>
<path d="M12.1,23c-0.8,0-1.5-0.3-2-0.8c-0.5-0.5-0.8-1.3-0.8-2c0-0.2,0-0.3-0.1-0.3c-0.1-0.1-0.1-0.1-0.2-0.2
	c-0.2-0.1-0.3-0.1-0.4-0.1c-0.1,0-0.2,0.1-0.3,0.1c-0.3,0.3-0.6,0.5-1,0.7c-0.7,0.3-1.5,0.3-2.2,0c-0.3-0.1-0.7-0.3-0.9-0.6
	c-0.3-0.3-0.5-0.6-0.6-0.9c-0.1-0.3-0.2-0.7-0.2-1.1s0.1-0.7,0.2-1.1c0.1-0.3,0.3-0.7,0.6-0.9c0.1-0.1,0.2-0.2,0.2-0.3
	c0-0.1,0-0.2,0-0.3c0-0.1-0.1-0.2-0.2-0.2c-0.1-0.1-0.2-0.1-0.3-0.1H3.8c-0.8,0-1.5-0.3-2-0.8c-0.5-0.5-0.8-1.2-0.8-2
	c0-0.8,0.3-1.5,0.8-2c0.5-0.5,1.2-0.8,2-0.8c0.2,0,0.3,0,0.3-0.1S4.3,9,4.3,8.9c0.1-0.1,0.1-0.3,0.1-0.4c0-0.1-0.1-0.2-0.1-0.3
	C3.9,8,3.7,7.7,3.6,7.4C3.5,7,3.4,6.6,3.4,6.3s0.1-0.7,0.2-1.1c0.1-0.3,0.3-0.7,0.6-0.9s0.6-0.5,0.9-0.6c0.7-0.3,1.5-0.3,2.2,0
	C7.6,3.8,7.9,4,8.2,4.3c0.1,0.1,0.2,0.2,0.3,0.2c0.1,0,0.2,0,0.3,0c0.1,0,0.1,0,0.2-0.1c0,0,0.1-0.1,0.1-0.1C9.2,4.2,9.2,4.1,9.2,4
	V3.8c0-0.8,0.3-1.5,0.8-2c1.1-1.1,2.9-1.1,4,0c0.5,0.5,0.8,1.2,0.8,2c0,0.2,0,0.3,0.1,0.4C15,4.3,15,4.3,15.1,4.4
	c0.1,0,0.2,0.1,0.3,0c0.1,0,0.2-0.1,0.3-0.1c0.3-0.3,0.6-0.5,1-0.7c0.7-0.3,1.5-0.3,2.2,0c0.3,0.1,0.7,0.3,0.9,0.6
	c0.3,0.3,0.5,0.6,0.6,0.9c0.1,0.3,0.2,0.7,0.2,1.1s-0.1,0.7-0.2,1.1c-0.1,0.3-0.3,0.6-0.6,0.9c-0.1,0.1-0.2,0.2-0.2,0.3
	c0,0.1,0,0.2,0,0.3c0,0.1,0,0.1,0.1,0.2c0,0,0.1,0.1,0.1,0.1c0.1,0.1,0.2,0.1,0.3,0.1h0.2c0.7,0,1.5,0.3,2,0.8
	c0.5,0.5,0.8,1.2,0.8,2c0,0.8-0.3,1.5-0.8,2c-0.5,0.5-1.2,0.8-2,0.8c-0.2,0-0.3,0-0.4,0.1c-0.1,0.1-0.1,0.1-0.2,0.2c0,0,0,0,0,0
	c0,0.1-0.1,0.2,0,0.3c0,0.1,0.1,0.2,0.1,0.3c0.3,0.3,0.5,0.6,0.7,1c0.1,0.3,0.2,0.7,0.2,1.1s-0.1,0.7-0.2,1.1
	c-0.1,0.3-0.3,0.7-0.6,0.9c-0.3,0.3-0.6,0.5-0.9,0.6c-0.7,0.3-1.5,0.3-2.2,0c-0.3-0.1-0.6-0.3-0.9-0.6c-0.1-0.1-0.2-0.2-0.3-0.2
	c-0.1,0-0.2,0-0.3,0c-0.1,0-0.2,0.1-0.2,0.2c-0.1,0.1-0.1,0.2-0.1,0.3v0.1c0,0.8-0.3,1.5-0.8,2C13.5,22.7,12.8,23,12.1,23z
	 M8.7,17.6c0.3,0,0.7,0.1,1,0.2c0.4,0.1,0.8,0.5,1.1,0.9c0.3,0.4,0.5,0.9,0.5,1.4c0,0,0,0.1,0,0.1c0,0.2,0.1,0.4,0.2,0.6
	c0.3,0.3,0.9,0.3,1.2,0c0.2-0.2,0.2-0.4,0.2-0.6V20c0-0.5,0.1-1,0.4-1.4c0.3-0.4,0.6-0.7,1.1-0.9c0.5-0.2,1-0.3,1.4-0.2
	c0.5,0.1,0.9,0.3,1.3,0.7c0.1,0.1,0.2,0.2,0.3,0.2c0.2,0.1,0.4,0.1,0.6,0c0.1,0,0.2-0.1,0.3-0.2s0.1-0.2,0.2-0.3
	c0-0.1,0.1-0.2,0.1-0.3s0-0.2-0.1-0.3c0-0.1-0.1-0.2-0.2-0.3c-0.4-0.4-0.6-0.9-0.7-1.4c-0.1-0.5,0-1,0.2-1.4
	c0.2-0.4,0.5-0.8,0.9-1.1c0.4-0.3,0.9-0.4,1.4-0.4c0.3,0,0.5-0.1,0.7-0.2c0.2-0.2,0.2-0.4,0.2-0.6s-0.1-0.4-0.2-0.6
	c-0.2-0.2-0.4-0.2-0.6-0.2H20c-0.5,0-1-0.1-1.4-0.4c-0.4-0.3-0.7-0.6-0.9-1.1c0-0.1-0.1-0.2-0.1-0.3c-0.1-0.4-0.2-0.8-0.1-1.3
	c0.1-0.5,0.3-0.9,0.7-1.3c0.1-0.1,0.2-0.2,0.2-0.3c0-0.1,0.1-0.2,0.1-0.3s0-0.2-0.1-0.3c0-0.1-0.1-0.2-0.2-0.3
	c-0.1-0.1-0.2-0.1-0.3-0.2c-0.2-0.1-0.4-0.1-0.6,0c-0.1,0-0.2,0.1-0.3,0.2c-0.4,0.4-0.9,0.6-1.4,0.7c-0.5,0.1-1,0-1.5-0.2
	c-0.4-0.2-0.8-0.5-1.1-0.9c-0.3-0.4-0.4-0.9-0.4-1.4c0-0.3-0.1-0.5-0.2-0.7c-0.3-0.3-0.8-0.3-1.2,0c-0.2,0.2-0.2,0.4-0.2,0.6V4
	c0,0.5-0.1,1-0.4,1.4c-0.3,0.4-0.6,0.7-1.1,0.9c-0.1,0-0.2,0.1-0.3,0.1C9,6.5,8.6,6.5,8.1,6.4C7.7,6.3,7.2,6.1,6.8,5.8
	C6.7,5.6,6.6,5.6,6.5,5.5c-0.2-0.1-0.4-0.1-0.6,0c-0.1,0-0.2,0.1-0.3,0.2S5.5,5.9,5.4,6c0,0.1-0.1,0.2-0.1,0.3s0,0.2,0.1,0.3
	c0,0.1,0.1,0.2,0.2,0.3C6,7.3,6.3,7.7,6.4,8.2c0.1,0.5,0,1-0.2,1.5c-0.2,0.4-0.5,0.8-0.9,1.1c-0.4,0.3-0.9,0.5-1.4,0.5
	c0,0-0.1,0-0.1,0c-0.2,0-0.4,0.1-0.6,0.2S3,11.9,3,12.1c0,0.2,0.1,0.4,0.2,0.6c0.2,0.2,0.4,0.2,0.6,0.2H4c0.5,0,1,0.1,1.4,0.4
	c0.4,0.3,0.7,0.6,0.9,1.1c0.2,0.4,0.3,1,0.2,1.4c-0.1,0.5-0.3,0.9-0.7,1.3c-0.1,0.1-0.2,0.2-0.2,0.3c0,0.1-0.1,0.2-0.1,0.3
	c0,0.1,0,0.2,0.1,0.3c0,0.1,0.1,0.2,0.2,0.3c0.1,0.1,0.2,0.1,0.3,0.2c0.2,0.1,0.4,0.1,0.6,0c0.1,0,0.2-0.1,0.3-0.2
	c0.4-0.4,0.9-0.6,1.4-0.7C8.4,17.6,8.5,17.6,8.7,17.6z M18.7,14.7L18.7,14.7L18.7,14.7z"/>
</svg>
