<svg width="24" height="24" viewBox="0 0 24 24" xmlns="http://www.w3.org/2000/svg">
<path d="M6.5,22C4,22,2,20,2,17.5S4,13,6.5,13c1.1,0,2.1,0.4,2.8,1h9.2c1.9,0,3.5,1.6,3.5,3.5S20.4,21,18.5,21H9.3
	C8.6,21.6,7.6,22,6.5,22z M6.5,15C5.1,15,4,16.1,4,17.5S5.1,20,6.5,20S9,18.9,9,17.5S7.9,15,6.5,15z M10.7,19h7.8
	c0.8,0,1.5-0.7,1.5-1.5S19.3,16,18.5,16h-7.8c0.2,0.5,0.3,1,0.3,1.5S10.9,18.5,10.7,19z M17.5,11c-1.1,0-2.1-0.4-2.8-1H5.5
	C3.6,10,2,8.4,2,6.5S3.6,3,5.5,3h9.2c0.8-0.6,1.8-1,2.8-1C20,2,22,4,22,6.5S20,11,17.5,11z M17.5,4C16.1,4,15,5.1,15,6.5
	S16.1,9,17.5,9S20,7.9,20,6.5S18.9,4,17.5,4z M5.5,5C4.7,5,4,5.7,4,6.5S4.7,8,5.5,8h7.8C13.1,7.5,13,7,13,6.5s0.1-1,0.3-1.5H5.5z"/>
</svg>
