<svg width="24" height="24" viewBox="0 0 24 24" xmlns="http://www.w3.org/2000/svg">
<path d="M16.5,22.5c-0.3,0-0.6-0.2-0.7-0.5l-0.4-1.2c-0.1-0.2-0.2-0.4-0.4-0.6s-0.4-0.3-0.6-0.4l-1.2-0.4
	c-0.3-0.1-0.5-0.4-0.5-0.7s0.2-0.6,0.5-0.7l1.2-0.4c0.2-0.1,0.4-0.2,0.6-0.4s0.3-0.4,0.4-0.6l0.4-1.2c0.1-0.3,0.4-0.5,0.7-0.5
	s0.6,0.2,0.7,0.5l0.4,1.2c0.1,0.2,0.2,0.4,0.4,0.6s0.4,0.3,0.6,0.4l1.2,0.4c0.3,0.1,0.5,0.4,0.5,0.7s-0.2,0.6-0.5,0.7l-1.2,0.4
	c-0.2,0.1-0.4,0.2-0.6,0.4s-0.3,0.4-0.4,0.6L17.2,22C17.1,22.3,16.8,22.5,16.5,22.5z M15.6,18.8c0.2,0.1,0.4,0.3,0.5,0.4
	s0.3,0.3,0.4,0.5c0.1-0.2,0.3-0.4,0.4-0.5s0.3-0.3,0.5-0.4c-0.2-0.1-0.4-0.3-0.5-0.4s-0.3-0.3-0.4-0.5c-0.1,0.2-0.3,0.4-0.4,0.5
	S15.8,18.6,15.6,18.8z M9,19.5c-0.3,0-0.6-0.2-0.7-0.5l-0.8-2.8c-0.2-0.6-0.5-1.2-1-1.6s-1-0.8-1.6-1L2,12.7
	c-0.3-0.1-0.5-0.4-0.5-0.7s0.2-0.6,0.5-0.7l2.8-0.8c0.6-0.2,1.2-0.5,1.6-1c0.4-0.4,0.8-1,1-1.6L8.3,5C8.4,4.7,8.7,4.5,9,4.5l0,0
	c0.3,0,0.6,0.2,0.7,0.5l0.8,2.8c0.2,0.6,0.5,1.2,1,1.6c0.4,0.4,1,0.8,1.6,1l2.8,0.8c0.3,0.1,0.5,0.4,0.5,0.7s-0.2,0.6-0.5,0.7
	l-2.8,0.8c-0.6,0.2-1.2,0.5-1.6,1s-0.8,1-1,1.6l0,0L9.7,19C9.6,19.3,9.3,19.5,9,19.5z M5,12l0.3,0.1c0.9,0.2,1.6,0.7,2.3,1.3
	c0.6,0.6,1.1,1.4,1.3,2.3L9,16l0.1-0.3c0,0,0,0,0,0c0.2-0.9,0.7-1.6,1.3-2.3c0.6-0.6,1.4-1.1,2.3-1.3L13,12l-0.3-0.1
	c-0.9-0.2-1.6-0.7-2.3-1.3C9.8,9.9,9.3,9.2,9.1,8.3L9,8L8.9,8.3c-0.2,0.9-0.7,1.6-1.3,2.3s-1.4,1.1-2.3,1.3L5,12z M18,10.5
	c-0.3,0-0.6-0.2-0.7-0.6l-0.3-1c-0.1-0.5-0.4-0.9-0.7-1.2S15.6,7.1,15.1,7l-1-0.3c-0.3-0.1-0.6-0.4-0.6-0.7s0.2-0.6,0.6-0.7l1-0.3
	c0.5-0.1,0.9-0.4,1.2-0.7s0.6-0.8,0.7-1.2l0.3-1c0.1-0.3,0.4-0.6,0.7-0.6s0.6,0.2,0.7,0.6l0.3,1c0.1,0.5,0.4,0.9,0.7,1.2
	C20,4.7,20.4,4.9,20.9,5l1,0.3c0.3,0.1,0.6,0.4,0.6,0.7s-0.2,0.6-0.6,0.7l-1,0.3c-0.5,0.1-0.9,0.4-1.2,0.7C19.3,8,19.1,8.4,19,8.9
	l-0.3,1C18.6,10.3,18.3,10.5,18,10.5z M16.6,6c0.3,0.2,0.6,0.4,0.8,0.6c0.2,0.2,0.4,0.5,0.6,0.8c0.2-0.3,0.4-0.6,0.6-0.8
	c0.2-0.2,0.5-0.4,0.8-0.6c-0.3-0.2-0.6-0.4-0.8-0.6c-0.2-0.2-0.4-0.5-0.6-0.8c-0.2,0.3-0.4,0.6-0.6,0.8C17.1,5.6,16.9,5.8,16.6,6z"
	/>
</svg>
