<svg width="24" height="24" viewBox="0 0 24 24" xmlns="http://www.w3.org/2000/svg">
<path d="M6.5,21.6c-0.1,0-0.2,0-0.2,0c-0.4-0.1-0.8-0.4-1-0.8c-0.2-0.5-0.2-0.9-0.1-1.6l0.8-4.8l-3.5-3.4C2,10.6,1.7,10.3,1.6,9.8
	C1.5,9.4,1.7,8.9,2,8.6C2.3,8.2,2.8,8.1,3.5,8l4.8-0.7L10.4,3v0c0.3-0.6,0.5-1,1-1.2c0.4-0.2,0.9-0.2,1.3,0c0.5,0.2,0.7,0.6,1,1.2
	l2.1,4.3L20.5,8c0.7,0.1,1.1,0.2,1.5,0.5c0.3,0.3,0.5,0.8,0.4,1.2c-0.1,0.5-0.4,0.8-0.9,1.3l-3.5,3.4l0.8,4.8
	c0.1,0.7,0.2,1.1-0.1,1.6c-0.2,0.4-0.6,0.7-1,0.8c-0.5,0.1-0.9-0.1-1.5-0.4L12,18.9l-4.3,2.3C7.2,21.4,6.9,21.6,6.5,21.6z M7,20.1
	L7,20.1L7,20.1z M12,16.8c0.1,0,0.2,0,0.3,0c0.2,0,0.4,0.1,0.5,0.2l4,2.1l-0.8-4.5c0-0.2-0.1-0.4,0-0.6c0-0.2,0.1-0.4,0.2-0.5
	c0.1-0.2,0.2-0.3,0.4-0.5l3.3-3.2l-4.5-0.7c-0.2,0-0.4-0.1-0.6-0.1c-0.2-0.1-0.3-0.2-0.5-0.3c-0.2-0.2-0.2-0.3-0.3-0.5l-2-4.1
	l-2,4.1C9.9,8.5,9.8,8.7,9.7,8.8C9.5,9,9.4,9.1,9.2,9.2C9,9.3,8.8,9.3,8.6,9.3L4.1,10l3.2,3.2c0.1,0.1,0.3,0.3,0.4,0.5
	c0.1,0.2,0.2,0.4,0.2,0.5c0,0.2,0,0.4,0,0.6l-0.8,4.5l4-2.1c0.2-0.1,0.3-0.2,0.6-0.2C11.8,16.8,11.9,16.8,12,16.8z"/>
</svg>
