<svg width="24" height="24" viewBox="0 0 24 24" xmlns="http://www.w3.org/2000/svg">
<path d="M19.9,21.8h-2.2c-0.5,0-1-0.2-1.3-0.5s-0.5-0.8-0.5-1.3V4.1c0-1,0.8-1.9,1.9-1.9H20c1,0,1.9,0.8,1.9,1.9v15.8
	C21.8,20.9,20.9,21.8,19.9,21.8z M13.1,21.8h-2.2c-0.5,0-1-0.2-1.3-0.5C9.2,20.8,9,20.4,9,19.9V8.6c0-1,0.8-1.9,1.9-1.9h2.2
	c1,0,1.9,0.8,1.9,1.9v11.2C15,20.9,14.2,21.8,13.1,21.8z M6.4,21.8H4.1c-0.5,0-1-0.2-1.3-0.5c-0.4-0.4-0.5-0.8-0.5-1.3v-6.8
	c0-1,0.8-1.9,1.9-1.9h2.2c1,0,1.9,0.8,1.9,1.9V20C8.2,20.9,7.4,21.8,6.4,21.8z"/>
</svg>
