<svg width="24" height="24" viewBox="0 0 24 24" xmlns="http://www.w3.org/2000/svg">
<path d="M12,21.5c-1.3,0-2.6-0.2-3.7-0.8c-1.2-0.5-2.2-1.2-3-2s-1.5-1.9-2-3c-0.5-1.2-0.8-2.4-0.8-3.7s0.2-2.6,0.8-3.7
	c0.5-1.2,1.2-2.2,2-3s1.9-1.5,3-2c1.2-0.5,2.4-0.8,3.7-0.8s2.6,0.2,3.7,0.8c1.2,0.5,2.2,1.2,3,2s1.5,1.9,2,3
	c0.5,1.2,0.8,2.4,0.8,3.7s-0.2,2.6-0.8,3.7c-0.5,1.2-1.2,2.2-2,3s-1.9,1.5-3,2C14.6,21.2,13.3,21.5,12,21.5z M9.1,19.5l1.5-3.4
	c-0.6-0.2-1.2-0.6-1.6-1c-0.4-0.5-0.8-1-1-1.6l-3.4,1.4c0.4,1.1,1,2,1.8,2.8C7.1,18.5,8,19,9.1,19.5z M7.9,10.6
	c0.2-0.6,0.6-1.2,1-1.6c0.5-0.5,1-0.8,1.6-1L9.1,4.5c-1.1,0.4-2,1-2.8,1.8S4.9,8.1,4.5,9.1L7.9,10.6z M12,14.9c0.8,0,1.5-0.3,2-0.8
	c0.6-0.6,0.8-1.2,0.8-2s-0.3-1.5-0.8-2c-0.6-0.6-1.2-0.8-2-0.8s-1.5,0.3-2,0.8c-0.6,0.6-0.8,1.2-0.8,2s0.3,1.5,0.8,2
	C10.5,14.6,11.2,14.9,12,14.9z M14.9,19.5c1.1-0.4,2-1,2.8-1.8c0.8-0.8,1.4-1.7,1.8-2.8l-3.4-1.5c-0.2,0.6-0.6,1.2-1,1.6
	c-0.5,0.5-1,0.8-1.6,1L14.9,19.5z M16.1,10.5l3.4-1.4c-0.4-1.1-1-2-1.8-2.8c-0.8-0.8-1.7-1.4-2.8-1.8l-1.4,3.4
	c0.6,0.2,1.1,0.6,1.6,1C15.5,9.4,15.8,9.9,16.1,10.5z"/>
</svg>
