<svg width="24" height="24" viewBox="0 0 24 24" xmlns="http://www.w3.org/2000/svg">
<path d="M17,21C17,21,17,21,17,21L17,21c-0.1,0-0.3,0-0.4-0.1c-0.1,0-0.2-0.1-0.3-0.2l-4-4c-0.4-0.4-0.4-1,0-1.4s1-0.4,1.4,0
	l2.3,2.3V4c0-0.6,0.4-1,1-1s1,0.4,1,1v13.6l2.3-2.3c0.4-0.4,1-0.4,1.4,0s0.4,1,0,1.4l-4,4c-0.1,0.1-0.2,0.2-0.3,0.2
	C17.3,21,17.1,21,17,21L17,21C17,21,17,21,17,21z M7,21c-0.6,0-1-0.4-1-1V6.4L3.7,8.7c-0.4,0.4-1,0.4-1.4,0s-0.4-1,0-1.4l4-4
	c0.1-0.1,0.2-0.2,0.3-0.2C6.7,3,6.9,3,7,3l0,0c0,0,0,0,0,0l0,0c0.1,0,0.3,0,0.4,0.1c0.1,0,0.2,0.1,0.3,0.2l4,4c0.4,0.4,0.4,1,0,1.4
	s-1,0.4-1.4,0L8,6.4V20C8,20.6,7.6,21,7,21z"/>
</svg>
