<svg width="24" height="24" viewBox="0 0 24 24" xmlns="http://www.w3.org/2000/svg">
<path d="M14.2,23H9.8C8,23,7,23,6.2,22.6c-0.8-0.4-1.4-1-1.7-1.7C4,20,4,19,4,17.2V7H3C2.4,7,2,6.6,2,6s0.4-1,1-1h4
	c0-1.1,0-1.8,0.3-2.4c0.3-0.6,0.7-1,1.3-1.3C9.3,1,10,1,11.2,1h1.6c1.2,0,1.9,0,2.6,0.3c0.6,0.3,1,0.7,1.3,1.3C17,3.2,17,3.9,17,5h4
	c0.6,0,1,0.4,1,1s-0.4,1-1,1h-1v10.2c0,1.8,0,2.8-0.4,3.6c-0.4,0.8-1,1.4-1.7,1.7C17,23,16,23,14.2,23z M6,7v10.2
	c0,1.5,0,2.3,0.2,2.7c0.2,0.4,0.5,0.7,0.9,0.9C7.5,21,8.3,21,9.8,21h4.4c1.5,0,2.3,0,2.7-0.2c0.4-0.2,0.7-0.5,0.9-0.9
	c0.2-0.4,0.2-1.2,0.2-2.7V7H6z M9,5h6c0-0.8,0-1.3-0.1-1.5c-0.1-0.2-0.2-0.3-0.4-0.4C14.2,3,13.7,3,12.8,3h-1.6
	c-0.9,0-1.4,0-1.7,0.1C9.4,3.2,9.2,3.4,9.1,3.5C9,3.7,9,4.2,9,5z M14,17.5c-0.6,0-1-0.4-1-1v-5c0-0.6,0.4-1,1-1s1,0.4,1,1v5
	C15,17.1,14.6,17.5,14,17.5z M10,17.5c-0.6,0-1-0.4-1-1v-5c0-0.6,0.4-1,1-1s1,0.4,1,1v5C11,17.1,10.6,17.5,10,17.5z"/>
</svg>
