<svg width="24" height="24" viewBox="0 0 24 24" xmlns="http://www.w3.org/2000/svg">
<path d="M12,22c-0.6,0-1-0.4-1-1v-6.6l-2.3,2.3c-0.4,0.4-1,0.4-1.4,0s-0.4-1,0-1.4l4-4c0.1-0.1,0.2-0.2,0.3-0.2
	c0.1,0,0.2-0.1,0.4-0.1l0,0c0,0,0,0,0,0l0,0c0.1,0,0.3,0,0.4,0.1c0.1,0,0.2,0.1,0.3,0.2l4,4c0.4,0.4,0.4,1,0,1.4s-1,0.4-1.4,0
	L13,14.4V21C13,21.6,12.6,22,12,22z M20,17.7c-0.3,0-0.6-0.1-0.8-0.4c-0.4-0.4-0.3-1.1,0.1-1.4c1-0.9,1.6-2.1,1.6-3.5
	C21,10,19,8,16.5,8c-0.6,0-1.1-0.3-1.4-0.8C13.9,5.2,11.8,4,9.5,4C5.9,4,3,6.9,3,10.5c0,1.7,0.7,3.4,1.9,4.6c0.4,0.4,0.4,1,0,1.4
	c-0.4,0.4-1,0.4-1.4,0c-1.6-1.6-2.5-3.7-2.5-6C1,5.8,4.8,2,9.5,2c2.9,0,5.7,1.5,7.2,4c3.5,0.1,6.3,3,6.3,6.5c0,1.9-0.9,3.8-2.4,5
	C20.5,17.7,20.2,17.7,20,17.7z"/>
</svg>
