<svg width="24" height="24" viewBox="0 0 24 24" xmlns="http://www.w3.org/2000/svg">
<path d="M18,23c-0.2,0-0.5,0-0.8,0H6.8C5,23,4,23,3.2,22.6c-0.8-0.4-1.4-1-1.7-1.7c-0.1-0.1-0.1-0.3-0.2-0.4
	c-0.1-0.1-0.1-0.2-0.1-0.4C1,19.3,1,18.5,1,17.2V6.8C1,5,1,4,1.4,3.2c0.4-0.8,1-1.4,1.7-1.7C4,1,5,1,6.8,1H12c0.6,0,1,0.4,1,1
	s-0.4,1-1,1H6.8C5.3,3,4.5,3,4.1,3.2C3.7,3.4,3.4,3.7,3.2,4.1C3,4.5,3,5.3,3,6.8V17c0.8-0.6,1.9-1,3-1h7c1,0,1.5,0,2,0.1
	c2,0.4,3.5,1.9,3.9,3.9C19,20.3,19,20.6,19,21c0.4,0,0.7-0.1,0.9-0.2c0.4-0.2,0.7-0.5,0.9-0.9c0.2-0.4,0.2-1.2,0.2-2.7V12
	c0-0.6,0.4-1,1-1s1,0.4,1,1v5.2c0,1.8,0,2.8-0.4,3.6c-0.4,0.8-1,1.4-1.7,1.7C20.1,22.9,19.4,23,18,23C18,23,18,23,18,23z M3.2,19.9
	C3.2,19.9,3.2,19.9,3.2,19.9c0.2,0.4,0.5,0.7,0.9,0.9C4.5,21,5.3,21,6.8,21H17c0-0.3,0-0.4-0.1-0.6c-0.2-1.2-1.2-2.1-2.4-2.4
	C14.3,18,13.8,18,13,18H6C4.8,18,3.7,18.8,3.2,19.9z M10,14.5c-2.8,0-5-2.2-5-5s2.2-5,5-5s5,2.2,5,5S12.8,14.5,10,14.5z M10,6.5
	c-1.7,0-3,1.3-3,3s1.3,3,3,3s3-1.3,3-3S11.7,6.5,10,6.5z M19,9c-0.6,0-1-0.4-1-1V6h-2c-0.6,0-1-0.4-1-1s0.4-1,1-1h2V2
	c0-0.6,0.4-1,1-1s1,0.4,1,1v2h2c0.6,0,1,0.4,1,1s-0.4,1-1,1h-2v2C20,8.6,19.6,9,19,9z"/>
</svg>
